<?xml version="1.0" encoding="utf-8" standalone="no"?>
<!DOCTYPE svg PUBLIC "-//W3C//DTD SVG 1.1//EN"
  "http://www.w3.org/Graphics/SVG/1.1/DTD/svg11.dtd">
<svg xmlns:xlink="http://www.w3.org/1999/xlink" width="213.053125pt" height="184.175943pt" viewBox="0 0 213.053125 184.175943" xmlns="http://www.w3.org/2000/svg" version="1.1">
 <metadata>
  <rdf:RDF xmlns:dc="http://purl.org/dc/elements/1.1/" xmlns:cc="http://creativecommons.org/ns#" xmlns:rdf="http://www.w3.org/1999/02/22-rdf-syntax-ns#">
   <cc:Work>
    <dc:type rdf:resource="http://purl.org/dc/dcmitype/StillImage"/>
    <dc:date>2025-11-12T16:24:32.665504</dc:date>
    <dc:format>image/svg+xml</dc:format>
    <dc:creator>
     <cc:Agent>
      <dc:title>Matplotlib v3.9.2, https://matplotlib.org/</dc:title>
     </cc:Agent>
    </dc:creator>
   </cc:Work>
  </rdf:RDF>
 </metadata>
 <defs>
  <style type="text/css">*{stroke-linejoin: round; stroke-linecap: butt}</style>
 </defs>
 <g id="figure_1">
  <g id="patch_1">
   <path d="M 0 184.175943 
L 213.053125 184.175943 
L 213.053125 0 
L 0 0 
L 0 184.175943 
z
" style="fill: none"/>
  </g>
  <g id="axes_1">
   <g id="patch_2">
    <path d="M 38.453125 147.33063 
L 205.853125 147.33063 
L 205.853125 8.73063 
L 38.453125 8.73063 
L 38.453125 147.33063 
z
" style="fill: none"/>
   </g>
   <g id="patch_3">
    <path d="M 46.062216 147.33063 
L 49.105852 147.33063 
L 49.105852 47.192699 
L 46.062216 47.192699 
z
" clip-path="url(#p93c8479c6f)" style="fill: #1f77b4; fill-opacity: 0.5; stroke: #000000; stroke-width: 0.304364; stroke-linejoin: miter"/>
   </g>
   <g id="patch_4">
    <path d="M 49.105852 147.33063 
L 52.149489 147.33063 
L 52.149489 94.985803 
L 49.105852 94.985803 
z
" clip-path="url(#p93c8479c6f)" style="fill: #1f77b4; fill-opacity: 0.5; stroke: #000000; stroke-width: 0.304364; stroke-linejoin: miter"/>
   </g>
   <g id="patch_5">
    <path d="M 52.149489 147.33063 
L 55.193125 147.33063 
L 55.193125 79.054768 
L 52.149489 79.054768 
z
" clip-path="url(#p93c8479c6f)" style="fill: #1f77b4; fill-opacity: 0.5; stroke: #000000; stroke-width: 0.304364; stroke-linejoin: miter"/>
   </g>
   <g id="patch_6">
    <path d="M 55.193125 147.33063 
L 58.236761 147.33063 
L 58.236761 76.778906 
L 55.193125 76.778906 
z
" clip-path="url(#p93c8479c6f)" style="fill: #1f77b4; fill-opacity: 0.5; stroke: #000000; stroke-width: 0.304364; stroke-linejoin: miter"/>
   </g>
   <g id="patch_7">
    <path d="M 58.236761 147.33063 
L 61.280398 147.33063 
L 61.280398 81.33063 
L 58.236761 81.33063 
z
" clip-path="url(#p93c8479c6f)" style="fill: #1f77b4; fill-opacity: 0.5; stroke: #000000; stroke-width: 0.304364; stroke-linejoin: miter"/>
   </g>
   <g id="patch_8">
    <path d="M 61.280398 147.33063 
L 64.324034 147.33063 
L 64.324034 135.95132 
L 61.280398 135.95132 
z
" clip-path="url(#p93c8479c6f)" style="fill: #1f77b4; fill-opacity: 0.5; stroke: #000000; stroke-width: 0.304364; stroke-linejoin: miter"/>
   </g>
   <g id="patch_9">
    <path d="M 64.324034 147.33063 
L 67.36767 147.33063 
L 67.36767 108.640975 
L 64.324034 108.640975 
z
" clip-path="url(#p93c8479c6f)" style="fill: #1f77b4; fill-opacity: 0.5; stroke: #000000; stroke-width: 0.304364; stroke-linejoin: miter"/>
   </g>
   <g id="patch_10">
    <path d="M 67.36767 147.33063 
L 70.411307 147.33063 
L 70.411307 138.227182 
L 67.36767 138.227182 
z
" clip-path="url(#p93c8479c6f)" style="fill: #1f77b4; fill-opacity: 0.5; stroke: #000000; stroke-width: 0.304364; stroke-linejoin: miter"/>
   </g>
   <g id="patch_11">
    <path d="M 70.411307 147.33063 
L 73.454943 147.33063 
L 73.454943 140.503044 
L 70.411307 140.503044 
z
" clip-path="url(#p93c8479c6f)" style="fill: #1f77b4; fill-opacity: 0.5; stroke: #000000; stroke-width: 0.304364; stroke-linejoin: miter"/>
   </g>
   <g id="patch_12">
    <path d="M 73.454943 147.33063 
L 76.49858 147.33063 
L 76.49858 131.399596 
L 73.454943 131.399596 
z
" clip-path="url(#p93c8479c6f)" style="fill: #1f77b4; fill-opacity: 0.5; stroke: #000000; stroke-width: 0.304364; stroke-linejoin: miter"/>
   </g>
   <g id="patch_13">
    <path d="M 76.49858 147.33063 
L 79.542216 147.33063 
L 79.542216 131.399596 
L 76.49858 131.399596 
z
" clip-path="url(#p93c8479c6f)" style="fill: #1f77b4; fill-opacity: 0.5; stroke: #000000; stroke-width: 0.304364; stroke-linejoin: miter"/>
   </g>
   <g id="patch_14">
    <path d="M 79.542216 147.33063 
L 82.585852 147.33063 
L 82.585852 124.57201 
L 79.542216 124.57201 
z
" clip-path="url(#p93c8479c6f)" style="fill: #1f77b4; fill-opacity: 0.5; stroke: #000000; stroke-width: 0.304364; stroke-linejoin: miter"/>
   </g>
   <g id="patch_15">
    <path d="M 82.585852 147.33063 
L 85.629489 147.33063 
L 85.629489 140.503044 
L 82.585852 140.503044 
z
" clip-path="url(#p93c8479c6f)" style="fill: #1f77b4; fill-opacity: 0.5; stroke: #000000; stroke-width: 0.304364; stroke-linejoin: miter"/>
   </g>
   <g id="patch_16">
    <path d="M 85.629489 147.33063 
L 88.673125 147.33063 
L 88.673125 135.95132 
L 85.629489 135.95132 
z
" clip-path="url(#p93c8479c6f)" style="fill: #1f77b4; fill-opacity: 0.5; stroke: #000000; stroke-width: 0.304364; stroke-linejoin: miter"/>
   </g>
   <g id="patch_17">
    <path d="M 88.673125 147.33063 
L 91.716761 147.33063 
L 91.716761 124.57201 
L 88.673125 124.57201 
z
" clip-path="url(#p93c8479c6f)" style="fill: #1f77b4; fill-opacity: 0.5; stroke: #000000; stroke-width: 0.304364; stroke-linejoin: miter"/>
   </g>
   <g id="patch_18">
    <path d="M 91.716761 147.33063 
L 94.760398 147.33063 
L 94.760398 126.847872 
L 91.716761 126.847872 
z
" clip-path="url(#p93c8479c6f)" style="fill: #1f77b4; fill-opacity: 0.5; stroke: #000000; stroke-width: 0.304364; stroke-linejoin: miter"/>
   </g>
   <g id="patch_19">
    <path d="M 94.760398 147.33063 
L 97.804034 147.33063 
L 97.804034 133.675458 
L 94.760398 133.675458 
z
" clip-path="url(#p93c8479c6f)" style="fill: #1f77b4; fill-opacity: 0.5; stroke: #000000; stroke-width: 0.304364; stroke-linejoin: miter"/>
   </g>
   <g id="patch_20">
    <path d="M 97.804034 147.33063 
L 100.84767 147.33063 
L 100.84767 145.054768 
L 97.804034 145.054768 
z
" clip-path="url(#p93c8479c6f)" style="fill: #1f77b4; fill-opacity: 0.5; stroke: #000000; stroke-width: 0.304364; stroke-linejoin: miter"/>
   </g>
   <g id="patch_21">
    <path d="M 100.84767 147.33063 
L 103.891307 147.33063 
L 103.891307 138.227182 
L 100.84767 138.227182 
z
" clip-path="url(#p93c8479c6f)" style="fill: #1f77b4; fill-opacity: 0.5; stroke: #000000; stroke-width: 0.304364; stroke-linejoin: miter"/>
   </g>
   <g id="patch_22">
    <path d="M 103.891307 147.33063 
L 106.934943 147.33063 
L 106.934943 133.675458 
L 103.891307 133.675458 
z
" clip-path="url(#p93c8479c6f)" style="fill: #1f77b4; fill-opacity: 0.5; stroke: #000000; stroke-width: 0.304364; stroke-linejoin: miter"/>
   </g>
   <g id="patch_23">
    <path d="M 106.934943 147.33063 
L 109.97858 147.33063 
L 109.97858 147.33063 
L 106.934943 147.33063 
z
" clip-path="url(#p93c8479c6f)" style="fill: #1f77b4; fill-opacity: 0.5; stroke: #000000; stroke-width: 0.304364; stroke-linejoin: miter"/>
   </g>
   <g id="patch_24">
    <path d="M 109.97858 147.33063 
L 113.022216 147.33063 
L 113.022216 122.296148 
L 109.97858 122.296148 
z
" clip-path="url(#p93c8479c6f)" style="fill: #1f77b4; fill-opacity: 0.5; stroke: #000000; stroke-width: 0.304364; stroke-linejoin: miter"/>
   </g>
   <g id="patch_25">
    <path d="M 113.022216 147.33063 
L 116.065852 147.33063 
L 116.065852 135.95132 
L 113.022216 135.95132 
z
" clip-path="url(#p93c8479c6f)" style="fill: #1f77b4; fill-opacity: 0.5; stroke: #000000; stroke-width: 0.304364; stroke-linejoin: miter"/>
   </g>
   <g id="patch_26">
    <path d="M 116.065852 147.33063 
L 119.109489 147.33063 
L 119.109489 138.227182 
L 116.065852 138.227182 
z
" clip-path="url(#p93c8479c6f)" style="fill: #1f77b4; fill-opacity: 0.5; stroke: #000000; stroke-width: 0.304364; stroke-linejoin: miter"/>
   </g>
   <g id="patch_27">
    <path d="M 119.109489 147.33063 
L 122.153125 147.33063 
L 122.153125 138.227182 
L 119.109489 138.227182 
z
" clip-path="url(#p93c8479c6f)" style="fill: #1f77b4; fill-opacity: 0.5; stroke: #000000; stroke-width: 0.304364; stroke-linejoin: miter"/>
   </g>
   <g id="patch_28">
    <path d="M 122.153125 147.33063 
L 125.196761 147.33063 
L 125.196761 142.778906 
L 122.153125 142.778906 
z
" clip-path="url(#p93c8479c6f)" style="fill: #1f77b4; fill-opacity: 0.5; stroke: #000000; stroke-width: 0.304364; stroke-linejoin: miter"/>
   </g>
   <g id="patch_29">
    <path d="M 125.196761 147.33063 
L 128.240398 147.33063 
L 128.240398 142.778906 
L 125.196761 142.778906 
z
" clip-path="url(#p93c8479c6f)" style="fill: #1f77b4; fill-opacity: 0.5; stroke: #000000; stroke-width: 0.304364; stroke-linejoin: miter"/>
   </g>
   <g id="patch_30">
    <path d="M 128.240398 147.33063 
L 131.284034 147.33063 
L 131.284034 142.778906 
L 128.240398 142.778906 
z
" clip-path="url(#p93c8479c6f)" style="fill: #1f77b4; fill-opacity: 0.5; stroke: #000000; stroke-width: 0.304364; stroke-linejoin: miter"/>
   </g>
   <g id="patch_31">
    <path d="M 131.284034 147.33063 
L 134.32767 147.33063 
L 134.32767 147.33063 
L 131.284034 147.33063 
z
" clip-path="url(#p93c8479c6f)" style="fill: #1f77b4; fill-opacity: 0.5; stroke: #000000; stroke-width: 0.304364; stroke-linejoin: miter"/>
   </g>
   <g id="patch_32">
    <path d="M 134.32767 147.33063 
L 137.371307 147.33063 
L 137.371307 147.33063 
L 134.32767 147.33063 
z
" clip-path="url(#p93c8479c6f)" style="fill: #1f77b4; fill-opacity: 0.5; stroke: #000000; stroke-width: 0.304364; stroke-linejoin: miter"/>
   </g>
   <g id="patch_33">
    <path d="M 137.371307 147.33063 
L 140.414943 147.33063 
L 140.414943 147.33063 
L 137.371307 147.33063 
z
" clip-path="url(#p93c8479c6f)" style="fill: #1f77b4; fill-opacity: 0.5; stroke: #000000; stroke-width: 0.304364; stroke-linejoin: miter"/>
   </g>
   <g id="patch_34">
    <path d="M 140.414943 147.33063 
L 143.45858 147.33063 
L 143.45858 147.33063 
L 140.414943 147.33063 
z
" clip-path="url(#p93c8479c6f)" style="fill: #1f77b4; fill-opacity: 0.5; stroke: #000000; stroke-width: 0.304364; stroke-linejoin: miter"/>
   </g>
   <g id="patch_35">
    <path d="M 143.45858 147.33063 
L 146.502216 147.33063 
L 146.502216 147.33063 
L 143.45858 147.33063 
z
" clip-path="url(#p93c8479c6f)" style="fill: #1f77b4; fill-opacity: 0.5; stroke: #000000; stroke-width: 0.304364; stroke-linejoin: miter"/>
   </g>
   <g id="patch_36">
    <path d="M 146.502216 147.33063 
L 149.545852 147.33063 
L 149.545852 147.33063 
L 146.502216 147.33063 
z
" clip-path="url(#p93c8479c6f)" style="fill: #1f77b4; fill-opacity: 0.5; stroke: #000000; stroke-width: 0.304364; stroke-linejoin: miter"/>
   </g>
   <g id="patch_37">
    <path d="M 149.545852 147.33063 
L 152.589489 147.33063 
L 152.589489 147.33063 
L 149.545852 147.33063 
z
" clip-path="url(#p93c8479c6f)" style="fill: #1f77b4; fill-opacity: 0.5; stroke: #000000; stroke-width: 0.304364; stroke-linejoin: miter"/>
   </g>
   <g id="patch_38">
    <path d="M 152.589489 147.33063 
L 155.633125 147.33063 
L 155.633125 147.33063 
L 152.589489 147.33063 
z
" clip-path="url(#p93c8479c6f)" style="fill: #1f77b4; fill-opacity: 0.5; stroke: #000000; stroke-width: 0.304364; stroke-linejoin: miter"/>
   </g>
   <g id="patch_39">
    <path d="M 155.633125 147.33063 
L 158.676761 147.33063 
L 158.676761 147.33063 
L 155.633125 147.33063 
z
" clip-path="url(#p93c8479c6f)" style="fill: #1f77b4; fill-opacity: 0.5; stroke: #000000; stroke-width: 0.304364; stroke-linejoin: miter"/>
   </g>
   <g id="patch_40">
    <path d="M 158.676761 147.33063 
L 161.720398 147.33063 
L 161.720398 147.33063 
L 158.676761 147.33063 
z
" clip-path="url(#p93c8479c6f)" style="fill: #1f77b4; fill-opacity: 0.5; stroke: #000000; stroke-width: 0.304364; stroke-linejoin: miter"/>
   </g>
   <g id="patch_41">
    <path d="M 161.720398 147.33063 
L 164.764034 147.33063 
L 164.764034 147.33063 
L 161.720398 147.33063 
z
" clip-path="url(#p93c8479c6f)" style="fill: #1f77b4; fill-opacity: 0.5; stroke: #000000; stroke-width: 0.304364; stroke-linejoin: miter"/>
   </g>
   <g id="patch_42">
    <path d="M 164.764034 147.33063 
L 167.80767 147.33063 
L 167.80767 147.33063 
L 164.764034 147.33063 
z
" clip-path="url(#p93c8479c6f)" style="fill: #1f77b4; fill-opacity: 0.5; stroke: #000000; stroke-width: 0.304364; stroke-linejoin: miter"/>
   </g>
   <g id="patch_43">
    <path d="M 167.80767 147.33063 
L 170.851307 147.33063 
L 170.851307 147.33063 
L 167.80767 147.33063 
z
" clip-path="url(#p93c8479c6f)" style="fill: #1f77b4; fill-opacity: 0.5; stroke: #000000; stroke-width: 0.304364; stroke-linejoin: miter"/>
   </g>
   <g id="patch_44">
    <path d="M 170.851307 147.33063 
L 173.894943 147.33063 
L 173.894943 147.33063 
L 170.851307 147.33063 
z
" clip-path="url(#p93c8479c6f)" style="fill: #1f77b4; fill-opacity: 0.5; stroke: #000000; stroke-width: 0.304364; stroke-linejoin: miter"/>
   </g>
   <g id="patch_45">
    <path d="M 173.894943 147.33063 
L 176.93858 147.33063 
L 176.93858 147.33063 
L 173.894943 147.33063 
z
" clip-path="url(#p93c8479c6f)" style="fill: #1f77b4; fill-opacity: 0.5; stroke: #000000; stroke-width: 0.304364; stroke-linejoin: miter"/>
   </g>
   <g id="patch_46">
    <path d="M 176.93858 147.33063 
L 179.982216 147.33063 
L 179.982216 147.33063 
L 176.93858 147.33063 
z
" clip-path="url(#p93c8479c6f)" style="fill: #1f77b4; fill-opacity: 0.5; stroke: #000000; stroke-width: 0.304364; stroke-linejoin: miter"/>
   </g>
   <g id="patch_47">
    <path d="M 179.982216 147.33063 
L 183.025852 147.33063 
L 183.025852 147.33063 
L 179.982216 147.33063 
z
" clip-path="url(#p93c8479c6f)" style="fill: #1f77b4; fill-opacity: 0.5; stroke: #000000; stroke-width: 0.304364; stroke-linejoin: miter"/>
   </g>
   <g id="patch_48">
    <path d="M 183.025852 147.33063 
L 186.069489 147.33063 
L 186.069489 147.33063 
L 183.025852 147.33063 
z
" clip-path="url(#p93c8479c6f)" style="fill: #1f77b4; fill-opacity: 0.5; stroke: #000000; stroke-width: 0.304364; stroke-linejoin: miter"/>
   </g>
   <g id="patch_49">
    <path d="M 186.069489 147.33063 
L 189.113125 147.33063 
L 189.113125 147.33063 
L 186.069489 147.33063 
z
" clip-path="url(#p93c8479c6f)" style="fill: #1f77b4; fill-opacity: 0.5; stroke: #000000; stroke-width: 0.304364; stroke-linejoin: miter"/>
   </g>
   <g id="patch_50">
    <path d="M 189.113125 147.33063 
L 192.156761 147.33063 
L 192.156761 147.33063 
L 189.113125 147.33063 
z
" clip-path="url(#p93c8479c6f)" style="fill: #1f77b4; fill-opacity: 0.5; stroke: #000000; stroke-width: 0.304364; stroke-linejoin: miter"/>
   </g>
   <g id="patch_51">
    <path d="M 192.156761 147.33063 
L 195.200398 147.33063 
L 195.200398 147.33063 
L 192.156761 147.33063 
z
" clip-path="url(#p93c8479c6f)" style="fill: #1f77b4; fill-opacity: 0.5; stroke: #000000; stroke-width: 0.304364; stroke-linejoin: miter"/>
   </g>
   <g id="patch_52">
    <path d="M 195.200398 147.33063 
L 198.244034 147.33063 
L 198.244034 142.778906 
L 195.200398 142.778906 
z
" clip-path="url(#p93c8479c6f)" style="fill: #1f77b4; fill-opacity: 0.5; stroke: #000000; stroke-width: 0.304364; stroke-linejoin: miter"/>
   </g>
   <g id="patch_53">
    <path d="M 46.440515 147.33063 
L 49.584852 147.33063 
L 49.584852 72.227182 
L 46.440515 72.227182 
z
" clip-path="url(#p93c8479c6f)" style="fill: #ff7f0e; fill-opacity: 0.5; stroke: #000000; stroke-width: 0.314434; stroke-linejoin: miter"/>
   </g>
   <g id="patch_54">
    <path d="M 49.584852 147.33063 
L 52.729189 147.33063 
L 52.729189 115.468561 
L 49.584852 115.468561 
z
" clip-path="url(#p93c8479c6f)" style="fill: #ff7f0e; fill-opacity: 0.5; stroke: #000000; stroke-width: 0.314434; stroke-linejoin: miter"/>
   </g>
   <g id="patch_55">
    <path d="M 52.729189 147.33063 
L 55.873526 147.33063 
L 55.873526 92.709941 
L 52.729189 92.709941 
z
" clip-path="url(#p93c8479c6f)" style="fill: #ff7f0e; fill-opacity: 0.5; stroke: #000000; stroke-width: 0.314434; stroke-linejoin: miter"/>
   </g>
   <g id="patch_56">
    <path d="M 55.873526 147.33063 
L 59.017863 147.33063 
L 59.017863 15.33063 
L 55.873526 15.33063 
z
" clip-path="url(#p93c8479c6f)" style="fill: #ff7f0e; fill-opacity: 0.5; stroke: #000000; stroke-width: 0.314434; stroke-linejoin: miter"/>
   </g>
   <g id="patch_57">
    <path d="M 59.017863 147.33063 
L 62.1622 147.33063 
L 62.1622 76.778906 
L 59.017863 76.778906 
z
" clip-path="url(#p93c8479c6f)" style="fill: #ff7f0e; fill-opacity: 0.5; stroke: #000000; stroke-width: 0.314434; stroke-linejoin: miter"/>
   </g>
   <g id="patch_58">
    <path d="M 62.1622 147.33063 
L 65.306537 147.33063 
L 65.306537 140.503044 
L 62.1622 140.503044 
z
" clip-path="url(#p93c8479c6f)" style="fill: #ff7f0e; fill-opacity: 0.5; stroke: #000000; stroke-width: 0.314434; stroke-linejoin: miter"/>
   </g>
   <g id="patch_59">
    <path d="M 65.306537 147.33063 
L 68.450874 147.33063 
L 68.450874 131.399596 
L 65.306537 131.399596 
z
" clip-path="url(#p93c8479c6f)" style="fill: #ff7f0e; fill-opacity: 0.5; stroke: #000000; stroke-width: 0.314434; stroke-linejoin: miter"/>
   </g>
   <g id="patch_60">
    <path d="M 68.450874 147.33063 
L 71.595211 147.33063 
L 71.595211 124.57201 
L 68.450874 124.57201 
z
" clip-path="url(#p93c8479c6f)" style="fill: #ff7f0e; fill-opacity: 0.5; stroke: #000000; stroke-width: 0.314434; stroke-linejoin: miter"/>
   </g>
   <g id="patch_61">
    <path d="M 71.595211 147.33063 
L 74.739548 147.33063 
L 74.739548 133.675458 
L 71.595211 133.675458 
z
" clip-path="url(#p93c8479c6f)" style="fill: #ff7f0e; fill-opacity: 0.5; stroke: #000000; stroke-width: 0.314434; stroke-linejoin: miter"/>
   </g>
   <g id="patch_62">
    <path d="M 74.739548 147.33063 
L 77.883885 147.33063 
L 77.883885 92.709941 
L 74.739548 92.709941 
z
" clip-path="url(#p93c8479c6f)" style="fill: #ff7f0e; fill-opacity: 0.5; stroke: #000000; stroke-width: 0.314434; stroke-linejoin: miter"/>
   </g>
   <g id="patch_63">
    <path d="M 77.883885 147.33063 
L 81.028223 147.33063 
L 81.028223 147.33063 
L 77.883885 147.33063 
z
" clip-path="url(#p93c8479c6f)" style="fill: #ff7f0e; fill-opacity: 0.5; stroke: #000000; stroke-width: 0.314434; stroke-linejoin: miter"/>
   </g>
   <g id="patch_64">
    <path d="M 81.028223 147.33063 
L 84.17256 147.33063 
L 84.17256 140.503044 
L 81.028223 140.503044 
z
" clip-path="url(#p93c8479c6f)" style="fill: #ff7f0e; fill-opacity: 0.5; stroke: #000000; stroke-width: 0.314434; stroke-linejoin: miter"/>
   </g>
   <g id="patch_65">
    <path d="M 84.17256 147.33063 
L 87.316897 147.33063 
L 87.316897 142.778906 
L 84.17256 142.778906 
z
" clip-path="url(#p93c8479c6f)" style="fill: #ff7f0e; fill-opacity: 0.5; stroke: #000000; stroke-width: 0.314434; stroke-linejoin: miter"/>
   </g>
   <g id="patch_66">
    <path d="M 87.316897 147.33063 
L 90.461234 147.33063 
L 90.461234 122.296148 
L 87.316897 122.296148 
z
" clip-path="url(#p93c8479c6f)" style="fill: #ff7f0e; fill-opacity: 0.5; stroke: #000000; stroke-width: 0.314434; stroke-linejoin: miter"/>
   </g>
   <g id="patch_67">
    <path d="M 90.461234 147.33063 
L 93.605571 147.33063 
L 93.605571 129.123734 
L 90.461234 129.123734 
z
" clip-path="url(#p93c8479c6f)" style="fill: #ff7f0e; fill-opacity: 0.5; stroke: #000000; stroke-width: 0.314434; stroke-linejoin: miter"/>
   </g>
   <g id="patch_68">
    <path d="M 93.605571 147.33063 
L 96.749908 147.33063 
L 96.749908 106.365113 
L 93.605571 106.365113 
z
" clip-path="url(#p93c8479c6f)" style="fill: #ff7f0e; fill-opacity: 0.5; stroke: #000000; stroke-width: 0.314434; stroke-linejoin: miter"/>
   </g>
   <g id="patch_69">
    <path d="M 96.749908 147.33063 
L 99.894245 147.33063 
L 99.894245 140.503044 
L 96.749908 140.503044 
z
" clip-path="url(#p93c8479c6f)" style="fill: #ff7f0e; fill-opacity: 0.5; stroke: #000000; stroke-width: 0.314434; stroke-linejoin: miter"/>
   </g>
   <g id="patch_70">
    <path d="M 99.894245 147.33063 
L 103.038582 147.33063 
L 103.038582 133.675458 
L 99.894245 133.675458 
z
" clip-path="url(#p93c8479c6f)" style="fill: #ff7f0e; fill-opacity: 0.5; stroke: #000000; stroke-width: 0.314434; stroke-linejoin: miter"/>
   </g>
   <g id="patch_71">
    <path d="M 103.038582 147.33063 
L 106.182919 147.33063 
L 106.182919 147.33063 
L 103.038582 147.33063 
z
" clip-path="url(#p93c8479c6f)" style="fill: #ff7f0e; fill-opacity: 0.5; stroke: #000000; stroke-width: 0.314434; stroke-linejoin: miter"/>
   </g>
   <g id="patch_72">
    <path d="M 106.182919 147.33063 
L 109.327256 147.33063 
L 109.327256 145.054768 
L 106.182919 145.054768 
z
" clip-path="url(#p93c8479c6f)" style="fill: #ff7f0e; fill-opacity: 0.5; stroke: #000000; stroke-width: 0.314434; stroke-linejoin: miter"/>
   </g>
   <g id="patch_73">
    <path d="M 109.327256 147.33063 
L 112.471593 147.33063 
L 112.471593 147.33063 
L 109.327256 147.33063 
z
" clip-path="url(#p93c8479c6f)" style="fill: #ff7f0e; fill-opacity: 0.5; stroke: #000000; stroke-width: 0.314434; stroke-linejoin: miter"/>
   </g>
   <g id="patch_74">
    <path d="M 112.471593 147.33063 
L 115.615931 147.33063 
L 115.615931 135.95132 
L 112.471593 135.95132 
z
" clip-path="url(#p93c8479c6f)" style="fill: #ff7f0e; fill-opacity: 0.5; stroke: #000000; stroke-width: 0.314434; stroke-linejoin: miter"/>
   </g>
   <g id="patch_75">
    <path d="M 115.615931 147.33063 
L 118.760268 147.33063 
L 118.760268 145.054768 
L 115.615931 145.054768 
z
" clip-path="url(#p93c8479c6f)" style="fill: #ff7f0e; fill-opacity: 0.5; stroke: #000000; stroke-width: 0.314434; stroke-linejoin: miter"/>
   </g>
   <g id="patch_76">
    <path d="M 118.760268 147.33063 
L 121.904605 147.33063 
L 121.904605 145.054768 
L 118.760268 145.054768 
z
" clip-path="url(#p93c8479c6f)" style="fill: #ff7f0e; fill-opacity: 0.5; stroke: #000000; stroke-width: 0.314434; stroke-linejoin: miter"/>
   </g>
   <g id="patch_77">
    <path d="M 121.904605 147.33063 
L 125.048942 147.33063 
L 125.048942 145.054768 
L 121.904605 145.054768 
z
" clip-path="url(#p93c8479c6f)" style="fill: #ff7f0e; fill-opacity: 0.5; stroke: #000000; stroke-width: 0.314434; stroke-linejoin: miter"/>
   </g>
   <g id="matplotlib.axis_1">
    <g id="xtick_1">
     <g id="line2d_1">
      <defs>
       <path id="mc8bb3f8ab2" d="M 0 0 
L 0 3.5 
" style="stroke: #000000; stroke-width: 0.8"/>
      </defs>
      <g>
       <use xlink:href="#mc8bb3f8ab2" x="46.041572" y="147.33063" style="stroke: #000000; stroke-width: 0.8"/>
      </g>
     </g>
     <g id="text_1">
      <!-- 0 -->
      <g transform="translate(43.261103 161.488443) scale(0.1 -0.1)">
       <defs>
        <path id="ArialMT-30" d="M 266 2259 
Q 266 3072 433 3567 
Q 600 4063 929 4331 
Q 1259 4600 1759 4600 
Q 2128 4600 2406 4451 
Q 2684 4303 2865 4023 
Q 3047 3744 3150 3342 
Q 3253 2941 3253 2259 
Q 3253 1453 3087 958 
Q 2922 463 2592 192 
Q 2263 -78 1759 -78 
Q 1097 -78 719 397 
Q 266 969 266 2259 
z
M 844 2259 
Q 844 1131 1108 757 
Q 1372 384 1759 384 
Q 2147 384 2411 759 
Q 2675 1134 2675 2259 
Q 2675 3391 2411 3762 
Q 2147 4134 1753 4134 
Q 1366 4134 1134 3806 
Q 844 3388 844 2259 
z
" transform="scale(0.015625)"/>
       </defs>
       <use xlink:href="#ArialMT-30"/>
      </g>
     </g>
    </g>
    <g id="xtick_2">
     <g id="line2d_2">
      <g>
       <use xlink:href="#mc8bb3f8ab2" x="108.367562" y="147.33063" style="stroke: #000000; stroke-width: 0.8"/>
      </g>
     </g>
     <g id="text_2">
      <!-- 5 -->
      <g transform="translate(105.587094 161.488443) scale(0.1 -0.1)">
       <defs>
        <path id="ArialMT-35" d="M 266 1200 
L 856 1250 
Q 922 819 1161 601 
Q 1400 384 1738 384 
Q 2144 384 2425 690 
Q 2706 997 2706 1503 
Q 2706 1984 2436 2262 
Q 2166 2541 1728 2541 
Q 1456 2541 1237 2417 
Q 1019 2294 894 2097 
L 366 2166 
L 809 4519 
L 3088 4519 
L 3088 3981 
L 1259 3981 
L 1013 2750 
Q 1425 3038 1878 3038 
Q 2478 3038 2890 2622 
Q 3303 2206 3303 1553 
Q 3303 931 2941 478 
Q 2500 -78 1738 -78 
Q 1113 -78 717 272 
Q 322 622 266 1200 
z
" transform="scale(0.015625)"/>
       </defs>
       <use xlink:href="#ArialMT-35"/>
      </g>
     </g>
    </g>
    <g id="xtick_3">
     <g id="line2d_3">
      <g>
       <use xlink:href="#mc8bb3f8ab2" x="170.693553" y="147.33063" style="stroke: #000000; stroke-width: 0.8"/>
      </g>
     </g>
     <g id="text_3">
      <!-- 10 -->
      <g transform="translate(165.132616 161.488443) scale(0.1 -0.1)">
       <defs>
        <path id="ArialMT-31" d="M 2384 0 
L 1822 0 
L 1822 3584 
Q 1619 3391 1289 3197 
Q 959 3003 697 2906 
L 697 3450 
Q 1169 3672 1522 3987 
Q 1875 4303 2022 4600 
L 2384 4600 
L 2384 0 
z
" transform="scale(0.015625)"/>
       </defs>
       <use xlink:href="#ArialMT-31"/>
       <use xlink:href="#ArialMT-30" x="55.615234"/>
      </g>
     </g>
    </g>
    <g id="text_4">
     <!-- log$_2$(fold change) -->
     <g transform="translate(80.853125 174.775943) scale(0.1 -0.1)">
      <defs>
       <path id="Arial-BoldMT-6c" d="M 459 0 
L 459 4581 
L 1338 4581 
L 1338 0 
L 459 0 
z
" transform="scale(0.015625)"/>
       <path id="Arial-BoldMT-6f" d="M 256 1706 
Q 256 2144 472 2553 
Q 688 2963 1083 3178 
Q 1478 3394 1966 3394 
Q 2719 3394 3200 2905 
Q 3681 2416 3681 1669 
Q 3681 916 3195 420 
Q 2709 -75 1972 -75 
Q 1516 -75 1102 131 
Q 688 338 472 736 
Q 256 1134 256 1706 
z
M 1156 1659 
Q 1156 1166 1390 903 
Q 1625 641 1969 641 
Q 2313 641 2545 903 
Q 2778 1166 2778 1666 
Q 2778 2153 2545 2415 
Q 2313 2678 1969 2678 
Q 1625 2678 1390 2415 
Q 1156 2153 1156 1659 
z
" transform="scale(0.015625)"/>
       <path id="Arial-BoldMT-67" d="M 378 -219 
L 1381 -341 
Q 1406 -516 1497 -581 
Q 1622 -675 1891 -675 
Q 2234 -675 2406 -572 
Q 2522 -503 2581 -350 
Q 2622 -241 2622 53 
L 2622 538 
Q 2228 0 1628 0 
Q 959 0 569 566 
Q 263 1013 263 1678 
Q 263 2513 664 2953 
Q 1066 3394 1663 3394 
Q 2278 3394 2678 2853 
L 2678 3319 
L 3500 3319 
L 3500 341 
Q 3500 -247 3403 -537 
Q 3306 -828 3131 -993 
Q 2956 -1159 2664 -1253 
Q 2372 -1347 1925 -1347 
Q 1081 -1347 728 -1058 
Q 375 -769 375 -325 
Q 375 -281 378 -219 
z
M 1163 1728 
Q 1163 1200 1367 954 
Q 1572 709 1872 709 
Q 2194 709 2416 961 
Q 2638 1213 2638 1706 
Q 2638 2222 2425 2472 
Q 2213 2722 1888 2722 
Q 1572 2722 1367 2476 
Q 1163 2231 1163 1728 
z
" transform="scale(0.015625)"/>
       <path id="DejaVuSans-32" d="M 1228 531 
L 3431 531 
L 3431 0 
L 469 0 
L 469 531 
Q 828 903 1448 1529 
Q 2069 2156 2228 2338 
Q 2531 2678 2651 2914 
Q 2772 3150 2772 3378 
Q 2772 3750 2511 3984 
Q 2250 4219 1831 4219 
Q 1534 4219 1204 4116 
Q 875 4013 500 3803 
L 500 4441 
Q 881 4594 1212 4672 
Q 1544 4750 1819 4750 
Q 2544 4750 2975 4387 
Q 3406 4025 3406 3419 
Q 3406 3131 3298 2873 
Q 3191 2616 2906 2266 
Q 2828 2175 2409 1742 
Q 1991 1309 1228 531 
z
" transform="scale(0.015625)"/>
       <path id="Arial-BoldMT-28" d="M 1916 -1347 
L 1313 -1347 
Q 834 -625 584 153 
Q 334 931 334 1659 
Q 334 2563 644 3369 
Q 913 4069 1325 4659 
L 1925 4659 
Q 1497 3713 1336 3048 
Q 1175 2384 1175 1641 
Q 1175 1128 1270 590 
Q 1366 53 1531 -431 
Q 1641 -750 1916 -1347 
z
" transform="scale(0.015625)"/>
       <path id="Arial-BoldMT-66" d="M 75 3319 
L 563 3319 
L 563 3569 
Q 563 3988 652 4194 
Q 741 4400 980 4529 
Q 1219 4659 1584 4659 
Q 1959 4659 2319 4547 
L 2200 3934 
Q 1991 3984 1797 3984 
Q 1606 3984 1523 3895 
Q 1441 3806 1441 3553 
L 1441 3319 
L 2097 3319 
L 2097 2628 
L 1441 2628 
L 1441 0 
L 563 0 
L 563 2628 
L 75 2628 
L 75 3319 
z
" transform="scale(0.015625)"/>
       <path id="Arial-BoldMT-64" d="M 3503 0 
L 2688 0 
L 2688 488 
Q 2484 203 2207 64 
Q 1931 -75 1650 -75 
Q 1078 -75 670 386 
Q 263 847 263 1672 
Q 263 2516 659 2955 
Q 1056 3394 1663 3394 
Q 2219 3394 2625 2931 
L 2625 4581 
L 3503 4581 
L 3503 0 
z
M 1159 1731 
Q 1159 1200 1306 963 
Q 1519 619 1900 619 
Q 2203 619 2415 876 
Q 2628 1134 2628 1647 
Q 2628 2219 2422 2470 
Q 2216 2722 1894 2722 
Q 1581 2722 1370 2473 
Q 1159 2225 1159 1731 
z
" transform="scale(0.015625)"/>
       <path id="Arial-BoldMT-20" transform="scale(0.015625)"/>
       <path id="Arial-BoldMT-63" d="M 3353 2338 
L 2488 2181 
Q 2444 2441 2289 2572 
Q 2134 2703 1888 2703 
Q 1559 2703 1364 2476 
Q 1169 2250 1169 1719 
Q 1169 1128 1367 884 
Q 1566 641 1900 641 
Q 2150 641 2309 783 
Q 2469 925 2534 1272 
L 3397 1125 
Q 3263 531 2881 228 
Q 2500 -75 1859 -75 
Q 1131 -75 698 384 
Q 266 844 266 1656 
Q 266 2478 700 2936 
Q 1134 3394 1875 3394 
Q 2481 3394 2839 3133 
Q 3197 2872 3353 2338 
z
" transform="scale(0.015625)"/>
       <path id="Arial-BoldMT-68" d="M 1334 4581 
L 1334 2897 
Q 1759 3394 2350 3394 
Q 2653 3394 2897 3281 
Q 3141 3169 3264 2994 
Q 3388 2819 3433 2606 
Q 3478 2394 3478 1947 
L 3478 0 
L 2600 0 
L 2600 1753 
Q 2600 2275 2550 2415 
Q 2500 2556 2373 2639 
Q 2247 2722 2056 2722 
Q 1838 2722 1666 2615 
Q 1494 2509 1414 2295 
Q 1334 2081 1334 1663 
L 1334 0 
L 456 0 
L 456 4581 
L 1334 4581 
z
" transform="scale(0.015625)"/>
       <path id="Arial-BoldMT-61" d="M 1116 2306 
L 319 2450 
Q 453 2931 781 3162 
Q 1109 3394 1756 3394 
Q 2344 3394 2631 3255 
Q 2919 3116 3036 2902 
Q 3153 2688 3153 2116 
L 3144 1091 
Q 3144 653 3186 445 
Q 3228 238 3344 0 
L 2475 0 
Q 2441 88 2391 259 
Q 2369 338 2359 363 
Q 2134 144 1878 34 
Q 1622 -75 1331 -75 
Q 819 -75 523 203 
Q 228 481 228 906 
Q 228 1188 362 1408 
Q 497 1628 739 1745 
Q 981 1863 1438 1950 
Q 2053 2066 2291 2166 
L 2291 2253 
Q 2291 2506 2166 2614 
Q 2041 2722 1694 2722 
Q 1459 2722 1328 2630 
Q 1197 2538 1116 2306 
z
M 2291 1594 
Q 2122 1538 1756 1459 
Q 1391 1381 1278 1306 
Q 1106 1184 1106 997 
Q 1106 813 1243 678 
Q 1381 544 1594 544 
Q 1831 544 2047 700 
Q 2206 819 2256 991 
Q 2291 1103 2291 1419 
L 2291 1594 
z
" transform="scale(0.015625)"/>
       <path id="Arial-BoldMT-6e" d="M 3478 0 
L 2600 0 
L 2600 1694 
Q 2600 2231 2544 2389 
Q 2488 2547 2361 2634 
Q 2234 2722 2056 2722 
Q 1828 2722 1647 2597 
Q 1466 2472 1398 2265 
Q 1331 2059 1331 1503 
L 1331 0 
L 453 0 
L 453 3319 
L 1269 3319 
L 1269 2831 
Q 1703 3394 2363 3394 
Q 2653 3394 2893 3289 
Q 3134 3184 3257 3021 
Q 3381 2859 3429 2653 
Q 3478 2447 3478 2063 
L 3478 0 
z
" transform="scale(0.015625)"/>
       <path id="Arial-BoldMT-65" d="M 2381 1056 
L 3256 909 
Q 3088 428 2723 176 
Q 2359 -75 1813 -75 
Q 947 -75 531 491 
Q 203 944 203 1634 
Q 203 2459 634 2926 
Q 1066 3394 1725 3394 
Q 2466 3394 2894 2905 
Q 3322 2416 3303 1406 
L 1103 1406 
Q 1113 1016 1316 798 
Q 1519 581 1822 581 
Q 2028 581 2168 693 
Q 2309 806 2381 1056 
z
M 2431 1944 
Q 2422 2325 2234 2523 
Q 2047 2722 1778 2722 
Q 1491 2722 1303 2513 
Q 1116 2303 1119 1944 
L 2431 1944 
z
" transform="scale(0.015625)"/>
       <path id="Arial-BoldMT-29" d="M 216 -1347 
Q 475 -791 581 -494 
Q 688 -197 778 190 
Q 869 578 912 926 
Q 956 1275 956 1641 
Q 956 2384 797 3048 
Q 638 3713 209 4659 
L 806 4659 
Q 1278 3988 1539 3234 
Q 1800 2481 1800 1706 
Q 1800 1053 1594 306 
Q 1359 -531 822 -1347 
L 216 -1347 
z
" transform="scale(0.015625)"/>
      </defs>
      <use xlink:href="#Arial-BoldMT-6c" transform="translate(0 0.203125)"/>
      <use xlink:href="#Arial-BoldMT-6f" transform="translate(27.783203 0.203125)"/>
      <use xlink:href="#Arial-BoldMT-67" transform="translate(88.867188 0.203125)"/>
      <use xlink:href="#DejaVuSans-32" transform="translate(150.908203 -16.203125) scale(0.7)"/>
      <use xlink:href="#Arial-BoldMT-28" transform="translate(198.178711 0.203125)"/>
      <use xlink:href="#Arial-BoldMT-66" transform="translate(231.479492 0.203125)"/>
      <use xlink:href="#Arial-BoldMT-6f" transform="translate(264.780273 0.203125)"/>
      <use xlink:href="#Arial-BoldMT-6c" transform="translate(325.864258 0.203125)"/>
      <use xlink:href="#Arial-BoldMT-64" transform="translate(353.647461 0.203125)"/>
      <use xlink:href="#Arial-BoldMT-20" transform="translate(414.731445 0.203125)"/>
      <use xlink:href="#Arial-BoldMT-63" transform="translate(442.514648 0.203125)"/>
      <use xlink:href="#Arial-BoldMT-68" transform="translate(498.129883 0.203125)"/>
      <use xlink:href="#Arial-BoldMT-61" transform="translate(559.213867 0.203125)"/>
      <use xlink:href="#Arial-BoldMT-6e" transform="translate(614.829102 0.203125)"/>
      <use xlink:href="#Arial-BoldMT-67" transform="translate(675.913086 0.203125)"/>
      <use xlink:href="#Arial-BoldMT-65" transform="translate(736.99707 0.203125)"/>
      <use xlink:href="#Arial-BoldMT-29" transform="translate(792.612305 0.203125)"/>
     </g>
    </g>
   </g>
   <g id="matplotlib.axis_2">
    <g id="ytick_1">
     <g id="line2d_4">
      <defs>
       <path id="m19b107b283" d="M 0 0 
L -3.5 0 
" style="stroke: #000000; stroke-width: 0.8"/>
      </defs>
      <g>
       <use xlink:href="#m19b107b283" x="38.453125" y="147.33063" style="stroke: #000000; stroke-width: 0.8"/>
      </g>
     </g>
     <g id="text_5">
      <!-- 0 -->
      <g transform="translate(25.892187 150.909537) scale(0.1 -0.1)">
       <use xlink:href="#ArialMT-30"/>
      </g>
     </g>
    </g>
    <g id="ytick_2">
     <g id="line2d_5">
      <g>
       <use xlink:href="#m19b107b283" x="38.453125" y="101.813389" style="stroke: #000000; stroke-width: 0.8"/>
      </g>
     </g>
     <g id="text_6">
      <!-- 20 -->
      <g transform="translate(20.33125 105.392295) scale(0.1 -0.1)">
       <defs>
        <path id="ArialMT-32" d="M 3222 541 
L 3222 0 
L 194 0 
Q 188 203 259 391 
Q 375 700 629 1000 
Q 884 1300 1366 1694 
Q 2113 2306 2375 2664 
Q 2638 3022 2638 3341 
Q 2638 3675 2398 3904 
Q 2159 4134 1775 4134 
Q 1369 4134 1125 3890 
Q 881 3647 878 3216 
L 300 3275 
Q 359 3922 746 4261 
Q 1134 4600 1788 4600 
Q 2447 4600 2831 4234 
Q 3216 3869 3216 3328 
Q 3216 3053 3103 2787 
Q 2991 2522 2730 2228 
Q 2469 1934 1863 1422 
Q 1356 997 1212 845 
Q 1069 694 975 541 
L 3222 541 
z
" transform="scale(0.015625)"/>
       </defs>
       <use xlink:href="#ArialMT-32"/>
       <use xlink:href="#ArialMT-30" x="55.615234"/>
      </g>
     </g>
    </g>
    <g id="ytick_3">
     <g id="line2d_6">
      <g>
       <use xlink:href="#m19b107b283" x="38.453125" y="56.296148" style="stroke: #000000; stroke-width: 0.8"/>
      </g>
     </g>
     <g id="text_7">
      <!-- 40 -->
      <g transform="translate(20.33125 59.875054) scale(0.1 -0.1)">
       <defs>
        <path id="ArialMT-34" d="M 2069 0 
L 2069 1097 
L 81 1097 
L 81 1613 
L 2172 4581 
L 2631 4581 
L 2631 1613 
L 3250 1613 
L 3250 1097 
L 2631 1097 
L 2631 0 
L 2069 0 
z
M 2069 1613 
L 2069 3678 
L 634 1613 
L 2069 1613 
z
" transform="scale(0.015625)"/>
       </defs>
       <use xlink:href="#ArialMT-34"/>
       <use xlink:href="#ArialMT-30" x="55.615234"/>
      </g>
     </g>
    </g>
    <g id="ytick_4">
     <g id="line2d_7">
      <g>
       <use xlink:href="#m19b107b283" x="38.453125" y="10.778906" style="stroke: #000000; stroke-width: 0.8"/>
      </g>
     </g>
     <g id="text_8">
      <!-- 60 -->
      <g transform="translate(20.33125 14.357812) scale(0.1 -0.1)">
       <defs>
        <path id="ArialMT-36" d="M 3184 3459 
L 2625 3416 
Q 2550 3747 2413 3897 
Q 2184 4138 1850 4138 
Q 1581 4138 1378 3988 
Q 1113 3794 959 3422 
Q 806 3050 800 2363 
Q 1003 2672 1297 2822 
Q 1591 2972 1913 2972 
Q 2475 2972 2870 2558 
Q 3266 2144 3266 1488 
Q 3266 1056 3080 686 
Q 2894 316 2569 119 
Q 2244 -78 1831 -78 
Q 1128 -78 684 439 
Q 241 956 241 2144 
Q 241 3472 731 4075 
Q 1159 4600 1884 4600 
Q 2425 4600 2770 4297 
Q 3116 3994 3184 3459 
z
M 888 1484 
Q 888 1194 1011 928 
Q 1134 663 1356 523 
Q 1578 384 1822 384 
Q 2178 384 2434 671 
Q 2691 959 2691 1453 
Q 2691 1928 2437 2201 
Q 2184 2475 1800 2475 
Q 1419 2475 1153 2201 
Q 888 1928 888 1484 
z
" transform="scale(0.015625)"/>
       </defs>
       <use xlink:href="#ArialMT-36"/>
       <use xlink:href="#ArialMT-30" x="55.615234"/>
      </g>
     </g>
    </g>
    <g id="text_9">
     <!-- Count -->
     <g transform="translate(14.357812 92.46813) rotate(-90) scale(0.1 -0.1)">
      <defs>
       <path id="Arial-BoldMT-43" d="M 3397 1684 
L 4294 1400 
Q 4088 650 3608 286 
Q 3128 -78 2391 -78 
Q 1478 -78 890 545 
Q 303 1169 303 2250 
Q 303 3394 893 4026 
Q 1484 4659 2447 4659 
Q 3288 4659 3813 4163 
Q 4125 3869 4281 3319 
L 3366 3100 
Q 3284 3456 3026 3662 
Q 2769 3869 2400 3869 
Q 1891 3869 1573 3503 
Q 1256 3138 1256 2319 
Q 1256 1450 1568 1081 
Q 1881 713 2381 713 
Q 2750 713 3015 947 
Q 3281 1181 3397 1684 
z
" transform="scale(0.015625)"/>
       <path id="Arial-BoldMT-75" d="M 2644 0 
L 2644 497 
Q 2463 231 2167 78 
Q 1872 -75 1544 -75 
Q 1209 -75 943 72 
Q 678 219 559 484 
Q 441 750 441 1219 
L 441 3319 
L 1319 3319 
L 1319 1794 
Q 1319 1094 1367 936 
Q 1416 778 1544 686 
Q 1672 594 1869 594 
Q 2094 594 2272 717 
Q 2450 841 2515 1023 
Q 2581 1206 2581 1919 
L 2581 3319 
L 3459 3319 
L 3459 0 
L 2644 0 
z
" transform="scale(0.015625)"/>
       <path id="Arial-BoldMT-74" d="M 1981 3319 
L 1981 2619 
L 1381 2619 
L 1381 1281 
Q 1381 875 1398 808 
Q 1416 741 1477 697 
Q 1538 653 1625 653 
Q 1747 653 1978 738 
L 2053 56 
Q 1747 -75 1359 -75 
Q 1122 -75 931 4 
Q 741 84 652 211 
Q 563 338 528 553 
Q 500 706 500 1172 
L 500 2619 
L 97 2619 
L 97 3319 
L 500 3319 
L 500 3978 
L 1381 4491 
L 1381 3319 
L 1981 3319 
z
" transform="scale(0.015625)"/>
      </defs>
      <use xlink:href="#Arial-BoldMT-43"/>
      <use xlink:href="#Arial-BoldMT-6f" x="72.216797"/>
      <use xlink:href="#Arial-BoldMT-75" x="133.300781"/>
      <use xlink:href="#Arial-BoldMT-6e" x="194.384766"/>
      <use xlink:href="#Arial-BoldMT-74" x="255.46875"/>
     </g>
    </g>
   </g>
   <g id="line2d_8">
    <path d="M 46.062216 111.907189 
L 47.591681 107.761759 
L 49.121147 104.180889 
L 50.650612 101.348465 
L 51.415345 100.257483 
L 52.180078 99.399952 
L 52.944811 98.783474 
L 53.709543 98.411635 
L 54.474276 98.284029 
L 55.239009 98.396365 
L 56.003742 98.740674 
L 56.768474 99.305572 
L 57.533207 100.076603 
L 59.062673 102.166252 
L 60.592138 104.848262 
L 62.886337 109.581427 
L 67.474733 119.397917 
L 69.004199 122.246704 
L 70.533664 124.732579 
L 72.06313 126.818487 
L 73.592595 128.499083 
L 75.122061 129.794698 
L 76.651526 130.744501 
L 78.180992 131.399965 
L 79.710457 131.819374 
L 82.004655 132.139041 
L 89.651983 132.744886 
L 91.946181 133.266088 
L 95.005112 134.245891 
L 99.593509 135.802138 
L 101.887707 136.352559 
L 104.181905 136.66623 
L 107.240836 136.782424 
L 111.829233 136.857999 
L 114.123431 137.120128 
L 116.417629 137.627532 
L 118.711828 138.377878 
L 121.770759 139.666707 
L 132.477017 144.535255 
L 135.535948 145.551767 
L 138.594879 146.300606 
L 141.65381 146.793983 
L 145.477474 147.128632 
L 150.065871 147.282137 
L 160.772129 147.330064 
L 182.184646 147.234567 
L 189.831974 146.932662 
L 197.479301 146.652469 
L 198.244034 146.64945 
L 198.244034 146.64945 
" clip-path="url(#p93c8479c6f)" style="fill: none; stroke: #1f77b4; stroke-width: 1.5; stroke-linecap: square"/>
   </g>
   <g id="line2d_9">
    <path d="M 46.440515 115.861094 
L 50.390687 99.889471 
L 51.970756 94.435957 
L 53.155807 91.052662 
L 53.945842 89.234501 
L 54.735876 87.828947 
L 55.525911 86.885307 
L 56.315945 86.444533 
L 56.710962 86.422172 
L 57.10598 86.534921 
L 57.500997 86.78368 
L 58.291031 87.686533 
L 59.081066 89.111937 
L 59.8711 91.01932 
L 61.056152 94.644597 
L 62.636221 100.451871 
L 65.796358 112.426212 
L 66.98141 116.149763 
L 68.166462 119.18549 
L 69.351513 121.502734 
L 70.536565 123.16263 
L 71.721617 124.294517 
L 72.906668 125.065306 
L 75.276772 126.188705 
L 77.251858 127.255307 
L 79.621961 128.88009 
L 81.597047 130.199588 
L 82.782099 130.791399 
L 83.967151 131.145752 
L 85.152202 131.230761 
L 86.337254 131.056337 
L 87.917323 130.510925 
L 91.472478 129.040638 
L 92.65753 128.837132 
L 93.842581 128.91311 
L 95.027633 129.309424 
L 96.212685 130.03211 
L 97.397736 131.052692 
L 98.977805 132.773089 
L 104.508046 139.309991 
L 106.088115 140.654532 
L 107.668184 141.65044 
L 109.248253 142.342315 
L 111.223339 142.911121 
L 125.048942 145.987887 
L 125.048942 145.987887 
" clip-path="url(#p93c8479c6f)" style="fill: none; stroke: #ff7f0e; stroke-width: 1.5; stroke-linecap: square"/>
   </g>
   <g id="patch_78">
    <path d="M 38.453125 147.33063 
L 38.453125 8.73063 
" style="fill: none; stroke: #000000; stroke-linejoin: miter; stroke-linecap: square"/>
   </g>
   <g id="patch_79">
    <path d="M 205.853125 147.33063 
L 205.853125 8.73063 
" style="fill: none; stroke: #000000; stroke-linejoin: miter; stroke-linecap: square"/>
   </g>
   <g id="patch_80">
    <path d="M 38.453125 147.33063 
L 205.853125 147.33063 
" style="fill: none; stroke: #000000; stroke-linejoin: miter; stroke-linecap: square"/>
   </g>
   <g id="patch_81">
    <path d="M 38.453125 8.73063 
L 205.853125 8.73063 
" style="fill: none; stroke: #000000; stroke-linejoin: miter; stroke-linecap: square"/>
   </g>
   <g id="legend_1">
    <g id="patch_82">
     <path d="M 104.623906 26.504224 
L 126.623906 26.504224 
L 126.623906 18.804224 
L 104.623906 18.804224 
z
" style="fill: #1f77b4; fill-opacity: 0.5; stroke: #000000; stroke-width: 0.304364; stroke-linejoin: miter"/>
    </g>
    <g id="text_10">
     <!-- Flux level -->
     <g transform="translate(135.423906 26.504224) scale(0.11 -0.11)">
      <defs>
       <path id="ArialMT-46" d="M 525 0 
L 525 4581 
L 3616 4581 
L 3616 4041 
L 1131 4041 
L 1131 2622 
L 3281 2622 
L 3281 2081 
L 1131 2081 
L 1131 0 
L 525 0 
z
" transform="scale(0.015625)"/>
       <path id="ArialMT-6c" d="M 409 0 
L 409 4581 
L 972 4581 
L 972 0 
L 409 0 
z
" transform="scale(0.015625)"/>
       <path id="ArialMT-75" d="M 2597 0 
L 2597 488 
Q 2209 -75 1544 -75 
Q 1250 -75 995 37 
Q 741 150 617 320 
Q 494 491 444 738 
Q 409 903 409 1263 
L 409 3319 
L 972 3319 
L 972 1478 
Q 972 1038 1006 884 
Q 1059 663 1231 536 
Q 1403 409 1656 409 
Q 1909 409 2131 539 
Q 2353 669 2445 892 
Q 2538 1116 2538 1541 
L 2538 3319 
L 3100 3319 
L 3100 0 
L 2597 0 
z
" transform="scale(0.015625)"/>
       <path id="ArialMT-78" d="M 47 0 
L 1259 1725 
L 138 3319 
L 841 3319 
L 1350 2541 
Q 1494 2319 1581 2169 
Q 1719 2375 1834 2534 
L 2394 3319 
L 3066 3319 
L 1919 1756 
L 3153 0 
L 2463 0 
L 1781 1031 
L 1600 1309 
L 728 0 
L 47 0 
z
" transform="scale(0.015625)"/>
       <path id="ArialMT-20" transform="scale(0.015625)"/>
       <path id="ArialMT-65" d="M 2694 1069 
L 3275 997 
Q 3138 488 2766 206 
Q 2394 -75 1816 -75 
Q 1088 -75 661 373 
Q 234 822 234 1631 
Q 234 2469 665 2931 
Q 1097 3394 1784 3394 
Q 2450 3394 2872 2941 
Q 3294 2488 3294 1666 
Q 3294 1616 3291 1516 
L 816 1516 
Q 847 969 1125 678 
Q 1403 388 1819 388 
Q 2128 388 2347 550 
Q 2566 713 2694 1069 
z
M 847 1978 
L 2700 1978 
Q 2663 2397 2488 2606 
Q 2219 2931 1791 2931 
Q 1403 2931 1139 2672 
Q 875 2413 847 1978 
z
" transform="scale(0.015625)"/>
       <path id="ArialMT-76" d="M 1344 0 
L 81 3319 
L 675 3319 
L 1388 1331 
Q 1503 1009 1600 663 
Q 1675 925 1809 1294 
L 2547 3319 
L 3125 3319 
L 1869 0 
L 1344 0 
z
" transform="scale(0.015625)"/>
      </defs>
      <use xlink:href="#ArialMT-46"/>
      <use xlink:href="#ArialMT-6c" x="61.083984"/>
      <use xlink:href="#ArialMT-75" x="83.300781"/>
      <use xlink:href="#ArialMT-78" x="138.916016"/>
      <use xlink:href="#ArialMT-20" x="188.916016"/>
      <use xlink:href="#ArialMT-6c" x="216.699219"/>
      <use xlink:href="#ArialMT-65" x="238.916016"/>
      <use xlink:href="#ArialMT-76" x="294.53125"/>
      <use xlink:href="#ArialMT-65" x="344.53125"/>
      <use xlink:href="#ArialMT-6c" x="400.146484"/>
     </g>
    </g>
    <g id="patch_83">
     <path d="M 104.623906 42.064068 
L 126.623906 42.064068 
L 126.623906 34.364068 
L 104.623906 34.364068 
z
" style="fill: #ff7f0e; fill-opacity: 0.5; stroke: #000000; stroke-width: 0.314434; stroke-linejoin: miter"/>
    </g>
    <g id="text_11">
     <!-- Protein level -->
     <g transform="translate(135.423906 42.064068) scale(0.11 -0.11)">
      <defs>
       <path id="ArialMT-50" d="M 494 0 
L 494 4581 
L 2222 4581 
Q 2678 4581 2919 4538 
Q 3256 4481 3484 4323 
Q 3713 4166 3852 3881 
Q 3991 3597 3991 3256 
Q 3991 2672 3619 2267 
Q 3247 1863 2275 1863 
L 1100 1863 
L 1100 0 
L 494 0 
z
M 1100 2403 
L 2284 2403 
Q 2872 2403 3119 2622 
Q 3366 2841 3366 3238 
Q 3366 3525 3220 3729 
Q 3075 3934 2838 4000 
Q 2684 4041 2272 4041 
L 1100 4041 
L 1100 2403 
z
" transform="scale(0.015625)"/>
       <path id="ArialMT-72" d="M 416 0 
L 416 3319 
L 922 3319 
L 922 2816 
Q 1116 3169 1280 3281 
Q 1444 3394 1641 3394 
Q 1925 3394 2219 3213 
L 2025 2691 
Q 1819 2813 1613 2813 
Q 1428 2813 1281 2702 
Q 1134 2591 1072 2394 
Q 978 2094 978 1738 
L 978 0 
L 416 0 
z
" transform="scale(0.015625)"/>
       <path id="ArialMT-6f" d="M 213 1659 
Q 213 2581 725 3025 
Q 1153 3394 1769 3394 
Q 2453 3394 2887 2945 
Q 3322 2497 3322 1706 
Q 3322 1066 3130 698 
Q 2938 331 2570 128 
Q 2203 -75 1769 -75 
Q 1072 -75 642 372 
Q 213 819 213 1659 
z
M 791 1659 
Q 791 1022 1069 705 
Q 1347 388 1769 388 
Q 2188 388 2466 706 
Q 2744 1025 2744 1678 
Q 2744 2294 2464 2611 
Q 2184 2928 1769 2928 
Q 1347 2928 1069 2612 
Q 791 2297 791 1659 
z
" transform="scale(0.015625)"/>
       <path id="ArialMT-74" d="M 1650 503 
L 1731 6 
Q 1494 -44 1306 -44 
Q 1000 -44 831 53 
Q 663 150 594 308 
Q 525 466 525 972 
L 525 2881 
L 113 2881 
L 113 3319 
L 525 3319 
L 525 4141 
L 1084 4478 
L 1084 3319 
L 1650 3319 
L 1650 2881 
L 1084 2881 
L 1084 941 
Q 1084 700 1114 631 
Q 1144 563 1211 522 
Q 1278 481 1403 481 
Q 1497 481 1650 503 
z
" transform="scale(0.015625)"/>
       <path id="ArialMT-69" d="M 425 3934 
L 425 4581 
L 988 4581 
L 988 3934 
L 425 3934 
z
M 425 0 
L 425 3319 
L 988 3319 
L 988 0 
L 425 0 
z
" transform="scale(0.015625)"/>
       <path id="ArialMT-6e" d="M 422 0 
L 422 3319 
L 928 3319 
L 928 2847 
Q 1294 3394 1984 3394 
Q 2284 3394 2536 3286 
Q 2788 3178 2913 3003 
Q 3038 2828 3088 2588 
Q 3119 2431 3119 2041 
L 3119 0 
L 2556 0 
L 2556 2019 
Q 2556 2363 2490 2533 
Q 2425 2703 2258 2804 
Q 2091 2906 1866 2906 
Q 1506 2906 1245 2678 
Q 984 2450 984 1813 
L 984 0 
L 422 0 
z
" transform="scale(0.015625)"/>
      </defs>
      <use xlink:href="#ArialMT-50"/>
      <use xlink:href="#ArialMT-72" x="66.699219"/>
      <use xlink:href="#ArialMT-6f" x="100"/>
      <use xlink:href="#ArialMT-74" x="155.615234"/>
      <use xlink:href="#ArialMT-65" x="183.398438"/>
      <use xlink:href="#ArialMT-69" x="239.013672"/>
      <use xlink:href="#ArialMT-6e" x="261.230469"/>
      <use xlink:href="#ArialMT-20" x="316.845703"/>
      <use xlink:href="#ArialMT-6c" x="344.628906"/>
      <use xlink:href="#ArialMT-65" x="366.845703"/>
      <use xlink:href="#ArialMT-76" x="422.460938"/>
      <use xlink:href="#ArialMT-65" x="472.460938"/>
      <use xlink:href="#ArialMT-6c" x="528.076172"/>
     </g>
    </g>
   </g>
  </g>
 </g>
 <defs>
  <clipPath id="p93c8479c6f">
   <rect x="38.453125" y="8.73063" width="167.4" height="138.6"/>
  </clipPath>
 </defs>
</svg>
