<?xml version="1.0" encoding="utf-8" standalone="no"?>
<!DOCTYPE svg PUBLIC "-//W3C//DTD SVG 1.1//EN"
  "http://www.w3.org/Graphics/SVG/1.1/DTD/svg11.dtd">
<svg xmlns:xlink="http://www.w3.org/1999/xlink" width="254.296781pt" height="279.098125pt" viewBox="0 0 254.296781 279.098125" xmlns="http://www.w3.org/2000/svg" version="1.1">
 <metadata>
  <rdf:RDF xmlns:dc="http://purl.org/dc/elements/1.1/" xmlns:cc="http://creativecommons.org/ns#" xmlns:rdf="http://www.w3.org/1999/02/22-rdf-syntax-ns#">
   <cc:Work>
    <dc:type rdf:resource="http://purl.org/dc/dcmitype/StillImage"/>
    <dc:date>2025-11-01T10:04:28.995546</dc:date>
    <dc:format>image/svg+xml</dc:format>
    <dc:creator>
     <cc:Agent>
      <dc:title>Matplotlib v3.9.2, https://matplotlib.org/</dc:title>
     </cc:Agent>
    </dc:creator>
   </cc:Work>
  </rdf:RDF>
 </metadata>
 <defs>
  <style type="text/css">*{stroke-linejoin: round; stroke-linecap: butt}</style>
 </defs>
 <g id="figure_1">
  <g id="patch_1">
   <path d="M 0 279.098125 
L 254.296781 279.098125 
L 254.296781 0 
L 0 0 
L 0 279.098125 
z
" style="fill: none"/>
  </g>
  <g id="axes_1">
   <g id="patch_2">
    <path d="M 40.979063 50.213793 
L 152.579062 50.213793 
L 152.579062 7.2 
L 40.979063 7.2 
L 40.979063 50.213793 
z
" style="fill: none"/>
   </g>
   <g id="patch_3">
    <path d="M 46.559063 50.213793 
L 57.719062 50.213793 
L 57.719062 21.194664 
L 46.559063 21.194664 
z
" clip-path="url(#p3f7ed518b7)" style="fill: #93bbd2"/>
   </g>
   <g id="patch_4">
    <path d="M 102.359062 50.213793 
L 113.519062 50.213793 
L 113.519062 24.281805 
L 102.359062 24.281805 
z
" clip-path="url(#p3f7ed518b7)" style="fill: #93bbd2"/>
   </g>
   <g id="patch_5">
    <path d="M 57.719063 50.213793 
L 68.879063 50.213793 
L 68.879063 28.292063 
L 57.719063 28.292063 
z
" clip-path="url(#p3f7ed518b7)" style="fill: #629abe"/>
   </g>
   <g id="patch_6">
    <path d="M 113.519063 50.213793 
L 124.679063 50.213793 
L 124.679063 27.958572 
L 113.519063 27.958572 
z
" clip-path="url(#p3f7ed518b7)" style="fill: #629abe"/>
   </g>
   <g id="patch_7">
    <path d="M 68.879063 50.213793 
L 80.039062 50.213793 
L 80.039062 37.118782 
L 68.879063 37.118782 
z
" clip-path="url(#p3f7ed518b7)" style="fill: #3c78a8"/>
   </g>
   <g id="patch_8">
    <path d="M 124.679063 50.213793 
L 135.839063 50.213793 
L 135.839063 40.870703 
L 124.679063 40.870703 
z
" clip-path="url(#p3f7ed518b7)" style="fill: #3c78a8"/>
   </g>
   <g id="patch_9">
    <path d="M 80.039062 50.213793 
L 91.199062 50.213793 
L 91.199062 38.840034 
L 80.039062 38.840034 
z
" clip-path="url(#p3f7ed518b7)" style="fill: #1e558d"/>
   </g>
   <g id="patch_10">
    <path d="M 135.839063 50.213793 
L 146.999063 50.213793 
L 146.999063 40.364815 
L 135.839063 40.364815 
z
" clip-path="url(#p3f7ed518b7)" style="fill: #1e558d"/>
   </g>
   <g id="patch_11">
    <path d="M 68.879063 50.213793 
L 68.879063 50.213793 
L 68.879063 50.213793 
L 68.879063 50.213793 
z
" clip-path="url(#p3f7ed518b7)" style="fill: #93bbd2"/>
   </g>
   <g id="patch_12">
    <path d="M 68.879063 50.213793 
L 68.879063 50.213793 
L 68.879063 50.213793 
L 68.879063 50.213793 
z
" clip-path="url(#p3f7ed518b7)" style="fill: #629abe"/>
   </g>
   <g id="patch_13">
    <path d="M 68.879063 50.213793 
L 68.879063 50.213793 
L 68.879063 50.213793 
L 68.879063 50.213793 
z
" clip-path="url(#p3f7ed518b7)" style="fill: #3c78a8"/>
   </g>
   <g id="patch_14">
    <path d="M 68.879063 50.213793 
L 68.879063 50.213793 
L 68.879063 50.213793 
L 68.879063 50.213793 
z
" clip-path="url(#p3f7ed518b7)" style="fill: #1e558d"/>
   </g>
   <g id="matplotlib.axis_1">
    <g id="xtick_1">
     <g id="line2d_1">
      <defs>
       <path id="m5172b378ab" d="M 0 0 
L 0 3.5 
" style="stroke: #000000; stroke-width: 0.8"/>
      </defs>
      <g>
       <use xlink:href="#m5172b378ab" x="68.879063" y="50.213793" style="stroke: #000000; stroke-width: 0.8"/>
      </g>
     </g>
    </g>
    <g id="xtick_2">
     <g id="line2d_2">
      <g>
       <use xlink:href="#m5172b378ab" x="124.679063" y="50.213793" style="stroke: #000000; stroke-width: 0.8"/>
      </g>
     </g>
    </g>
   </g>
   <g id="matplotlib.axis_2">
    <g id="ytick_1">
     <g id="line2d_3">
      <defs>
       <path id="mcddc8a17c3" d="M 0 0 
L -3.5 0 
" style="stroke: #000000; stroke-width: 0.8"/>
      </defs>
      <g>
       <use xlink:href="#mcddc8a17c3" x="40.979063" y="50.213793" style="stroke: #000000; stroke-width: 0.8"/>
      </g>
     </g>
     <g id="text_1">
      <!-- 0.0 -->
      <g transform="translate(20.079063 53.792699) scale(0.1 -0.1)">
       <defs>
        <path id="ArialMT-30" d="M 266 2259 
Q 266 3072 433 3567 
Q 600 4063 929 4331 
Q 1259 4600 1759 4600 
Q 2128 4600 2406 4451 
Q 2684 4303 2865 4023 
Q 3047 3744 3150 3342 
Q 3253 2941 3253 2259 
Q 3253 1453 3087 958 
Q 2922 463 2592 192 
Q 2263 -78 1759 -78 
Q 1097 -78 719 397 
Q 266 969 266 2259 
z
M 844 2259 
Q 844 1131 1108 757 
Q 1372 384 1759 384 
Q 2147 384 2411 759 
Q 2675 1134 2675 2259 
Q 2675 3391 2411 3762 
Q 2147 4134 1753 4134 
Q 1366 4134 1134 3806 
Q 844 3388 844 2259 
z
" transform="scale(0.015625)"/>
        <path id="ArialMT-2e" d="M 581 0 
L 581 641 
L 1222 641 
L 1222 0 
L 581 0 
z
" transform="scale(0.015625)"/>
       </defs>
       <use xlink:href="#ArialMT-30"/>
       <use xlink:href="#ArialMT-2e" x="55.615234"/>
       <use xlink:href="#ArialMT-30" x="83.398438"/>
      </g>
     </g>
    </g>
    <g id="ytick_2">
     <g id="line2d_4">
      <g>
       <use xlink:href="#mcddc8a17c3" x="40.979063" y="13.290158" style="stroke: #000000; stroke-width: 0.8"/>
      </g>
     </g>
     <g id="text_2">
      <!-- 0.5 -->
      <g transform="translate(20.079063 16.869064) scale(0.1 -0.1)">
       <defs>
        <path id="ArialMT-35" d="M 266 1200 
L 856 1250 
Q 922 819 1161 601 
Q 1400 384 1738 384 
Q 2144 384 2425 690 
Q 2706 997 2706 1503 
Q 2706 1984 2436 2262 
Q 2166 2541 1728 2541 
Q 1456 2541 1237 2417 
Q 1019 2294 894 2097 
L 366 2166 
L 809 4519 
L 3088 4519 
L 3088 3981 
L 1259 3981 
L 1013 2750 
Q 1425 3038 1878 3038 
Q 2478 3038 2890 2622 
Q 3303 2206 3303 1553 
Q 3303 931 2941 478 
Q 2500 -78 1738 -78 
Q 1113 -78 717 272 
Q 322 622 266 1200 
z
" transform="scale(0.015625)"/>
       </defs>
       <use xlink:href="#ArialMT-30"/>
       <use xlink:href="#ArialMT-2e" x="55.615234"/>
       <use xlink:href="#ArialMT-35" x="83.398438"/>
      </g>
     </g>
    </g>
    <g id="text_3">
     <!-- Recall -->
     <g transform="translate(14.302969 41.964318) rotate(-90) scale(0.09 -0.09)">
      <defs>
       <path id="Arial-BoldMT-52" d="M 469 0 
L 469 4581 
L 2416 4581 
Q 3150 4581 3483 4457 
Q 3816 4334 4016 4018 
Q 4216 3703 4216 3297 
Q 4216 2781 3912 2445 
Q 3609 2109 3006 2022 
Q 3306 1847 3501 1637 
Q 3697 1428 4028 894 
L 4588 0 
L 3481 0 
L 2813 997 
Q 2456 1531 2325 1670 
Q 2194 1809 2047 1861 
Q 1900 1913 1581 1913 
L 1394 1913 
L 1394 0 
L 469 0 
z
M 1394 2644 
L 2078 2644 
Q 2744 2644 2909 2700 
Q 3075 2756 3169 2893 
Q 3263 3031 3263 3238 
Q 3263 3469 3139 3611 
Q 3016 3753 2791 3791 
Q 2678 3806 2116 3806 
L 1394 3806 
L 1394 2644 
z
" transform="scale(0.015625)"/>
       <path id="Arial-BoldMT-65" d="M 2381 1056 
L 3256 909 
Q 3088 428 2723 176 
Q 2359 -75 1813 -75 
Q 947 -75 531 491 
Q 203 944 203 1634 
Q 203 2459 634 2926 
Q 1066 3394 1725 3394 
Q 2466 3394 2894 2905 
Q 3322 2416 3303 1406 
L 1103 1406 
Q 1113 1016 1316 798 
Q 1519 581 1822 581 
Q 2028 581 2168 693 
Q 2309 806 2381 1056 
z
M 2431 1944 
Q 2422 2325 2234 2523 
Q 2047 2722 1778 2722 
Q 1491 2722 1303 2513 
Q 1116 2303 1119 1944 
L 2431 1944 
z
" transform="scale(0.015625)"/>
       <path id="Arial-BoldMT-63" d="M 3353 2338 
L 2488 2181 
Q 2444 2441 2289 2572 
Q 2134 2703 1888 2703 
Q 1559 2703 1364 2476 
Q 1169 2250 1169 1719 
Q 1169 1128 1367 884 
Q 1566 641 1900 641 
Q 2150 641 2309 783 
Q 2469 925 2534 1272 
L 3397 1125 
Q 3263 531 2881 228 
Q 2500 -75 1859 -75 
Q 1131 -75 698 384 
Q 266 844 266 1656 
Q 266 2478 700 2936 
Q 1134 3394 1875 3394 
Q 2481 3394 2839 3133 
Q 3197 2872 3353 2338 
z
" transform="scale(0.015625)"/>
       <path id="Arial-BoldMT-61" d="M 1116 2306 
L 319 2450 
Q 453 2931 781 3162 
Q 1109 3394 1756 3394 
Q 2344 3394 2631 3255 
Q 2919 3116 3036 2902 
Q 3153 2688 3153 2116 
L 3144 1091 
Q 3144 653 3186 445 
Q 3228 238 3344 0 
L 2475 0 
Q 2441 88 2391 259 
Q 2369 338 2359 363 
Q 2134 144 1878 34 
Q 1622 -75 1331 -75 
Q 819 -75 523 203 
Q 228 481 228 906 
Q 228 1188 362 1408 
Q 497 1628 739 1745 
Q 981 1863 1438 1950 
Q 2053 2066 2291 2166 
L 2291 2253 
Q 2291 2506 2166 2614 
Q 2041 2722 1694 2722 
Q 1459 2722 1328 2630 
Q 1197 2538 1116 2306 
z
M 2291 1594 
Q 2122 1538 1756 1459 
Q 1391 1381 1278 1306 
Q 1106 1184 1106 997 
Q 1106 813 1243 678 
Q 1381 544 1594 544 
Q 1831 544 2047 700 
Q 2206 819 2256 991 
Q 2291 1103 2291 1419 
L 2291 1594 
z
" transform="scale(0.015625)"/>
       <path id="Arial-BoldMT-6c" d="M 459 0 
L 459 4581 
L 1338 4581 
L 1338 0 
L 459 0 
z
" transform="scale(0.015625)"/>
      </defs>
      <use xlink:href="#Arial-BoldMT-52"/>
      <use xlink:href="#Arial-BoldMT-65" x="72.216797"/>
      <use xlink:href="#Arial-BoldMT-63" x="127.832031"/>
      <use xlink:href="#Arial-BoldMT-61" x="183.447266"/>
      <use xlink:href="#Arial-BoldMT-6c" x="239.0625"/>
      <use xlink:href="#Arial-BoldMT-6c" x="266.845703"/>
     </g>
    </g>
   </g>
   <g id="line2d_5">
    <path d="M 51.441563 31.160558 
L 52.836562 31.160558 
M 52.139063 31.160558 
L 52.139063 9.248276 
M 51.441563 9.248276 
L 52.836562 9.248276 
" clip-path="url(#p3f7ed518b7)" style="fill: none; stroke: #000000; stroke-width: 1.5; stroke-linecap: square"/>
   </g>
   <g id="line2d_6">
    <path d="M 107.241563 34.003512 
L 108.636562 34.003512 
M 107.939063 34.003512 
L 107.939063 14.560097 
M 107.241563 14.560097 
L 108.636562 14.560097 
" clip-path="url(#p3f7ed518b7)" style="fill: none; stroke: #000000; stroke-width: 1.5; stroke-linecap: square"/>
   </g>
   <g id="line2d_7">
    <path d="M 62.601563 35.814501 
L 63.996563 35.814501 
M 63.299063 35.814501 
L 63.299063 16.073878 
M 62.601563 16.073878 
L 63.996563 16.073878 
" clip-path="url(#p3f7ed518b7)" style="fill: none; stroke: #000000; stroke-width: 1.5; stroke-linecap: square"/>
   </g>
   <g id="line2d_8">
    <path d="M 118.401563 36.684942 
L 119.796562 36.684942 
M 119.099063 36.684942 
L 119.099063 19.188543 
M 118.401563 19.188543 
L 119.796562 19.188543 
" clip-path="url(#p3f7ed518b7)" style="fill: none; stroke: #000000; stroke-width: 1.5; stroke-linecap: square"/>
   </g>
   <g id="line2d_9">
    <path d="M 73.761562 44.416836 
L 75.156563 44.416836 
M 74.459063 44.416836 
L 74.459063 29.242231 
M 73.761562 29.242231 
L 75.156563 29.242231 
" clip-path="url(#p3f7ed518b7)" style="fill: none; stroke: #000000; stroke-width: 1.5; stroke-linecap: square"/>
   </g>
   <g id="line2d_10">
    <path d="M 129.561563 47.493988 
L 130.956563 47.493988 
M 130.259062 47.493988 
L 130.259062 33.188423 
M 129.561563 33.188423 
L 130.956563 33.188423 
" clip-path="url(#p3f7ed518b7)" style="fill: none; stroke: #000000; stroke-width: 1.5; stroke-linecap: square"/>
   </g>
   <g id="line2d_11">
    <path d="M 84.921563 46.643976 
L 86.316563 46.643976 
M 85.619063 46.643976 
L 85.619063 29.002748 
M 84.921563 29.002748 
L 86.316563 29.002748 
" clip-path="url(#p3f7ed518b7)" style="fill: none; stroke: #000000; stroke-width: 1.5; stroke-linecap: square"/>
   </g>
   <g id="line2d_12">
    <path d="M 140.721563 46.675944 
L 142.116562 46.675944 
M 141.419062 46.675944 
L 141.419062 32.799753 
M 140.721563 32.799753 
L 142.116562 32.799753 
" clip-path="url(#p3f7ed518b7)" style="fill: none; stroke: #000000; stroke-width: 1.5; stroke-linecap: square"/>
   </g>
   <g id="patch_15">
    <path d="M 40.979063 50.213793 
L 40.979063 7.2 
" style="fill: none; stroke: #000000; stroke-linejoin: miter; stroke-linecap: square"/>
   </g>
   <g id="patch_16">
    <path d="M 152.579062 50.213793 
L 152.579062 7.2 
" style="fill: none; stroke: #000000; stroke-linejoin: miter; stroke-linecap: square"/>
   </g>
   <g id="patch_17">
    <path d="M 40.979063 50.213793 
L 152.579062 50.213793 
" style="fill: none; stroke: #000000; stroke-linejoin: miter; stroke-linecap: square"/>
   </g>
   <g id="patch_18">
    <path d="M 40.979063 7.2 
L 152.579062 7.2 
" style="fill: none; stroke: #000000; stroke-linejoin: miter; stroke-linecap: square"/>
   </g>
   <g id="legend_1">
    <g id="patch_19">
     <path d="M 157.295063 17.26875 
L 175.295063 17.26875 
L 175.295063 10.96875 
L 157.295063 10.96875 
z
" style="fill: #93bbd2"/>
    </g>
    <g id="text_4">
     <!-- ecFactory-L1 -->
     <g transform="translate(182.495062 17.26875) scale(0.09 -0.09)">
      <defs>
       <path id="ArialMT-65" d="M 2694 1069 
L 3275 997 
Q 3138 488 2766 206 
Q 2394 -75 1816 -75 
Q 1088 -75 661 373 
Q 234 822 234 1631 
Q 234 2469 665 2931 
Q 1097 3394 1784 3394 
Q 2450 3394 2872 2941 
Q 3294 2488 3294 1666 
Q 3294 1616 3291 1516 
L 816 1516 
Q 847 969 1125 678 
Q 1403 388 1819 388 
Q 2128 388 2347 550 
Q 2566 713 2694 1069 
z
M 847 1978 
L 2700 1978 
Q 2663 2397 2488 2606 
Q 2219 2931 1791 2931 
Q 1403 2931 1139 2672 
Q 875 2413 847 1978 
z
" transform="scale(0.015625)"/>
       <path id="ArialMT-63" d="M 2588 1216 
L 3141 1144 
Q 3050 572 2676 248 
Q 2303 -75 1759 -75 
Q 1078 -75 664 370 
Q 250 816 250 1647 
Q 250 2184 428 2587 
Q 606 2991 970 3192 
Q 1334 3394 1763 3394 
Q 2303 3394 2647 3120 
Q 2991 2847 3088 2344 
L 2541 2259 
Q 2463 2594 2264 2762 
Q 2066 2931 1784 2931 
Q 1359 2931 1093 2626 
Q 828 2322 828 1663 
Q 828 994 1084 691 
Q 1341 388 1753 388 
Q 2084 388 2306 591 
Q 2528 794 2588 1216 
z
" transform="scale(0.015625)"/>
       <path id="ArialMT-46" d="M 525 0 
L 525 4581 
L 3616 4581 
L 3616 4041 
L 1131 4041 
L 1131 2622 
L 3281 2622 
L 3281 2081 
L 1131 2081 
L 1131 0 
L 525 0 
z
" transform="scale(0.015625)"/>
       <path id="ArialMT-61" d="M 2588 409 
Q 2275 144 1986 34 
Q 1697 -75 1366 -75 
Q 819 -75 525 192 
Q 231 459 231 875 
Q 231 1119 342 1320 
Q 453 1522 633 1644 
Q 813 1766 1038 1828 
Q 1203 1872 1538 1913 
Q 2219 1994 2541 2106 
Q 2544 2222 2544 2253 
Q 2544 2597 2384 2738 
Q 2169 2928 1744 2928 
Q 1347 2928 1158 2789 
Q 969 2650 878 2297 
L 328 2372 
Q 403 2725 575 2942 
Q 747 3159 1072 3276 
Q 1397 3394 1825 3394 
Q 2250 3394 2515 3294 
Q 2781 3194 2906 3042 
Q 3031 2891 3081 2659 
Q 3109 2516 3109 2141 
L 3109 1391 
Q 3109 606 3145 398 
Q 3181 191 3288 0 
L 2700 0 
Q 2613 175 2588 409 
z
M 2541 1666 
Q 2234 1541 1622 1453 
Q 1275 1403 1131 1340 
Q 988 1278 909 1158 
Q 831 1038 831 891 
Q 831 666 1001 516 
Q 1172 366 1500 366 
Q 1825 366 2078 508 
Q 2331 650 2450 897 
Q 2541 1088 2541 1459 
L 2541 1666 
z
" transform="scale(0.015625)"/>
       <path id="ArialMT-74" d="M 1650 503 
L 1731 6 
Q 1494 -44 1306 -44 
Q 1000 -44 831 53 
Q 663 150 594 308 
Q 525 466 525 972 
L 525 2881 
L 113 2881 
L 113 3319 
L 525 3319 
L 525 4141 
L 1084 4478 
L 1084 3319 
L 1650 3319 
L 1650 2881 
L 1084 2881 
L 1084 941 
Q 1084 700 1114 631 
Q 1144 563 1211 522 
Q 1278 481 1403 481 
Q 1497 481 1650 503 
z
" transform="scale(0.015625)"/>
       <path id="ArialMT-6f" d="M 213 1659 
Q 213 2581 725 3025 
Q 1153 3394 1769 3394 
Q 2453 3394 2887 2945 
Q 3322 2497 3322 1706 
Q 3322 1066 3130 698 
Q 2938 331 2570 128 
Q 2203 -75 1769 -75 
Q 1072 -75 642 372 
Q 213 819 213 1659 
z
M 791 1659 
Q 791 1022 1069 705 
Q 1347 388 1769 388 
Q 2188 388 2466 706 
Q 2744 1025 2744 1678 
Q 2744 2294 2464 2611 
Q 2184 2928 1769 2928 
Q 1347 2928 1069 2612 
Q 791 2297 791 1659 
z
" transform="scale(0.015625)"/>
       <path id="ArialMT-72" d="M 416 0 
L 416 3319 
L 922 3319 
L 922 2816 
Q 1116 3169 1280 3281 
Q 1444 3394 1641 3394 
Q 1925 3394 2219 3213 
L 2025 2691 
Q 1819 2813 1613 2813 
Q 1428 2813 1281 2702 
Q 1134 2591 1072 2394 
Q 978 2094 978 1738 
L 978 0 
L 416 0 
z
" transform="scale(0.015625)"/>
       <path id="ArialMT-79" d="M 397 -1278 
L 334 -750 
Q 519 -800 656 -800 
Q 844 -800 956 -737 
Q 1069 -675 1141 -563 
Q 1194 -478 1313 -144 
Q 1328 -97 1363 -6 
L 103 3319 
L 709 3319 
L 1400 1397 
Q 1534 1031 1641 628 
Q 1738 1016 1872 1384 
L 2581 3319 
L 3144 3319 
L 1881 -56 
Q 1678 -603 1566 -809 
Q 1416 -1088 1222 -1217 
Q 1028 -1347 759 -1347 
Q 597 -1347 397 -1278 
z
" transform="scale(0.015625)"/>
       <path id="ArialMT-2d" d="M 203 1375 
L 203 1941 
L 1931 1941 
L 1931 1375 
L 203 1375 
z
" transform="scale(0.015625)"/>
       <path id="ArialMT-4c" d="M 469 0 
L 469 4581 
L 1075 4581 
L 1075 541 
L 3331 541 
L 3331 0 
L 469 0 
z
" transform="scale(0.015625)"/>
       <path id="ArialMT-31" d="M 2384 0 
L 1822 0 
L 1822 3584 
Q 1619 3391 1289 3197 
Q 959 3003 697 2906 
L 697 3450 
Q 1169 3672 1522 3987 
Q 1875 4303 2022 4600 
L 2384 4600 
L 2384 0 
z
" transform="scale(0.015625)"/>
      </defs>
      <use xlink:href="#ArialMT-65"/>
      <use xlink:href="#ArialMT-63" x="55.615234"/>
      <use xlink:href="#ArialMT-46" x="105.615234"/>
      <use xlink:href="#ArialMT-61" x="166.699219"/>
      <use xlink:href="#ArialMT-63" x="222.314453"/>
      <use xlink:href="#ArialMT-74" x="272.314453"/>
      <use xlink:href="#ArialMT-6f" x="300.097656"/>
      <use xlink:href="#ArialMT-72" x="355.712891"/>
      <use xlink:href="#ArialMT-79" x="389.013672"/>
      <use xlink:href="#ArialMT-2d" x="439.013672"/>
      <use xlink:href="#ArialMT-4c" x="472.314453"/>
      <use xlink:href="#ArialMT-31" x="527.929688"/>
     </g>
    </g>
    <g id="patch_20">
     <path d="M 157.295063 30.131719 
L 175.295063 30.131719 
L 175.295063 23.831719 
L 157.295063 23.831719 
z
" style="fill: #629abe"/>
    </g>
    <g id="text_5">
     <!-- ecFactory-L2 -->
     <g transform="translate(182.495062 30.131719) scale(0.09 -0.09)">
      <defs>
       <path id="ArialMT-32" d="M 3222 541 
L 3222 0 
L 194 0 
Q 188 203 259 391 
Q 375 700 629 1000 
Q 884 1300 1366 1694 
Q 2113 2306 2375 2664 
Q 2638 3022 2638 3341 
Q 2638 3675 2398 3904 
Q 2159 4134 1775 4134 
Q 1369 4134 1125 3890 
Q 881 3647 878 3216 
L 300 3275 
Q 359 3922 746 4261 
Q 1134 4600 1788 4600 
Q 2447 4600 2831 4234 
Q 3216 3869 3216 3328 
Q 3216 3053 3103 2787 
Q 2991 2522 2730 2228 
Q 2469 1934 1863 1422 
Q 1356 997 1212 845 
Q 1069 694 975 541 
L 3222 541 
z
" transform="scale(0.015625)"/>
      </defs>
      <use xlink:href="#ArialMT-65"/>
      <use xlink:href="#ArialMT-63" x="55.615234"/>
      <use xlink:href="#ArialMT-46" x="105.615234"/>
      <use xlink:href="#ArialMT-61" x="166.699219"/>
      <use xlink:href="#ArialMT-63" x="222.314453"/>
      <use xlink:href="#ArialMT-74" x="272.314453"/>
      <use xlink:href="#ArialMT-6f" x="300.097656"/>
      <use xlink:href="#ArialMT-72" x="355.712891"/>
      <use xlink:href="#ArialMT-79" x="389.013672"/>
      <use xlink:href="#ArialMT-2d" x="439.013672"/>
      <use xlink:href="#ArialMT-4c" x="472.314453"/>
      <use xlink:href="#ArialMT-32" x="527.929688"/>
     </g>
    </g>
    <g id="patch_21">
     <path d="M 157.295063 42.994687 
L 175.295063 42.994687 
L 175.295063 36.694688 
L 157.295063 36.694688 
z
" style="fill: #3c78a8"/>
    </g>
    <g id="text_6">
     <!-- ecFactory-L3 -->
     <g transform="translate(182.495062 42.994687) scale(0.09 -0.09)">
      <defs>
       <path id="ArialMT-33" d="M 269 1209 
L 831 1284 
Q 928 806 1161 595 
Q 1394 384 1728 384 
Q 2125 384 2398 659 
Q 2672 934 2672 1341 
Q 2672 1728 2419 1979 
Q 2166 2231 1775 2231 
Q 1616 2231 1378 2169 
L 1441 2663 
Q 1497 2656 1531 2656 
Q 1891 2656 2178 2843 
Q 2466 3031 2466 3422 
Q 2466 3731 2256 3934 
Q 2047 4138 1716 4138 
Q 1388 4138 1169 3931 
Q 950 3725 888 3313 
L 325 3413 
Q 428 3978 793 4289 
Q 1159 4600 1703 4600 
Q 2078 4600 2393 4439 
Q 2709 4278 2876 4000 
Q 3044 3722 3044 3409 
Q 3044 3113 2884 2869 
Q 2725 2625 2413 2481 
Q 2819 2388 3044 2092 
Q 3269 1797 3269 1353 
Q 3269 753 2831 336 
Q 2394 -81 1725 -81 
Q 1122 -81 723 278 
Q 325 638 269 1209 
z
" transform="scale(0.015625)"/>
      </defs>
      <use xlink:href="#ArialMT-65"/>
      <use xlink:href="#ArialMT-63" x="55.615234"/>
      <use xlink:href="#ArialMT-46" x="105.615234"/>
      <use xlink:href="#ArialMT-61" x="166.699219"/>
      <use xlink:href="#ArialMT-63" x="222.314453"/>
      <use xlink:href="#ArialMT-74" x="272.314453"/>
      <use xlink:href="#ArialMT-6f" x="300.097656"/>
      <use xlink:href="#ArialMT-72" x="355.712891"/>
      <use xlink:href="#ArialMT-79" x="389.013672"/>
      <use xlink:href="#ArialMT-2d" x="439.013672"/>
      <use xlink:href="#ArialMT-4c" x="472.314453"/>
      <use xlink:href="#ArialMT-33" x="527.929688"/>
     </g>
    </g>
    <g id="patch_22">
     <path d="M 157.295063 55.940625 
L 175.295063 55.940625 
L 175.295063 49.640625 
L 157.295063 49.640625 
z
" style="fill: #1e558d"/>
    </g>
    <g id="text_7">
     <!-- ecFactory-FCC -->
     <g transform="translate(182.495062 55.940625) scale(0.09 -0.09)">
      <defs>
       <path id="ArialMT-43" d="M 3763 1606 
L 4369 1453 
Q 4178 706 3683 314 
Q 3188 -78 2472 -78 
Q 1731 -78 1267 223 
Q 803 525 561 1097 
Q 319 1669 319 2325 
Q 319 3041 592 3573 
Q 866 4106 1370 4382 
Q 1875 4659 2481 4659 
Q 3169 4659 3637 4309 
Q 4106 3959 4291 3325 
L 3694 3184 
Q 3534 3684 3231 3912 
Q 2928 4141 2469 4141 
Q 1941 4141 1586 3887 
Q 1231 3634 1087 3207 
Q 944 2781 944 2328 
Q 944 1744 1114 1308 
Q 1284 872 1643 656 
Q 2003 441 2422 441 
Q 2931 441 3284 734 
Q 3638 1028 3763 1606 
z
" transform="scale(0.015625)"/>
      </defs>
      <use xlink:href="#ArialMT-65"/>
      <use xlink:href="#ArialMT-63" x="55.615234"/>
      <use xlink:href="#ArialMT-46" x="105.615234"/>
      <use xlink:href="#ArialMT-61" x="166.699219"/>
      <use xlink:href="#ArialMT-63" x="222.314453"/>
      <use xlink:href="#ArialMT-74" x="272.314453"/>
      <use xlink:href="#ArialMT-6f" x="300.097656"/>
      <use xlink:href="#ArialMT-72" x="355.712891"/>
      <use xlink:href="#ArialMT-79" x="389.013672"/>
      <use xlink:href="#ArialMT-2d" x="439.013672"/>
      <use xlink:href="#ArialMT-46" x="472.314453"/>
      <use xlink:href="#ArialMT-43" x="533.398438"/>
      <use xlink:href="#ArialMT-43" x="605.615234"/>
     </g>
    </g>
   </g>
  </g>
  <g id="axes_2">
   <g id="patch_23">
    <path d="M 40.979063 101.830345 
L 152.579062 101.830345 
L 152.579062 58.816552 
L 40.979063 58.816552 
L 40.979063 101.830345 
z
" style="fill: none"/>
   </g>
   <g id="patch_24">
    <path d="M 46.559063 101.830345 
L 57.719062 101.830345 
L 57.719062 93.601152 
L 46.559063 93.601152 
z
" clip-path="url(#p8875f04e2c)" style="fill: #93bbd2"/>
   </g>
   <g id="patch_25">
    <path d="M 102.359062 101.830345 
L 113.519062 101.830345 
L 113.519062 96.510654 
L 102.359062 96.510654 
z
" clip-path="url(#p8875f04e2c)" style="fill: #93bbd2"/>
   </g>
   <g id="patch_26">
    <path d="M 57.719063 101.830345 
L 68.879063 101.830345 
L 68.879063 92.716595 
L 57.719063 92.716595 
z
" clip-path="url(#p8875f04e2c)" style="fill: #629abe"/>
   </g>
   <g id="patch_27">
    <path d="M 113.519063 101.830345 
L 124.679063 101.830345 
L 124.679063 95.847416 
L 113.519063 95.847416 
z
" clip-path="url(#p8875f04e2c)" style="fill: #629abe"/>
   </g>
   <g id="patch_28">
    <path d="M 68.879063 101.830345 
L 80.039062 101.830345 
L 80.039062 87.48989 
L 68.879063 87.48989 
z
" clip-path="url(#p8875f04e2c)" style="fill: #3c78a8"/>
   </g>
   <g id="patch_29">
    <path d="M 124.679063 101.830345 
L 135.839063 101.830345 
L 135.839063 81.004942 
L 124.679063 81.004942 
z
" clip-path="url(#p8875f04e2c)" style="fill: #3c78a8"/>
   </g>
   <g id="patch_30">
    <path d="M 80.039062 101.830345 
L 91.199062 101.830345 
L 91.199062 76.643815 
L 80.039062 76.643815 
z
" clip-path="url(#p8875f04e2c)" style="fill: #1e558d"/>
   </g>
   <g id="patch_31">
    <path d="M 135.839063 101.830345 
L 146.999063 101.830345 
L 146.999063 74.644515 
L 135.839063 74.644515 
z
" clip-path="url(#p8875f04e2c)" style="fill: #1e558d"/>
   </g>
   <g id="matplotlib.axis_3">
    <g id="xtick_3">
     <g id="line2d_13">
      <g>
       <use xlink:href="#m5172b378ab" x="68.879063" y="101.830345" style="stroke: #000000; stroke-width: 0.8"/>
      </g>
     </g>
    </g>
    <g id="xtick_4">
     <g id="line2d_14">
      <g>
       <use xlink:href="#m5172b378ab" x="124.679063" y="101.830345" style="stroke: #000000; stroke-width: 0.8"/>
      </g>
     </g>
    </g>
   </g>
   <g id="matplotlib.axis_4">
    <g id="ytick_3">
     <g id="line2d_15">
      <g>
       <use xlink:href="#mcddc8a17c3" x="40.979063" y="101.830345" style="stroke: #000000; stroke-width: 0.8"/>
      </g>
     </g>
     <g id="text_8">
      <!-- 0.0 -->
      <g transform="translate(20.079063 105.409251) scale(0.1 -0.1)">
       <use xlink:href="#ArialMT-30"/>
       <use xlink:href="#ArialMT-2e" x="55.615234"/>
       <use xlink:href="#ArialMT-30" x="83.398438"/>
      </g>
     </g>
    </g>
    <g id="ytick_4">
     <g id="line2d_16">
      <g>
       <use xlink:href="#mcddc8a17c3" x="40.979063" y="75.682142" style="stroke: #000000; stroke-width: 0.8"/>
      </g>
     </g>
     <g id="text_9">
      <!-- 0.5 -->
      <g transform="translate(20.079063 79.261049) scale(0.1 -0.1)">
       <use xlink:href="#ArialMT-30"/>
       <use xlink:href="#ArialMT-2e" x="55.615234"/>
       <use xlink:href="#ArialMT-35" x="83.398438"/>
      </g>
     </g>
    </g>
    <g id="text_10">
     <!-- Precision -->
     <g transform="translate(14.302969 100.581183) rotate(-90) scale(0.09 -0.09)">
      <defs>
       <path id="Arial-BoldMT-50" d="M 466 0 
L 466 4581 
L 1950 4581 
Q 2794 4581 3050 4513 
Q 3444 4409 3709 4064 
Q 3975 3719 3975 3172 
Q 3975 2750 3822 2462 
Q 3669 2175 3433 2011 
Q 3197 1847 2953 1794 
Q 2622 1728 1994 1728 
L 1391 1728 
L 1391 0 
L 466 0 
z
M 1391 3806 
L 1391 2506 
L 1897 2506 
Q 2444 2506 2628 2578 
Q 2813 2650 2917 2803 
Q 3022 2956 3022 3159 
Q 3022 3409 2875 3571 
Q 2728 3734 2503 3775 
Q 2338 3806 1838 3806 
L 1391 3806 
z
" transform="scale(0.015625)"/>
       <path id="Arial-BoldMT-72" d="M 1300 0 
L 422 0 
L 422 3319 
L 1238 3319 
L 1238 2847 
Q 1447 3181 1614 3287 
Q 1781 3394 1994 3394 
Q 2294 3394 2572 3228 
L 2300 2463 
Q 2078 2606 1888 2606 
Q 1703 2606 1575 2504 
Q 1447 2403 1373 2137 
Q 1300 1872 1300 1025 
L 1300 0 
z
" transform="scale(0.015625)"/>
       <path id="Arial-BoldMT-69" d="M 459 3769 
L 459 4581 
L 1338 4581 
L 1338 3769 
L 459 3769 
z
M 459 0 
L 459 3319 
L 1338 3319 
L 1338 0 
L 459 0 
z
" transform="scale(0.015625)"/>
       <path id="Arial-BoldMT-73" d="M 150 947 
L 1031 1081 
Q 1088 825 1259 692 
Q 1431 559 1741 559 
Q 2081 559 2253 684 
Q 2369 772 2369 919 
Q 2369 1019 2306 1084 
Q 2241 1147 2013 1200 
Q 950 1434 666 1628 
Q 272 1897 272 2375 
Q 272 2806 612 3100 
Q 953 3394 1669 3394 
Q 2350 3394 2681 3172 
Q 3013 2950 3138 2516 
L 2309 2363 
Q 2256 2556 2107 2659 
Q 1959 2763 1684 2763 
Q 1338 2763 1188 2666 
Q 1088 2597 1088 2488 
Q 1088 2394 1175 2328 
Q 1294 2241 1995 2081 
Q 2697 1922 2975 1691 
Q 3250 1456 3250 1038 
Q 3250 581 2869 253 
Q 2488 -75 1741 -75 
Q 1063 -75 667 200 
Q 272 475 150 947 
z
" transform="scale(0.015625)"/>
       <path id="Arial-BoldMT-6f" d="M 256 1706 
Q 256 2144 472 2553 
Q 688 2963 1083 3178 
Q 1478 3394 1966 3394 
Q 2719 3394 3200 2905 
Q 3681 2416 3681 1669 
Q 3681 916 3195 420 
Q 2709 -75 1972 -75 
Q 1516 -75 1102 131 
Q 688 338 472 736 
Q 256 1134 256 1706 
z
M 1156 1659 
Q 1156 1166 1390 903 
Q 1625 641 1969 641 
Q 2313 641 2545 903 
Q 2778 1166 2778 1666 
Q 2778 2153 2545 2415 
Q 2313 2678 1969 2678 
Q 1625 2678 1390 2415 
Q 1156 2153 1156 1659 
z
" transform="scale(0.015625)"/>
       <path id="Arial-BoldMT-6e" d="M 3478 0 
L 2600 0 
L 2600 1694 
Q 2600 2231 2544 2389 
Q 2488 2547 2361 2634 
Q 2234 2722 2056 2722 
Q 1828 2722 1647 2597 
Q 1466 2472 1398 2265 
Q 1331 2059 1331 1503 
L 1331 0 
L 453 0 
L 453 3319 
L 1269 3319 
L 1269 2831 
Q 1703 3394 2363 3394 
Q 2653 3394 2893 3289 
Q 3134 3184 3257 3021 
Q 3381 2859 3429 2653 
Q 3478 2447 3478 2063 
L 3478 0 
z
" transform="scale(0.015625)"/>
      </defs>
      <use xlink:href="#Arial-BoldMT-50"/>
      <use xlink:href="#Arial-BoldMT-72" x="66.699219"/>
      <use xlink:href="#Arial-BoldMT-65" x="105.615234"/>
      <use xlink:href="#Arial-BoldMT-63" x="161.230469"/>
      <use xlink:href="#Arial-BoldMT-69" x="216.845703"/>
      <use xlink:href="#Arial-BoldMT-73" x="244.628906"/>
      <use xlink:href="#Arial-BoldMT-69" x="300.244141"/>
      <use xlink:href="#Arial-BoldMT-6f" x="328.027344"/>
      <use xlink:href="#Arial-BoldMT-6e" x="389.111328"/>
     </g>
    </g>
   </g>
   <g id="line2d_17">
    <path d="M 51.441563 97.868496 
L 52.836562 97.868496 
M 52.139063 97.868496 
L 52.139063 89.251419 
M 51.441563 89.251419 
L 52.836562 89.251419 
" clip-path="url(#p8875f04e2c)" style="fill: none; stroke: #000000; stroke-width: 1.5; stroke-linecap: square"/>
   </g>
   <g id="line2d_18">
    <path d="M 107.241563 98.205524 
L 108.636562 98.205524 
M 107.939063 98.205524 
L 107.939063 94.817241 
M 107.241563 94.817241 
L 108.636562 94.817241 
" clip-path="url(#p8875f04e2c)" style="fill: none; stroke: #000000; stroke-width: 1.5; stroke-linecap: square"/>
   </g>
   <g id="line2d_19">
    <path d="M 62.601563 97.523198 
L 63.996563 97.523198 
M 63.299063 97.523198 
L 63.299063 87.803601 
M 62.601563 87.803601 
L 63.996563 87.803601 
" clip-path="url(#p8875f04e2c)" style="fill: none; stroke: #000000; stroke-width: 1.5; stroke-linecap: square"/>
   </g>
   <g id="line2d_20">
    <path d="M 118.401563 98.139509 
L 119.796562 98.139509 
M 119.099063 98.139509 
L 119.099063 93.966322 
M 118.401563 93.966322 
L 119.796562 93.966322 
" clip-path="url(#p8875f04e2c)" style="fill: none; stroke: #000000; stroke-width: 1.5; stroke-linecap: square"/>
   </g>
   <g id="line2d_21">
    <path d="M 73.761562 99.00755 
L 75.156563 99.00755 
M 74.459063 99.00755 
L 74.459063 75.756851 
M 73.761562 75.756851 
L 75.156563 75.756851 
" clip-path="url(#p8875f04e2c)" style="fill: none; stroke: #000000; stroke-width: 1.5; stroke-linecap: square"/>
   </g>
   <g id="line2d_22">
    <path d="M 129.561563 96.545655 
L 130.956563 96.545655 
M 130.259062 96.545655 
L 130.259062 64.270093 
M 129.561563 64.270093 
L 130.956563 64.270093 
" clip-path="url(#p8875f04e2c)" style="fill: none; stroke: #000000; stroke-width: 1.5; stroke-linecap: square"/>
   </g>
   <g id="line2d_23">
    <path d="M 84.921563 89.95325 
L 86.316563 89.95325 
M 85.619063 89.95325 
L 85.619063 62.02697 
M 84.921563 62.02697 
L 86.316563 62.02697 
" clip-path="url(#p8875f04e2c)" style="fill: none; stroke: #000000; stroke-width: 1.5; stroke-linecap: square"/>
   </g>
   <g id="line2d_24">
    <path d="M 140.721563 88.299688 
L 142.116562 88.299688 
M 141.419062 88.299688 
L 141.419062 60.864828 
M 140.721563 60.864828 
L 142.116562 60.864828 
" clip-path="url(#p8875f04e2c)" style="fill: none; stroke: #000000; stroke-width: 1.5; stroke-linecap: square"/>
   </g>
   <g id="patch_32">
    <path d="M 40.979063 101.830345 
L 40.979063 58.816552 
" style="fill: none; stroke: #000000; stroke-linejoin: miter; stroke-linecap: square"/>
   </g>
   <g id="patch_33">
    <path d="M 152.579062 101.830345 
L 152.579062 58.816552 
" style="fill: none; stroke: #000000; stroke-linejoin: miter; stroke-linecap: square"/>
   </g>
   <g id="patch_34">
    <path d="M 40.979063 101.830345 
L 152.579062 101.830345 
" style="fill: none; stroke: #000000; stroke-linejoin: miter; stroke-linecap: square"/>
   </g>
   <g id="patch_35">
    <path d="M 40.979063 58.816552 
L 152.579062 58.816552 
" style="fill: none; stroke: #000000; stroke-linejoin: miter; stroke-linecap: square"/>
   </g>
  </g>
  <g id="axes_3">
   <g id="patch_36">
    <path d="M 40.979063 153.446897 
L 152.579062 153.446897 
L 152.579062 110.433103 
L 40.979063 110.433103 
L 40.979063 153.446897 
z
" style="fill: none"/>
   </g>
   <g id="patch_37">
    <path d="M 46.559063 153.446897 
L 57.719062 153.446897 
L 57.719062 121.082604 
L 46.559063 121.082604 
z
" clip-path="url(#pae4cfc9208)" style="fill: #93bbd2"/>
   </g>
   <g id="patch_38">
    <path d="M 102.359062 153.446897 
L 113.519062 153.446897 
L 113.519062 119.438924 
L 102.359062 119.438924 
z
" clip-path="url(#pae4cfc9208)" style="fill: #93bbd2"/>
   </g>
   <g id="patch_39">
    <path d="M 57.719063 153.446897 
L 68.879063 153.446897 
L 68.879063 120.266611 
L 57.719063 120.266611 
z
" clip-path="url(#pae4cfc9208)" style="fill: #629abe"/>
   </g>
   <g id="patch_40">
    <path d="M 113.519063 153.446897 
L 124.679063 153.446897 
L 124.679063 119.325427 
L 113.519063 119.325427 
z
" clip-path="url(#pae4cfc9208)" style="fill: #629abe"/>
   </g>
   <g id="patch_41">
    <path d="M 68.879063 153.446897 
L 80.039062 153.446897 
L 80.039062 119.492315 
L 68.879063 119.492315 
z
" clip-path="url(#pae4cfc9208)" style="fill: #3c78a8"/>
   </g>
   <g id="patch_42">
    <path d="M 124.679063 153.446897 
L 135.839063 153.446897 
L 135.839063 119.656495 
L 124.679063 119.656495 
z
" clip-path="url(#pae4cfc9208)" style="fill: #3c78a8"/>
   </g>
   <g id="patch_43">
    <path d="M 80.039062 153.446897 
L 91.199062 153.446897 
L 91.199062 125.553835 
L 80.039062 125.553835 
z
" clip-path="url(#pae4cfc9208)" style="fill: #1e558d"/>
   </g>
   <g id="patch_44">
    <path d="M 135.839063 153.446897 
L 146.999063 153.446897 
L 146.999063 125.156644 
L 135.839063 125.156644 
z
" clip-path="url(#pae4cfc9208)" style="fill: #1e558d"/>
   </g>
   <g id="matplotlib.axis_5">
    <g id="xtick_5">
     <g id="line2d_25">
      <g>
       <use xlink:href="#m5172b378ab" x="68.879063" y="153.446897" style="stroke: #000000; stroke-width: 0.8"/>
      </g>
     </g>
    </g>
    <g id="xtick_6">
     <g id="line2d_26">
      <g>
       <use xlink:href="#m5172b378ab" x="124.679063" y="153.446897" style="stroke: #000000; stroke-width: 0.8"/>
      </g>
     </g>
    </g>
   </g>
   <g id="matplotlib.axis_6">
    <g id="ytick_5">
     <g id="line2d_27">
      <g>
       <use xlink:href="#mcddc8a17c3" x="40.979063" y="153.446897" style="stroke: #000000; stroke-width: 0.8"/>
      </g>
     </g>
     <g id="text_11">
      <!-- 0 -->
      <g transform="translate(28.418125 157.025803) scale(0.1 -0.1)">
       <use xlink:href="#ArialMT-30"/>
      </g>
     </g>
    </g>
    <g id="ytick_6">
     <g id="line2d_28">
      <g>
       <use xlink:href="#mcddc8a17c3" x="40.979063" y="128.340364" style="stroke: #000000; stroke-width: 0.8"/>
      </g>
     </g>
     <g id="text_12">
      <!-- 5 -->
      <g transform="translate(28.418125 131.91927) scale(0.1 -0.1)">
       <use xlink:href="#ArialMT-35"/>
      </g>
     </g>
    </g>
    <g id="text_13">
     <!-- Distance -->
     <g transform="translate(13.642031 150.696562) rotate(-90) scale(0.09 -0.09)">
      <defs>
       <path id="Arial-BoldMT-44" d="M 463 4581 
L 2153 4581 
Q 2725 4581 3025 4494 
Q 3428 4375 3715 4072 
Q 4003 3769 4153 3330 
Q 4303 2891 4303 2247 
Q 4303 1681 4163 1272 
Q 3991 772 3672 463 
Q 3431 228 3022 97 
Q 2716 0 2203 0 
L 463 0 
L 463 4581 
z
M 1388 3806 
L 1388 772 
L 2078 772 
Q 2466 772 2638 816 
Q 2863 872 3011 1006 
Q 3159 1141 3253 1448 
Q 3347 1756 3347 2288 
Q 3347 2819 3253 3103 
Q 3159 3388 2990 3547 
Q 2822 3706 2563 3763 
Q 2369 3806 1803 3806 
L 1388 3806 
z
" transform="scale(0.015625)"/>
       <path id="Arial-BoldMT-74" d="M 1981 3319 
L 1981 2619 
L 1381 2619 
L 1381 1281 
Q 1381 875 1398 808 
Q 1416 741 1477 697 
Q 1538 653 1625 653 
Q 1747 653 1978 738 
L 2053 56 
Q 1747 -75 1359 -75 
Q 1122 -75 931 4 
Q 741 84 652 211 
Q 563 338 528 553 
Q 500 706 500 1172 
L 500 2619 
L 97 2619 
L 97 3319 
L 500 3319 
L 500 3978 
L 1381 4491 
L 1381 3319 
L 1981 3319 
z
" transform="scale(0.015625)"/>
      </defs>
      <use xlink:href="#Arial-BoldMT-44"/>
      <use xlink:href="#Arial-BoldMT-69" x="72.216797"/>
      <use xlink:href="#Arial-BoldMT-73" x="100"/>
      <use xlink:href="#Arial-BoldMT-74" x="155.615234"/>
      <use xlink:href="#Arial-BoldMT-61" x="188.916016"/>
      <use xlink:href="#Arial-BoldMT-6e" x="244.53125"/>
      <use xlink:href="#Arial-BoldMT-63" x="305.615234"/>
      <use xlink:href="#Arial-BoldMT-65" x="361.230469"/>
     </g>
    </g>
   </g>
   <g id="line2d_29">
    <path d="M 51.441563 122.99795 
L 52.836562 122.99795 
M 52.139063 122.99795 
L 52.139063 119.008177 
M 51.441563 119.008177 
L 52.836562 119.008177 
" clip-path="url(#pae4cfc9208)" style="fill: none; stroke: #000000; stroke-width: 1.5; stroke-linecap: square"/>
   </g>
   <g id="line2d_30">
    <path d="M 107.241563 120.994887 
L 108.636562 120.994887 
M 107.939063 120.994887 
L 107.939063 117.340162 
M 107.241563 117.340162 
L 108.636562 117.340162 
" clip-path="url(#pae4cfc9208)" style="fill: none; stroke: #000000; stroke-width: 1.5; stroke-linecap: square"/>
   </g>
   <g id="line2d_31">
    <path d="M 62.601563 122.75281 
L 63.996563 122.75281 
M 63.299063 122.75281 
L 63.299063 118.052961 
M 62.601563 118.052961 
L 63.996563 118.052961 
" clip-path="url(#pae4cfc9208)" style="fill: none; stroke: #000000; stroke-width: 1.5; stroke-linecap: square"/>
   </g>
   <g id="line2d_32">
    <path d="M 118.401563 120.806089 
L 119.796562 120.806089 
M 119.099063 120.806089 
L 119.099063 117.324824 
M 118.401563 117.324824 
L 119.796562 117.324824 
" clip-path="url(#pae4cfc9208)" style="fill: none; stroke: #000000; stroke-width: 1.5; stroke-linecap: square"/>
   </g>
   <g id="line2d_33">
    <path d="M 73.761562 121.540054 
L 75.156563 121.540054 
M 74.459063 121.540054 
L 74.459063 117.362959 
M 73.761562 117.362959 
L 75.156563 117.362959 
" clip-path="url(#pae4cfc9208)" style="fill: none; stroke: #000000; stroke-width: 1.5; stroke-linecap: square"/>
   </g>
   <g id="line2d_34">
    <path d="M 129.561563 125.664394 
L 130.956563 125.664394 
M 130.259062 125.664394 
L 130.259062 112.481379 
M 129.561563 112.481379 
L 130.956563 112.481379 
" clip-path="url(#pae4cfc9208)" style="fill: none; stroke: #000000; stroke-width: 1.5; stroke-linecap: square"/>
   </g>
   <g id="line2d_35">
    <path d="M 84.921563 127.741189 
L 86.316563 127.741189 
M 85.619063 127.741189 
L 85.619063 123.437177 
M 84.921563 123.437177 
L 86.316563 123.437177 
" clip-path="url(#pae4cfc9208)" style="fill: none; stroke: #000000; stroke-width: 1.5; stroke-linecap: square"/>
   </g>
   <g id="line2d_36">
    <path d="M 140.721563 127.791933 
L 142.116562 127.791933 
M 141.419062 127.791933 
L 141.419062 122.282272 
M 140.721563 122.282272 
L 142.116562 122.282272 
" clip-path="url(#pae4cfc9208)" style="fill: none; stroke: #000000; stroke-width: 1.5; stroke-linecap: square"/>
   </g>
   <g id="patch_45">
    <path d="M 40.979063 153.446897 
L 40.979063 110.433103 
" style="fill: none; stroke: #000000; stroke-linejoin: miter; stroke-linecap: square"/>
   </g>
   <g id="patch_46">
    <path d="M 152.579062 153.446897 
L 152.579062 110.433103 
" style="fill: none; stroke: #000000; stroke-linejoin: miter; stroke-linecap: square"/>
   </g>
   <g id="patch_47">
    <path d="M 40.979063 153.446897 
L 152.579062 153.446897 
" style="fill: none; stroke: #000000; stroke-linejoin: miter; stroke-linecap: square"/>
   </g>
   <g id="patch_48">
    <path d="M 40.979063 110.433103 
L 152.579062 110.433103 
" style="fill: none; stroke: #000000; stroke-linejoin: miter; stroke-linecap: square"/>
   </g>
  </g>
  <g id="axes_4">
   <g id="patch_49">
    <path d="M 40.979063 205.063448 
L 152.579062 205.063448 
L 152.579062 162.049655 
L 40.979063 162.049655 
L 40.979063 205.063448 
z
" style="fill: none"/>
   </g>
   <g id="patch_50">
    <path d="M 46.559063 205.063448 
L 57.719062 205.063448 
L 57.719062 186.257214 
L 46.559063 186.257214 
z
" clip-path="url(#pc63cc34fb6)" style="fill: #93bbd2"/>
   </g>
   <g id="patch_51">
    <path d="M 102.359062 205.063448 
L 113.519062 205.063448 
L 113.519062 181.883672 
L 102.359062 181.883672 
z
" clip-path="url(#pc63cc34fb6)" style="fill: #93bbd2"/>
   </g>
   <g id="patch_52">
    <path d="M 57.719063 205.063448 
L 68.879063 205.063448 
L 68.879063 186.11143 
L 57.719063 186.11143 
z
" clip-path="url(#pc63cc34fb6)" style="fill: #629abe"/>
   </g>
   <g id="patch_53">
    <path d="M 113.519063 205.063448 
L 124.679063 205.063448 
L 124.679063 182.175241 
L 113.519063 182.175241 
z
" clip-path="url(#pc63cc34fb6)" style="fill: #629abe"/>
   </g>
   <g id="patch_54">
    <path d="M 68.879063 205.063448 
L 80.039062 205.063448 
L 80.039062 197.919995 
L 68.879063 197.919995 
z
" clip-path="url(#pc63cc34fb6)" style="fill: #3c78a8"/>
   </g>
   <g id="patch_55">
    <path d="M 124.679063 205.063448 
L 135.839063 205.063448 
L 135.839063 187.277708 
L 124.679063 187.277708 
z
" clip-path="url(#pc63cc34fb6)" style="fill: #3c78a8"/>
   </g>
   <g id="patch_56">
    <path d="M 80.039062 205.063448 
L 91.199062 205.063448 
L 91.199062 196.462148 
L 80.039062 196.462148 
z
" clip-path="url(#pc63cc34fb6)" style="fill: #1e558d"/>
   </g>
   <g id="patch_57">
    <path d="M 135.839063 205.063448 
L 146.999063 205.063448 
L 146.999063 183.778873 
L 135.839063 183.778873 
z
" clip-path="url(#pc63cc34fb6)" style="fill: #1e558d"/>
   </g>
   <g id="matplotlib.axis_7">
    <g id="xtick_7">
     <g id="line2d_37">
      <g>
       <use xlink:href="#m5172b378ab" x="68.879063" y="205.063448" style="stroke: #000000; stroke-width: 0.8"/>
      </g>
     </g>
    </g>
    <g id="xtick_8">
     <g id="line2d_38">
      <g>
       <use xlink:href="#m5172b378ab" x="124.679063" y="205.063448" style="stroke: #000000; stroke-width: 0.8"/>
      </g>
     </g>
    </g>
   </g>
   <g id="matplotlib.axis_8">
    <g id="ytick_7">
     <g id="line2d_39">
      <g>
       <use xlink:href="#mcddc8a17c3" x="40.979063" y="205.063448" style="stroke: #000000; stroke-width: 0.8"/>
      </g>
     </g>
     <g id="text_14">
      <!-- 0 -->
      <g transform="translate(28.418125 208.642355) scale(0.1 -0.1)">
       <use xlink:href="#ArialMT-30"/>
      </g>
     </g>
    </g>
    <g id="ytick_8">
     <g id="line2d_40">
      <g>
       <use xlink:href="#mcddc8a17c3" x="40.979063" y="175.906497" style="stroke: #000000; stroke-width: 0.8"/>
      </g>
     </g>
     <g id="text_15">
      <!-- 20 -->
      <g transform="translate(22.857188 179.485403) scale(0.1 -0.1)">
       <use xlink:href="#ArialMT-32"/>
       <use xlink:href="#ArialMT-30" x="55.615234"/>
      </g>
     </g>
    </g>
    <g id="text_16">
     <!-- Connectivity -->
     <g transform="translate(14.962969 210.558661) rotate(-90) scale(0.09 -0.09)">
      <defs>
       <path id="Arial-BoldMT-43" d="M 3397 1684 
L 4294 1400 
Q 4088 650 3608 286 
Q 3128 -78 2391 -78 
Q 1478 -78 890 545 
Q 303 1169 303 2250 
Q 303 3394 893 4026 
Q 1484 4659 2447 4659 
Q 3288 4659 3813 4163 
Q 4125 3869 4281 3319 
L 3366 3100 
Q 3284 3456 3026 3662 
Q 2769 3869 2400 3869 
Q 1891 3869 1573 3503 
Q 1256 3138 1256 2319 
Q 1256 1450 1568 1081 
Q 1881 713 2381 713 
Q 2750 713 3015 947 
Q 3281 1181 3397 1684 
z
" transform="scale(0.015625)"/>
       <path id="Arial-BoldMT-76" d="M 1372 0 
L 34 3319 
L 956 3319 
L 1581 1625 
L 1763 1059 
Q 1834 1275 1853 1344 
Q 1897 1484 1947 1625 
L 2578 3319 
L 3481 3319 
L 2163 0 
L 1372 0 
z
" transform="scale(0.015625)"/>
       <path id="Arial-BoldMT-79" d="M 44 3319 
L 978 3319 
L 1772 963 
L 2547 3319 
L 3456 3319 
L 2284 125 
L 2075 -453 
Q 1959 -744 1854 -897 
Q 1750 -1050 1614 -1145 
Q 1478 -1241 1279 -1294 
Q 1081 -1347 831 -1347 
Q 578 -1347 334 -1294 
L 256 -606 
Q 463 -647 628 -647 
Q 934 -647 1081 -467 
Q 1228 -288 1306 -9 
L 44 3319 
z
" transform="scale(0.015625)"/>
      </defs>
      <use xlink:href="#Arial-BoldMT-43"/>
      <use xlink:href="#Arial-BoldMT-6f" x="72.216797"/>
      <use xlink:href="#Arial-BoldMT-6e" x="133.300781"/>
      <use xlink:href="#Arial-BoldMT-6e" x="194.384766"/>
      <use xlink:href="#Arial-BoldMT-65" x="255.46875"/>
      <use xlink:href="#Arial-BoldMT-63" x="311.083984"/>
      <use xlink:href="#Arial-BoldMT-74" x="366.699219"/>
      <use xlink:href="#Arial-BoldMT-69" x="400"/>
      <use xlink:href="#Arial-BoldMT-76" x="427.783203"/>
      <use xlink:href="#Arial-BoldMT-69" x="483.398438"/>
      <use xlink:href="#Arial-BoldMT-74" x="511.181641"/>
      <use xlink:href="#Arial-BoldMT-79" x="544.482422"/>
     </g>
    </g>
   </g>
   <g id="line2d_41">
    <path d="M 51.441563 196.024793 
L 52.836562 196.024793 
M 52.139063 196.024793 
L 52.139063 169.346182 
M 51.441563 169.346182 
L 52.836562 169.346182 
" clip-path="url(#pc63cc34fb6)" style="fill: none; stroke: #000000; stroke-width: 1.5; stroke-linecap: square"/>
   </g>
   <g id="line2d_42">
    <path d="M 107.241563 189.482702 
L 108.636562 189.482702 
M 107.939063 189.482702 
L 107.939063 175.323357 
M 107.241563 175.323357 
L 108.636562 175.323357 
" clip-path="url(#pc63cc34fb6)" style="fill: none; stroke: #000000; stroke-width: 1.5; stroke-linecap: square"/>
   </g>
   <g id="line2d_43">
    <path d="M 62.601563 195.733224 
L 63.996563 195.733224 
M 63.299063 195.733224 
L 63.299063 170.075106 
M 62.601563 170.075106 
L 63.996563 170.075106 
" clip-path="url(#pc63cc34fb6)" style="fill: none; stroke: #000000; stroke-width: 1.5; stroke-linecap: square"/>
   </g>
   <g id="line2d_44">
    <path d="M 118.401563 190.339188 
L 119.796562 190.339188 
M 119.099063 190.339188 
L 119.099063 175.906497 
M 118.401563 175.906497 
L 119.796562 175.906497 
" clip-path="url(#pc63cc34fb6)" style="fill: none; stroke: #000000; stroke-width: 1.5; stroke-linecap: square"/>
   </g>
   <g id="line2d_45">
    <path d="M 73.761562 201.856184 
L 75.156563 201.856184 
M 74.459063 201.856184 
L 74.459063 193.838022 
M 73.761562 193.838022 
L 75.156563 193.838022 
" clip-path="url(#pc63cc34fb6)" style="fill: none; stroke: #000000; stroke-width: 1.5; stroke-linecap: square"/>
   </g>
   <g id="line2d_46">
    <path d="M 129.561563 197.202005 
L 130.956563 197.202005 
M 130.259062 197.202005 
L 130.259062 173.136586 
M 129.561563 173.136586 
L 130.956563 173.136586 
" clip-path="url(#pc63cc34fb6)" style="fill: none; stroke: #000000; stroke-width: 1.5; stroke-linecap: square"/>
   </g>
   <g id="line2d_47">
    <path d="M 84.921563 200.988764 
L 86.316563 200.988764 
M 85.619063 200.988764 
L 85.619063 191.94282 
M 84.921563 191.94282 
L 86.316563 191.94282 
" clip-path="url(#pc63cc34fb6)" style="fill: none; stroke: #000000; stroke-width: 1.5; stroke-linecap: square"/>
   </g>
   <g id="line2d_48">
    <path d="M 140.721563 196.170578 
L 142.116562 196.170578 
M 141.419062 196.170578 
L 141.419062 164.097931 
M 140.721563 164.097931 
L 142.116562 164.097931 
" clip-path="url(#pc63cc34fb6)" style="fill: none; stroke: #000000; stroke-width: 1.5; stroke-linecap: square"/>
   </g>
   <g id="patch_58">
    <path d="M 40.979063 205.063448 
L 40.979063 162.049655 
" style="fill: none; stroke: #000000; stroke-linejoin: miter; stroke-linecap: square"/>
   </g>
   <g id="patch_59">
    <path d="M 152.579062 205.063448 
L 152.579062 162.049655 
" style="fill: none; stroke: #000000; stroke-linejoin: miter; stroke-linecap: square"/>
   </g>
   <g id="patch_60">
    <path d="M 40.979063 205.063448 
L 152.579062 205.063448 
" style="fill: none; stroke: #000000; stroke-linejoin: miter; stroke-linecap: square"/>
   </g>
   <g id="patch_61">
    <path d="M 40.979063 162.049655 
L 152.579062 162.049655 
" style="fill: none; stroke: #000000; stroke-linejoin: miter; stroke-linecap: square"/>
   </g>
  </g>
  <g id="axes_5">
   <g id="patch_62">
    <path d="M 40.979063 256.68 
L 152.579062 256.68 
L 152.579062 213.666207 
L 40.979063 213.666207 
L 40.979063 256.68 
z
" style="fill: none"/>
   </g>
   <g id="patch_63">
    <path d="M 46.559063 256.68 
L 57.719062 256.68 
L 57.719062 227.114389 
L 46.559063 227.114389 
z
" clip-path="url(#p63940227bf)" style="fill: #93bbd2"/>
   </g>
   <g id="patch_64">
    <path d="M 102.359062 256.68 
L 113.519062 256.68 
L 113.519062 222.294917 
L 102.359062 222.294917 
z
" clip-path="url(#p63940227bf)" style="fill: #93bbd2"/>
   </g>
   <g id="patch_65">
    <path d="M 57.719063 256.68 
L 68.879063 256.68 
L 68.879063 237.216745 
L 57.719063 237.216745 
z
" clip-path="url(#p63940227bf)" style="fill: #629abe"/>
   </g>
   <g id="patch_66">
    <path d="M 113.519063 256.68 
L 124.679063 256.68 
L 124.679063 230.265583 
L 113.519063 230.265583 
z
" clip-path="url(#p63940227bf)" style="fill: #629abe"/>
   </g>
   <g id="patch_67">
    <path d="M 68.879063 256.68 
L 80.039062 256.68 
L 80.039062 245.55814 
L 68.879063 245.55814 
z
" clip-path="url(#p63940227bf)" style="fill: #3c78a8"/>
   </g>
   <g id="patch_68">
    <path d="M 124.679063 256.68 
L 135.839063 256.68 
L 135.839063 252.694667 
L 124.679063 252.694667 
z
" clip-path="url(#p63940227bf)" style="fill: #3c78a8"/>
   </g>
   <g id="patch_69">
    <path d="M 80.039062 256.68 
L 91.199062 256.68 
L 91.199062 251.582481 
L 80.039062 251.582481 
z
" clip-path="url(#p63940227bf)" style="fill: #1e558d"/>
   </g>
   <g id="patch_70">
    <path d="M 135.839063 256.68 
L 146.999063 256.68 
L 146.999063 253.621489 
L 135.839063 253.621489 
z
" clip-path="url(#p63940227bf)" style="fill: #1e558d"/>
   </g>
   <g id="matplotlib.axis_9">
    <g id="xtick_9">
     <g id="line2d_49">
      <g>
       <use xlink:href="#m5172b378ab" x="68.879063" y="256.68" style="stroke: #000000; stroke-width: 0.8"/>
      </g>
     </g>
     <g id="text_17">
      <!-- ecGEM -->
      <g transform="translate(53.624063 270.122031) scale(0.09 -0.09)">
       <defs>
        <path id="Arial-BoldMT-47" d="M 2597 1684 
L 2597 2456 
L 4591 2456 
L 4591 631 
Q 4300 350 3748 136 
Q 3197 -78 2631 -78 
Q 1913 -78 1378 223 
Q 844 525 575 1086 
Q 306 1647 306 2306 
Q 306 3022 606 3578 
Q 906 4134 1484 4431 
Q 1925 4659 2581 4659 
Q 3434 4659 3914 4301 
Q 4394 3944 4531 3313 
L 3613 3141 
Q 3516 3478 3248 3673 
Q 2981 3869 2581 3869 
Q 1975 3869 1617 3484 
Q 1259 3100 1259 2344 
Q 1259 1528 1621 1120 
Q 1984 713 2572 713 
Q 2863 713 3155 827 
Q 3447 941 3656 1103 
L 3656 1684 
L 2597 1684 
z
" transform="scale(0.015625)"/>
        <path id="Arial-BoldMT-45" d="M 466 0 
L 466 4581 
L 3863 4581 
L 3863 3806 
L 1391 3806 
L 1391 2791 
L 3691 2791 
L 3691 2019 
L 1391 2019 
L 1391 772 
L 3950 772 
L 3950 0 
L 466 0 
z
" transform="scale(0.015625)"/>
        <path id="Arial-BoldMT-4d" d="M 453 0 
L 453 4581 
L 1838 4581 
L 2669 1456 
L 3491 4581 
L 4878 4581 
L 4878 0 
L 4019 0 
L 4019 3606 
L 3109 0 
L 2219 0 
L 1313 3606 
L 1313 0 
L 453 0 
z
" transform="scale(0.015625)"/>
       </defs>
       <use xlink:href="#Arial-BoldMT-65"/>
       <use xlink:href="#Arial-BoldMT-63" x="55.615234"/>
       <use xlink:href="#Arial-BoldMT-47" x="111.230469"/>
       <use xlink:href="#Arial-BoldMT-45" x="189.013672"/>
       <use xlink:href="#Arial-BoldMT-4d" x="255.712891"/>
      </g>
     </g>
    </g>
    <g id="xtick_10">
     <g id="line2d_50">
      <g>
       <use xlink:href="#m5172b378ab" x="124.679063" y="256.68" style="stroke: #000000; stroke-width: 0.8"/>
      </g>
     </g>
     <g id="text_18">
      <!-- EFL -->
      <g transform="translate(116.180391 270.122031) scale(0.09 -0.09)">
       <defs>
        <path id="Arial-BoldMT-46" d="M 472 0 
L 472 4581 
L 3613 4581 
L 3613 3806 
L 1397 3806 
L 1397 2722 
L 3309 2722 
L 3309 1947 
L 1397 1947 
L 1397 0 
L 472 0 
z
" transform="scale(0.015625)"/>
        <path id="Arial-BoldMT-4c" d="M 491 0 
L 491 4544 
L 1416 4544 
L 1416 772 
L 3716 772 
L 3716 0 
L 491 0 
z
" transform="scale(0.015625)"/>
       </defs>
       <use xlink:href="#Arial-BoldMT-45"/>
       <use xlink:href="#Arial-BoldMT-46" x="66.699219"/>
       <use xlink:href="#Arial-BoldMT-4c" x="127.783203"/>
      </g>
     </g>
    </g>
   </g>
   <g id="matplotlib.axis_10">
    <g id="ytick_9">
     <g id="line2d_51">
      <g>
       <use xlink:href="#mcddc8a17c3" x="40.979063" y="256.68" style="stroke: #000000; stroke-width: 0.8"/>
      </g>
     </g>
     <g id="text_19">
      <!-- 0 -->
      <g transform="translate(28.418125 260.258906) scale(0.1 -0.1)">
       <use xlink:href="#ArialMT-30"/>
      </g>
     </g>
    </g>
    <g id="ytick_10">
     <g id="line2d_52">
      <g>
       <use xlink:href="#mcddc8a17c3" x="40.979063" y="233.509459" style="stroke: #000000; stroke-width: 0.8"/>
      </g>
     </g>
     <g id="text_20">
      <!-- 50 -->
      <g transform="translate(22.857188 237.088365) scale(0.1 -0.1)">
       <use xlink:href="#ArialMT-35"/>
       <use xlink:href="#ArialMT-30" x="55.615234"/>
      </g>
     </g>
    </g>
    <g id="text_21">
     <!-- Targets -->
     <g transform="translate(14.962969 251.095369) rotate(-90) scale(0.09 -0.09)">
      <defs>
       <path id="Arial-BoldMT-54" d="M 1497 0 
L 1497 3806 
L 138 3806 
L 138 4581 
L 3778 4581 
L 3778 3806 
L 2422 3806 
L 2422 0 
L 1497 0 
z
" transform="scale(0.015625)"/>
       <path id="Arial-BoldMT-67" d="M 378 -219 
L 1381 -341 
Q 1406 -516 1497 -581 
Q 1622 -675 1891 -675 
Q 2234 -675 2406 -572 
Q 2522 -503 2581 -350 
Q 2622 -241 2622 53 
L 2622 538 
Q 2228 0 1628 0 
Q 959 0 569 566 
Q 263 1013 263 1678 
Q 263 2513 664 2953 
Q 1066 3394 1663 3394 
Q 2278 3394 2678 2853 
L 2678 3319 
L 3500 3319 
L 3500 341 
Q 3500 -247 3403 -537 
Q 3306 -828 3131 -993 
Q 2956 -1159 2664 -1253 
Q 2372 -1347 1925 -1347 
Q 1081 -1347 728 -1058 
Q 375 -769 375 -325 
Q 375 -281 378 -219 
z
M 1163 1728 
Q 1163 1200 1367 954 
Q 1572 709 1872 709 
Q 2194 709 2416 961 
Q 2638 1213 2638 1706 
Q 2638 2222 2425 2472 
Q 2213 2722 1888 2722 
Q 1572 2722 1367 2476 
Q 1163 2231 1163 1728 
z
" transform="scale(0.015625)"/>
      </defs>
      <use xlink:href="#Arial-BoldMT-54"/>
      <use xlink:href="#Arial-BoldMT-61" x="53.708984"/>
      <use xlink:href="#Arial-BoldMT-72" x="109.324219"/>
      <use xlink:href="#Arial-BoldMT-67" x="148.240234"/>
      <use xlink:href="#Arial-BoldMT-65" x="209.324219"/>
      <use xlink:href="#Arial-BoldMT-74" x="264.939453"/>
      <use xlink:href="#Arial-BoldMT-73" x="298.240234"/>
     </g>
    </g>
   </g>
   <g id="line2d_53">
    <path d="M 51.441563 237.587474 
L 52.836562 237.587474 
M 52.139063 237.587474 
L 52.139063 216.07826 
M 51.441563 216.07826 
L 52.836562 216.07826 
" clip-path="url(#p63940227bf)" style="fill: none; stroke: #000000; stroke-width: 1.5; stroke-linecap: square"/>
   </g>
   <g id="line2d_54">
    <path d="M 107.241563 228.968032 
L 108.636562 228.968032 
M 107.939063 228.968032 
L 107.939063 215.714483 
M 107.241563 215.714483 
L 108.636562 215.714483 
" clip-path="url(#p63940227bf)" style="fill: none; stroke: #000000; stroke-width: 1.5; stroke-linecap: square"/>
   </g>
   <g id="line2d_55">
    <path d="M 62.601563 243.055722 
L 63.996563 243.055722 
M 63.299063 243.055722 
L 63.299063 231.748497 
M 62.601563 231.748497 
L 63.996563 231.748497 
" clip-path="url(#p63940227bf)" style="fill: none; stroke: #000000; stroke-width: 1.5; stroke-linecap: square"/>
   </g>
   <g id="line2d_56">
    <path d="M 118.401563 234.992373 
L 119.796562 234.992373 
M 119.099063 234.992373 
L 119.099063 224.797335 
M 118.401563 224.797335 
L 119.796562 224.797335 
" clip-path="url(#p63940227bf)" style="fill: none; stroke: #000000; stroke-width: 1.5; stroke-linecap: square"/>
   </g>
   <g id="line2d_57">
    <path d="M 73.761562 250.655659 
L 75.156563 250.655659 
M 74.459063 250.655659 
L 74.459063 240.460621 
M 73.761562 240.460621 
L 75.156563 240.460621 
" clip-path="url(#p63940227bf)" style="fill: none; stroke: #000000; stroke-width: 1.5; stroke-linecap: square"/>
   </g>
   <g id="line2d_58">
    <path d="M 129.561563 255.011721 
L 130.956563 255.011721 
M 130.259062 255.011721 
L 130.259062 250.006884 
M 129.561563 250.006884 
L 130.956563 250.006884 
" clip-path="url(#p63940227bf)" style="fill: none; stroke: #000000; stroke-width: 1.5; stroke-linecap: square"/>
   </g>
   <g id="line2d_59">
    <path d="M 84.921563 254.919039 
L 86.316563 254.919039 
M 85.619063 254.919039 
L 85.619063 247.868243 
M 84.921563 247.868243 
L 86.316563 247.868243 
" clip-path="url(#p63940227bf)" style="fill: none; stroke: #000000; stroke-width: 1.5; stroke-linecap: square"/>
   </g>
   <g id="line2d_60">
    <path d="M 140.721563 255.104403 
L 142.116562 255.104403 
M 141.419062 255.104403 
L 141.419062 252.138574 
M 140.721563 252.138574 
L 142.116562 252.138574 
" clip-path="url(#p63940227bf)" style="fill: none; stroke: #000000; stroke-width: 1.5; stroke-linecap: square"/>
   </g>
   <g id="patch_71">
    <path d="M 40.979063 256.68 
L 40.979063 213.666207 
" style="fill: none; stroke: #000000; stroke-linejoin: miter; stroke-linecap: square"/>
   </g>
   <g id="patch_72">
    <path d="M 152.579062 256.68 
L 152.579062 213.666207 
" style="fill: none; stroke: #000000; stroke-linejoin: miter; stroke-linecap: square"/>
   </g>
   <g id="patch_73">
    <path d="M 40.979063 256.68 
L 152.579062 256.68 
" style="fill: none; stroke: #000000; stroke-linejoin: miter; stroke-linecap: square"/>
   </g>
   <g id="patch_74">
    <path d="M 40.979063 213.666207 
L 152.579062 213.666207 
" style="fill: none; stroke: #000000; stroke-linejoin: miter; stroke-linecap: square"/>
   </g>
  </g>
 </g>
 <defs>
  <clipPath id="p3f7ed518b7">
   <rect x="40.979063" y="7.2" width="111.6" height="43.013793"/>
  </clipPath>
  <clipPath id="p8875f04e2c">
   <rect x="40.979063" y="58.816552" width="111.6" height="43.013793"/>
  </clipPath>
  <clipPath id="pae4cfc9208">
   <rect x="40.979063" y="110.433103" width="111.6" height="43.013793"/>
  </clipPath>
  <clipPath id="pc63cc34fb6">
   <rect x="40.979063" y="162.049655" width="111.6" height="43.013793"/>
  </clipPath>
  <clipPath id="p63940227bf">
   <rect x="40.979063" y="213.666207" width="111.6" height="43.013793"/>
  </clipPath>
 </defs>
</svg>
