<?xml version="1.0" encoding="utf-8" standalone="no"?>
<!DOCTYPE svg PUBLIC "-//W3C//DTD SVG 1.1//EN"
  "http://www.w3.org/Graphics/SVG/1.1/DTD/svg11.dtd">
<svg xmlns:xlink="http://www.w3.org/1999/xlink" width="200.883125pt" height="173.62398pt" viewBox="0 0 200.883125 173.62398" xmlns="http://www.w3.org/2000/svg" version="1.1">
 <metadata>
  <rdf:RDF xmlns:dc="http://purl.org/dc/elements/1.1/" xmlns:cc="http://creativecommons.org/ns#" xmlns:rdf="http://www.w3.org/1999/02/22-rdf-syntax-ns#">
   <cc:Work>
    <dc:type rdf:resource="http://purl.org/dc/dcmitype/StillImage"/>
    <dc:date>2025-11-10T20:15:32.596059</dc:date>
    <dc:format>image/svg+xml</dc:format>
    <dc:creator>
     <cc:Agent>
      <dc:title>Matplotlib v3.9.2, https://matplotlib.org/</dc:title>
     </cc:Agent>
    </dc:creator>
   </cc:Work>
  </rdf:RDF>
 </metadata>
 <defs>
  <style type="text/css">*{stroke-linejoin: round; stroke-linecap: butt}</style>
 </defs>
 <g id="figure_1">
  <g id="patch_1">
   <path d="M 0 173.62398 
L 200.883125 173.62398 
L 200.883125 0 
L 0 0 
L 0 173.62398 
z
" style="fill: none"/>
  </g>
  <g id="axes_1">
   <g id="patch_2">
    <path d="M 38.453125 150.29273 
L 193.683125 150.29273 
L 193.683125 10.199472 
L 38.453125 10.199472 
L 38.453125 150.29273 
z
" style="fill: none"/>
   </g>
   <g id="PolyCollection_1">
    <defs>
     <path id="m9cbde9e24e" d="M 78.905116 -80.539799 
L 75.616134 -80.539799 
L 75.324012 -81.312697 
L 74.991768 -82.085594 
L 74.616154 -82.858491 
L 74.194055 -83.631389 
L 73.722566 -84.404286 
L 73.199078 -85.177183 
L 72.621362 -85.95008 
L 71.987663 -86.722978 
L 71.296782 -87.495875 
L 70.548164 -88.268772 
L 69.741971 -89.04167 
L 68.879153 -89.814567 
L 67.961504 -90.587464 
L 66.9917 -91.360362 
L 65.973329 -92.133259 
L 64.910893 -92.906156 
L 63.809797 -93.679054 
L 62.676312 -94.451951 
L 61.517524 -95.224848 
L 60.34126 -95.997745 
L 59.155985 -96.770643 
L 57.970703 -97.54354 
L 56.794818 -98.316437 
L 55.638003 -99.089335 
L 54.510047 -99.862232 
L 53.420701 -100.635129 
L 52.379519 -101.408027 
L 51.395703 -102.180924 
L 50.477952 -102.953821 
L 49.634316 -103.726719 
L 48.872062 -104.499616 
L 48.19756 -105.272513 
L 47.616176 -106.04541 
L 47.132188 -106.818308 
L 46.748723 -107.591205 
L 46.467708 -108.364102 
L 46.289848 -109.137 
L 46.214625 -109.909897 
L 46.240311 -110.682794 
L 46.36401 -111.455692 
L 46.581708 -112.228589 
L 46.888356 -113.001486 
L 47.277955 -113.774384 
L 47.743665 -114.547281 
L 48.277924 -115.320178 
L 48.872582 -116.093075 
L 49.519043 -116.865973 
L 50.208418 -117.63887 
L 50.931677 -118.411767 
L 51.679814 -119.184665 
L 52.444005 -119.957562 
L 53.215766 -120.730459 
L 53.987108 -121.503357 
L 54.750679 -122.276254 
L 55.499893 -123.049151 
L 56.229046 -123.822049 
L 56.933409 -124.594946 
L 57.609297 -125.367843 
L 58.254115 -126.140741 
L 58.866375 -126.913638 
L 59.445677 -127.686535 
L 59.992673 -128.459432 
L 60.508986 -129.23233 
L 60.997113 -130.005227 
L 61.4603 -130.778124 
L 61.90239 -131.551022 
L 62.327667 -132.323919 
L 62.740677 -133.096816 
L 63.146051 -133.869714 
L 63.548334 -134.642611 
L 63.951812 -135.415508 
L 64.360363 -136.188406 
L 64.777323 -136.961303 
L 65.205381 -137.7342 
L 65.646494 -138.507097 
L 66.101841 -139.279995 
L 66.571804 -140.052892 
L 67.055978 -140.825789 
L 67.553211 -141.598687 
L 68.061672 -142.371584 
L 68.57894 -143.144481 
L 69.102103 -143.917379 
L 69.627883 -144.690276 
L 70.152755 -145.463173 
L 70.673072 -146.236071 
L 71.185189 -147.008968 
L 71.685572 -147.781865 
L 72.170904 -148.554762 
L 72.638169 -149.32766 
L 73.08472 -150.100557 
L 73.508332 -150.873454 
L 73.907233 -151.646352 
L 74.280122 -152.419249 
L 74.626166 -153.192146 
L 74.94498 -153.965044 
L 75.236604 -154.737941 
L 75.50146 -155.510838 
L 75.740308 -156.283736 
L 75.954192 -157.056633 
L 78.567058 -157.056633 
L 78.567058 -157.056633 
L 78.780942 -156.283736 
L 79.01979 -155.510838 
L 79.284646 -154.737941 
L 79.57627 -153.965044 
L 79.895084 -153.192146 
L 80.241128 -152.419249 
L 80.614017 -151.646352 
L 81.012918 -150.873454 
L 81.43653 -150.100557 
L 81.883081 -149.32766 
L 82.350346 -148.554762 
L 82.835678 -147.781865 
L 83.336061 -147.008968 
L 83.848178 -146.236071 
L 84.368495 -145.463173 
L 84.893367 -144.690276 
L 85.419147 -143.917379 
L 85.94231 -143.144481 
L 86.459578 -142.371584 
L 86.968039 -141.598687 
L 87.465272 -140.825789 
L 87.949446 -140.052892 
L 88.419409 -139.279995 
L 88.874756 -138.507097 
L 89.315869 -137.7342 
L 89.743927 -136.961303 
L 90.160887 -136.188406 
L 90.569438 -135.415508 
L 90.972916 -134.642611 
L 91.375199 -133.869714 
L 91.780573 -133.096816 
L 92.193583 -132.323919 
L 92.61886 -131.551022 
L 93.06095 -130.778124 
L 93.524137 -130.005227 
L 94.012264 -129.23233 
L 94.528577 -128.459432 
L 95.075573 -127.686535 
L 95.654875 -126.913638 
L 96.267135 -126.140741 
L 96.911953 -125.367843 
L 97.587841 -124.594946 
L 98.292204 -123.822049 
L 99.021357 -123.049151 
L 99.770571 -122.276254 
L 100.534142 -121.503357 
L 101.305484 -120.730459 
L 102.077245 -119.957562 
L 102.841436 -119.184665 
L 103.589573 -118.411767 
L 104.312832 -117.63887 
L 105.002207 -116.865973 
L 105.648668 -116.093075 
L 106.243326 -115.320178 
L 106.777585 -114.547281 
L 107.243295 -113.774384 
L 107.632894 -113.001486 
L 107.939542 -112.228589 
L 108.15724 -111.455692 
L 108.280939 -110.682794 
L 108.306625 -109.909897 
L 108.231402 -109.137 
L 108.053542 -108.364102 
L 107.772527 -107.591205 
L 107.389062 -106.818308 
L 106.905074 -106.04541 
L 106.32369 -105.272513 
L 105.649188 -104.499616 
L 104.886934 -103.726719 
L 104.043298 -102.953821 
L 103.125547 -102.180924 
L 102.141731 -101.408027 
L 101.100549 -100.635129 
L 100.011203 -99.862232 
L 98.883247 -99.089335 
L 97.726432 -98.316437 
L 96.550547 -97.54354 
L 95.365265 -96.770643 
L 94.17999 -95.997745 
L 93.003726 -95.224848 
L 91.844938 -94.451951 
L 90.711453 -93.679054 
L 89.610357 -92.906156 
L 88.547921 -92.133259 
L 87.52955 -91.360362 
L 86.559746 -90.587464 
L 85.642097 -89.814567 
L 84.779279 -89.04167 
L 83.973086 -88.268772 
L 83.224468 -87.495875 
L 82.533587 -86.722978 
L 81.899888 -85.95008 
L 81.322172 -85.177183 
L 80.798684 -84.404286 
L 80.327195 -83.631389 
L 79.905096 -82.858491 
L 79.529482 -82.085594 
L 79.197238 -81.312697 
L 78.905116 -80.539799 
z
" style="stroke: #3f3f3f; stroke-opacity: 0.6; stroke-width: 1.25"/>
    </defs>
    <g clip-path="url(#p0987301c13)">
     <use xlink:href="#m9cbde9e24e" x="0" y="173.62398" style="fill: #3274a1; fill-opacity: 0.6; stroke: #3f3f3f; stroke-opacity: 0.6; stroke-width: 1.25"/>
    </g>
   </g>
   <g id="PolyCollection_2">
    <defs>
     <path id="mbce7b7059f" d="M 158.137531 -29.699125 
L 151.613719 -29.699125 
L 151.108256 -30.13057 
L 150.54552 -30.562015 
L 149.922795 -30.99346 
L 149.237897 -31.424905 
L 148.489288 -31.85635 
L 147.676196 -32.287795 
L 146.798729 -32.71924 
L 145.857983 -33.150685 
L 144.856131 -33.58213 
L 143.796501 -34.013575 
L 142.68363 -34.44502 
L 141.523288 -34.876465 
L 140.322482 -35.30791 
L 139.089415 -35.739354 
L 137.833421 -36.170799 
L 136.56486 -36.602244 
L 135.294972 -37.033689 
L 134.035709 -37.465134 
L 132.799523 -37.896579 
L 131.599133 -38.328024 
L 130.447272 -38.759469 
L 129.356408 -39.190914 
L 128.338473 -39.622359 
L 127.404577 -40.053804 
L 126.564739 -40.485249 
L 125.827634 -40.916694 
L 125.200367 -41.348139 
L 124.688276 -41.779584 
L 124.294788 -42.211029 
L 124.021306 -42.642473 
L 123.867164 -43.073918 
L 123.829625 -43.505363 
L 123.903939 -43.936808 
L 124.083457 -44.368253 
L 124.359793 -44.799698 
L 124.723036 -45.231143 
L 125.162004 -45.662588 
L 125.664526 -46.094033 
L 126.217756 -46.525478 
L 126.808497 -46.956923 
L 127.423532 -47.388368 
L 128.049949 -47.819813 
L 128.675456 -48.251258 
L 129.288667 -48.682703 
L 129.879361 -49.114148 
L 130.438696 -49.545592 
L 130.959389 -49.977037 
L 131.43584 -50.408482 
L 131.864208 -50.839927 
L 132.242438 -51.271372 
L 132.570238 -51.702817 
L 132.849004 -52.134262 
L 133.081711 -52.565707 
L 133.272756 -52.997152 
L 133.42777 -53.428597 
L 133.553416 -53.860042 
L 133.657146 -54.291487 
L 133.746973 -54.722932 
L 133.831213 -55.154377 
L 133.918251 -55.585822 
L 134.016307 -56.017267 
L 134.133211 -56.448711 
L 134.276217 -56.880156 
L 134.451822 -57.311601 
L 134.665627 -57.743046 
L 134.922222 -58.174491 
L 135.225106 -58.605936 
L 135.576639 -59.037381 
L 135.978023 -59.468826 
L 136.429317 -59.900271 
L 136.929481 -60.331716 
L 137.47644 -60.763161 
L 138.067176 -61.194606 
L 138.697838 -61.626051 
L 139.363859 -62.057496 
L 140.060095 -62.488941 
L 140.780963 -62.920385 
L 141.520576 -63.35183 
L 142.272893 -63.783275 
L 143.031841 -64.21472 
L 143.791452 -64.646165 
L 144.545968 -65.07761 
L 145.289949 -65.509055 
L 146.018355 -65.9405 
L 146.726618 -66.371945 
L 147.410699 -66.80339 
L 148.06712 -67.234835 
L 148.69299 -67.66628 
L 149.286011 -68.097725 
L 149.844468 -68.52917 
L 150.367212 -68.960615 
L 150.853629 -69.39206 
L 151.303602 -69.823504 
L 151.717461 -70.254949 
L 152.095936 -70.686394 
L 152.4401 -71.117839 
L 152.751318 -71.549284 
L 153.031185 -71.980729 
L 153.281478 -72.412174 
L 156.469772 -72.412174 
L 156.469772 -72.412174 
L 156.720065 -71.980729 
L 156.999932 -71.549284 
L 157.31115 -71.117839 
L 157.655314 -70.686394 
L 158.033789 -70.254949 
L 158.447648 -69.823504 
L 158.897621 -69.39206 
L 159.384038 -68.960615 
L 159.906782 -68.52917 
L 160.465239 -68.097725 
L 161.05826 -67.66628 
L 161.68413 -67.234835 
L 162.340551 -66.80339 
L 163.024632 -66.371945 
L 163.732895 -65.9405 
L 164.461301 -65.509055 
L 165.205282 -65.07761 
L 165.959798 -64.646165 
L 166.719409 -64.21472 
L 167.478357 -63.783275 
L 168.230674 -63.35183 
L 168.970287 -62.920385 
L 169.691155 -62.488941 
L 170.387391 -62.057496 
L 171.053412 -61.626051 
L 171.684074 -61.194606 
L 172.27481 -60.763161 
L 172.821769 -60.331716 
L 173.321933 -59.900271 
L 173.773227 -59.468826 
L 174.174611 -59.037381 
L 174.526144 -58.605936 
L 174.829028 -58.174491 
L 175.085623 -57.743046 
L 175.299428 -57.311601 
L 175.475033 -56.880156 
L 175.618039 -56.448711 
L 175.734943 -56.017267 
L 175.832999 -55.585822 
L 175.920037 -55.154377 
L 176.004277 -54.722932 
L 176.094104 -54.291487 
L 176.197834 -53.860042 
L 176.32348 -53.428597 
L 176.478494 -52.997152 
L 176.669539 -52.565707 
L 176.902246 -52.134262 
L 177.181012 -51.702817 
L 177.508812 -51.271372 
L 177.887042 -50.839927 
L 178.31541 -50.408482 
L 178.791861 -49.977037 
L 179.312554 -49.545592 
L 179.871889 -49.114148 
L 180.462583 -48.682703 
L 181.075794 -48.251258 
L 181.701301 -47.819813 
L 182.327718 -47.388368 
L 182.942753 -46.956923 
L 183.533494 -46.525478 
L 184.086724 -46.094033 
L 184.589246 -45.662588 
L 185.028214 -45.231143 
L 185.391457 -44.799698 
L 185.667793 -44.368253 
L 185.847311 -43.936808 
L 185.921625 -43.505363 
L 185.884086 -43.073918 
L 185.729944 -42.642473 
L 185.456462 -42.211029 
L 185.062974 -41.779584 
L 184.550883 -41.348139 
L 183.923616 -40.916694 
L 183.186511 -40.485249 
L 182.346673 -40.053804 
L 181.412777 -39.622359 
L 180.394842 -39.190914 
L 179.303978 -38.759469 
L 178.152117 -38.328024 
L 176.951727 -37.896579 
L 175.715541 -37.465134 
L 174.456278 -37.033689 
L 173.18639 -36.602244 
L 171.917829 -36.170799 
L 170.661835 -35.739354 
L 169.428768 -35.30791 
L 168.227962 -34.876465 
L 167.06762 -34.44502 
L 165.954749 -34.013575 
L 164.895119 -33.58213 
L 163.893267 -33.150685 
L 162.952521 -32.71924 
L 162.075054 -32.287795 
L 161.261962 -31.85635 
L 160.513353 -31.424905 
L 159.828455 -30.99346 
L 159.20573 -30.562015 
L 158.642994 -30.13057 
L 158.137531 -29.699125 
z
" style="stroke: #3f3f3f; stroke-opacity: 0.6; stroke-width: 1.25"/>
    </defs>
    <g clip-path="url(#p0987301c13)">
     <use xlink:href="#mbce7b7059f" x="0" y="173.62398" style="fill: #df7f20; fill-opacity: 0.6; stroke: #3f3f3f; stroke-opacity: 0.6; stroke-width: 1.25"/>
    </g>
   </g>
   <g id="matplotlib.axis_1">
    <g id="xtick_1">
     <g id="line2d_1">
      <defs>
       <path id="m9f330e70b1" d="M 0 0 
L 0 3.5 
" style="stroke: #000000; stroke-width: 0.8"/>
      </defs>
      <g>
       <use xlink:href="#m9f330e70b1" x="77.260625" y="150.29273" style="stroke: #000000; stroke-width: 0.8"/>
      </g>
     </g>
     <g id="text_1">
      <!-- Flux level -->
      <g transform="translate(54.474688 164.450543) scale(0.1 -0.1)">
       <defs>
        <path id="Arial-BoldMT-46" d="M 472 0 
L 472 4581 
L 3613 4581 
L 3613 3806 
L 1397 3806 
L 1397 2722 
L 3309 2722 
L 3309 1947 
L 1397 1947 
L 1397 0 
L 472 0 
z
" transform="scale(0.015625)"/>
        <path id="Arial-BoldMT-6c" d="M 459 0 
L 459 4581 
L 1338 4581 
L 1338 0 
L 459 0 
z
" transform="scale(0.015625)"/>
        <path id="Arial-BoldMT-75" d="M 2644 0 
L 2644 497 
Q 2463 231 2167 78 
Q 1872 -75 1544 -75 
Q 1209 -75 943 72 
Q 678 219 559 484 
Q 441 750 441 1219 
L 441 3319 
L 1319 3319 
L 1319 1794 
Q 1319 1094 1367 936 
Q 1416 778 1544 686 
Q 1672 594 1869 594 
Q 2094 594 2272 717 
Q 2450 841 2515 1023 
Q 2581 1206 2581 1919 
L 2581 3319 
L 3459 3319 
L 3459 0 
L 2644 0 
z
" transform="scale(0.015625)"/>
        <path id="Arial-BoldMT-78" d="M 38 0 
L 1234 1709 
L 88 3319 
L 1159 3319 
L 1747 2406 
L 2366 3319 
L 3397 3319 
L 2272 1747 
L 3500 0 
L 2422 0 
L 1747 1028 
L 1066 0 
L 38 0 
z
" transform="scale(0.015625)"/>
        <path id="Arial-BoldMT-20" transform="scale(0.015625)"/>
        <path id="Arial-BoldMT-65" d="M 2381 1056 
L 3256 909 
Q 3088 428 2723 176 
Q 2359 -75 1813 -75 
Q 947 -75 531 491 
Q 203 944 203 1634 
Q 203 2459 634 2926 
Q 1066 3394 1725 3394 
Q 2466 3394 2894 2905 
Q 3322 2416 3303 1406 
L 1103 1406 
Q 1113 1016 1316 798 
Q 1519 581 1822 581 
Q 2028 581 2168 693 
Q 2309 806 2381 1056 
z
M 2431 1944 
Q 2422 2325 2234 2523 
Q 2047 2722 1778 2722 
Q 1491 2722 1303 2513 
Q 1116 2303 1119 1944 
L 2431 1944 
z
" transform="scale(0.015625)"/>
        <path id="Arial-BoldMT-76" d="M 1372 0 
L 34 3319 
L 956 3319 
L 1581 1625 
L 1763 1059 
Q 1834 1275 1853 1344 
Q 1897 1484 1947 1625 
L 2578 3319 
L 3481 3319 
L 2163 0 
L 1372 0 
z
" transform="scale(0.015625)"/>
       </defs>
       <use xlink:href="#Arial-BoldMT-46"/>
       <use xlink:href="#Arial-BoldMT-6c" x="61.083984"/>
       <use xlink:href="#Arial-BoldMT-75" x="88.867188"/>
       <use xlink:href="#Arial-BoldMT-78" x="149.951172"/>
       <use xlink:href="#Arial-BoldMT-20" x="205.566406"/>
       <use xlink:href="#Arial-BoldMT-6c" x="233.349609"/>
       <use xlink:href="#Arial-BoldMT-65" x="261.132812"/>
       <use xlink:href="#Arial-BoldMT-76" x="316.748047"/>
       <use xlink:href="#Arial-BoldMT-65" x="372.363281"/>
       <use xlink:href="#Arial-BoldMT-6c" x="427.978516"/>
      </g>
     </g>
    </g>
    <g id="xtick_2">
     <g id="line2d_2">
      <g>
       <use xlink:href="#m9f330e70b1" x="154.875625" y="150.29273" style="stroke: #000000; stroke-width: 0.8"/>
      </g>
     </g>
     <g id="text_2">
      <!-- Protein level -->
      <g transform="translate(125.143594 164.450543) scale(0.1 -0.1)">
       <defs>
        <path id="Arial-BoldMT-50" d="M 466 0 
L 466 4581 
L 1950 4581 
Q 2794 4581 3050 4513 
Q 3444 4409 3709 4064 
Q 3975 3719 3975 3172 
Q 3975 2750 3822 2462 
Q 3669 2175 3433 2011 
Q 3197 1847 2953 1794 
Q 2622 1728 1994 1728 
L 1391 1728 
L 1391 0 
L 466 0 
z
M 1391 3806 
L 1391 2506 
L 1897 2506 
Q 2444 2506 2628 2578 
Q 2813 2650 2917 2803 
Q 3022 2956 3022 3159 
Q 3022 3409 2875 3571 
Q 2728 3734 2503 3775 
Q 2338 3806 1838 3806 
L 1391 3806 
z
" transform="scale(0.015625)"/>
        <path id="Arial-BoldMT-72" d="M 1300 0 
L 422 0 
L 422 3319 
L 1238 3319 
L 1238 2847 
Q 1447 3181 1614 3287 
Q 1781 3394 1994 3394 
Q 2294 3394 2572 3228 
L 2300 2463 
Q 2078 2606 1888 2606 
Q 1703 2606 1575 2504 
Q 1447 2403 1373 2137 
Q 1300 1872 1300 1025 
L 1300 0 
z
" transform="scale(0.015625)"/>
        <path id="Arial-BoldMT-6f" d="M 256 1706 
Q 256 2144 472 2553 
Q 688 2963 1083 3178 
Q 1478 3394 1966 3394 
Q 2719 3394 3200 2905 
Q 3681 2416 3681 1669 
Q 3681 916 3195 420 
Q 2709 -75 1972 -75 
Q 1516 -75 1102 131 
Q 688 338 472 736 
Q 256 1134 256 1706 
z
M 1156 1659 
Q 1156 1166 1390 903 
Q 1625 641 1969 641 
Q 2313 641 2545 903 
Q 2778 1166 2778 1666 
Q 2778 2153 2545 2415 
Q 2313 2678 1969 2678 
Q 1625 2678 1390 2415 
Q 1156 2153 1156 1659 
z
" transform="scale(0.015625)"/>
        <path id="Arial-BoldMT-74" d="M 1981 3319 
L 1981 2619 
L 1381 2619 
L 1381 1281 
Q 1381 875 1398 808 
Q 1416 741 1477 697 
Q 1538 653 1625 653 
Q 1747 653 1978 738 
L 2053 56 
Q 1747 -75 1359 -75 
Q 1122 -75 931 4 
Q 741 84 652 211 
Q 563 338 528 553 
Q 500 706 500 1172 
L 500 2619 
L 97 2619 
L 97 3319 
L 500 3319 
L 500 3978 
L 1381 4491 
L 1381 3319 
L 1981 3319 
z
" transform="scale(0.015625)"/>
        <path id="Arial-BoldMT-69" d="M 459 3769 
L 459 4581 
L 1338 4581 
L 1338 3769 
L 459 3769 
z
M 459 0 
L 459 3319 
L 1338 3319 
L 1338 0 
L 459 0 
z
" transform="scale(0.015625)"/>
        <path id="Arial-BoldMT-6e" d="M 3478 0 
L 2600 0 
L 2600 1694 
Q 2600 2231 2544 2389 
Q 2488 2547 2361 2634 
Q 2234 2722 2056 2722 
Q 1828 2722 1647 2597 
Q 1466 2472 1398 2265 
Q 1331 2059 1331 1503 
L 1331 0 
L 453 0 
L 453 3319 
L 1269 3319 
L 1269 2831 
Q 1703 3394 2363 3394 
Q 2653 3394 2893 3289 
Q 3134 3184 3257 3021 
Q 3381 2859 3429 2653 
Q 3478 2447 3478 2063 
L 3478 0 
z
" transform="scale(0.015625)"/>
       </defs>
       <use xlink:href="#Arial-BoldMT-50"/>
       <use xlink:href="#Arial-BoldMT-72" x="66.699219"/>
       <use xlink:href="#Arial-BoldMT-6f" x="105.615234"/>
       <use xlink:href="#Arial-BoldMT-74" x="166.699219"/>
       <use xlink:href="#Arial-BoldMT-65" x="200"/>
       <use xlink:href="#Arial-BoldMT-69" x="255.615234"/>
       <use xlink:href="#Arial-BoldMT-6e" x="283.398438"/>
       <use xlink:href="#Arial-BoldMT-20" x="344.482422"/>
       <use xlink:href="#Arial-BoldMT-6c" x="372.265625"/>
       <use xlink:href="#Arial-BoldMT-65" x="400.048828"/>
       <use xlink:href="#Arial-BoldMT-76" x="455.664062"/>
       <use xlink:href="#Arial-BoldMT-65" x="511.279297"/>
       <use xlink:href="#Arial-BoldMT-6c" x="566.894531"/>
      </g>
     </g>
    </g>
   </g>
   <g id="matplotlib.axis_2">
    <g id="ytick_1">
     <g id="line2d_3">
      <defs>
       <path id="me21d8991ec" d="M 0 0 
L -3.5 0 
" style="stroke: #000000; stroke-width: 0.8"/>
      </defs>
      <g>
       <use xlink:href="#me21d8991ec" x="38.453125" y="143.764827" style="stroke: #000000; stroke-width: 0.8"/>
      </g>
     </g>
     <g id="text_3">
      <!-- 8 -->
      <g transform="translate(25.892187 147.343733) scale(0.1 -0.1)">
       <defs>
        <path id="ArialMT-38" d="M 1131 2484 
Q 781 2613 612 2850 
Q 444 3088 444 3419 
Q 444 3919 803 4259 
Q 1163 4600 1759 4600 
Q 2359 4600 2725 4251 
Q 3091 3903 3091 3403 
Q 3091 3084 2923 2848 
Q 2756 2613 2416 2484 
Q 2838 2347 3058 2040 
Q 3278 1734 3278 1309 
Q 3278 722 2862 322 
Q 2447 -78 1769 -78 
Q 1091 -78 675 323 
Q 259 725 259 1325 
Q 259 1772 486 2073 
Q 713 2375 1131 2484 
z
M 1019 3438 
Q 1019 3113 1228 2906 
Q 1438 2700 1772 2700 
Q 2097 2700 2305 2904 
Q 2513 3109 2513 3406 
Q 2513 3716 2298 3927 
Q 2084 4138 1766 4138 
Q 1444 4138 1231 3931 
Q 1019 3725 1019 3438 
z
M 838 1322 
Q 838 1081 952 856 
Q 1066 631 1291 507 
Q 1516 384 1775 384 
Q 2178 384 2440 643 
Q 2703 903 2703 1303 
Q 2703 1709 2433 1975 
Q 2163 2241 1756 2241 
Q 1359 2241 1098 1978 
Q 838 1716 838 1322 
z
" transform="scale(0.015625)"/>
       </defs>
       <use xlink:href="#ArialMT-38"/>
      </g>
     </g>
    </g>
    <g id="ytick_2">
     <g id="line2d_4">
      <g>
       <use xlink:href="#me21d8991ec" x="38.453125" y="121.600507" style="stroke: #000000; stroke-width: 0.8"/>
      </g>
     </g>
     <g id="text_4">
      <!-- 10 -->
      <g transform="translate(20.33125 125.179413) scale(0.1 -0.1)">
       <defs>
        <path id="ArialMT-31" d="M 2384 0 
L 1822 0 
L 1822 3584 
Q 1619 3391 1289 3197 
Q 959 3003 697 2906 
L 697 3450 
Q 1169 3672 1522 3987 
Q 1875 4303 2022 4600 
L 2384 4600 
L 2384 0 
z
" transform="scale(0.015625)"/>
        <path id="ArialMT-30" d="M 266 2259 
Q 266 3072 433 3567 
Q 600 4063 929 4331 
Q 1259 4600 1759 4600 
Q 2128 4600 2406 4451 
Q 2684 4303 2865 4023 
Q 3047 3744 3150 3342 
Q 3253 2941 3253 2259 
Q 3253 1453 3087 958 
Q 2922 463 2592 192 
Q 2263 -78 1759 -78 
Q 1097 -78 719 397 
Q 266 969 266 2259 
z
M 844 2259 
Q 844 1131 1108 757 
Q 1372 384 1759 384 
Q 2147 384 2411 759 
Q 2675 1134 2675 2259 
Q 2675 3391 2411 3762 
Q 2147 4134 1753 4134 
Q 1366 4134 1134 3806 
Q 844 3388 844 2259 
z
" transform="scale(0.015625)"/>
       </defs>
       <use xlink:href="#ArialMT-31"/>
       <use xlink:href="#ArialMT-30" x="55.615234"/>
      </g>
     </g>
    </g>
    <g id="ytick_3">
     <g id="line2d_5">
      <g>
       <use xlink:href="#me21d8991ec" x="38.453125" y="99.436187" style="stroke: #000000; stroke-width: 0.8"/>
      </g>
     </g>
     <g id="text_5">
      <!-- 12 -->
      <g transform="translate(20.33125 103.015093) scale(0.1 -0.1)">
       <defs>
        <path id="ArialMT-32" d="M 3222 541 
L 3222 0 
L 194 0 
Q 188 203 259 391 
Q 375 700 629 1000 
Q 884 1300 1366 1694 
Q 2113 2306 2375 2664 
Q 2638 3022 2638 3341 
Q 2638 3675 2398 3904 
Q 2159 4134 1775 4134 
Q 1369 4134 1125 3890 
Q 881 3647 878 3216 
L 300 3275 
Q 359 3922 746 4261 
Q 1134 4600 1788 4600 
Q 2447 4600 2831 4234 
Q 3216 3869 3216 3328 
Q 3216 3053 3103 2787 
Q 2991 2522 2730 2228 
Q 2469 1934 1863 1422 
Q 1356 997 1212 845 
Q 1069 694 975 541 
L 3222 541 
z
" transform="scale(0.015625)"/>
       </defs>
       <use xlink:href="#ArialMT-31"/>
       <use xlink:href="#ArialMT-32" x="55.615234"/>
      </g>
     </g>
    </g>
    <g id="ytick_4">
     <g id="line2d_6">
      <g>
       <use xlink:href="#me21d8991ec" x="38.453125" y="77.271867" style="stroke: #000000; stroke-width: 0.8"/>
      </g>
     </g>
     <g id="text_6">
      <!-- 14 -->
      <g transform="translate(20.33125 80.850773) scale(0.1 -0.1)">
       <defs>
        <path id="ArialMT-34" d="M 2069 0 
L 2069 1097 
L 81 1097 
L 81 1613 
L 2172 4581 
L 2631 4581 
L 2631 1613 
L 3250 1613 
L 3250 1097 
L 2631 1097 
L 2631 0 
L 2069 0 
z
M 2069 1613 
L 2069 3678 
L 634 1613 
L 2069 1613 
z
" transform="scale(0.015625)"/>
       </defs>
       <use xlink:href="#ArialMT-31"/>
       <use xlink:href="#ArialMT-34" x="55.615234"/>
      </g>
     </g>
    </g>
    <g id="ytick_5">
     <g id="line2d_7">
      <g>
       <use xlink:href="#me21d8991ec" x="38.453125" y="55.107547" style="stroke: #000000; stroke-width: 0.8"/>
      </g>
     </g>
     <g id="text_7">
      <!-- 16 -->
      <g transform="translate(20.33125 58.686453) scale(0.1 -0.1)">
       <defs>
        <path id="ArialMT-36" d="M 3184 3459 
L 2625 3416 
Q 2550 3747 2413 3897 
Q 2184 4138 1850 4138 
Q 1581 4138 1378 3988 
Q 1113 3794 959 3422 
Q 806 3050 800 2363 
Q 1003 2672 1297 2822 
Q 1591 2972 1913 2972 
Q 2475 2972 2870 2558 
Q 3266 2144 3266 1488 
Q 3266 1056 3080 686 
Q 2894 316 2569 119 
Q 2244 -78 1831 -78 
Q 1128 -78 684 439 
Q 241 956 241 2144 
Q 241 3472 731 4075 
Q 1159 4600 1884 4600 
Q 2425 4600 2770 4297 
Q 3116 3994 3184 3459 
z
M 888 1484 
Q 888 1194 1011 928 
Q 1134 663 1356 523 
Q 1578 384 1822 384 
Q 2178 384 2434 671 
Q 2691 959 2691 1453 
Q 2691 1928 2437 2201 
Q 2184 2475 1800 2475 
Q 1419 2475 1153 2201 
Q 888 1928 888 1484 
z
" transform="scale(0.015625)"/>
       </defs>
       <use xlink:href="#ArialMT-31"/>
       <use xlink:href="#ArialMT-36" x="55.615234"/>
      </g>
     </g>
    </g>
    <g id="ytick_6">
     <g id="line2d_8">
      <g>
       <use xlink:href="#me21d8991ec" x="38.453125" y="32.943226" style="stroke: #000000; stroke-width: 0.8"/>
      </g>
     </g>
     <g id="text_8">
      <!-- 18 -->
      <g transform="translate(20.33125 36.522133) scale(0.1 -0.1)">
       <use xlink:href="#ArialMT-31"/>
       <use xlink:href="#ArialMT-38" x="55.615234"/>
      </g>
     </g>
    </g>
    <g id="ytick_7">
     <g id="line2d_9">
      <g>
       <use xlink:href="#me21d8991ec" x="38.453125" y="10.778906" style="stroke: #000000; stroke-width: 0.8"/>
      </g>
     </g>
     <g id="text_9">
      <!-- 20 -->
      <g transform="translate(20.33125 14.357812) scale(0.1 -0.1)">
       <use xlink:href="#ArialMT-32"/>
       <use xlink:href="#ArialMT-30" x="55.615234"/>
      </g>
     </g>
    </g>
    <g id="text_10">
     <!-- Manhattan Distance -->
     <g transform="translate(14.357812 127.473445) rotate(-90) scale(0.1 -0.1)">
      <defs>
       <path id="Arial-BoldMT-4d" d="M 453 0 
L 453 4581 
L 1838 4581 
L 2669 1456 
L 3491 4581 
L 4878 4581 
L 4878 0 
L 4019 0 
L 4019 3606 
L 3109 0 
L 2219 0 
L 1313 3606 
L 1313 0 
L 453 0 
z
" transform="scale(0.015625)"/>
       <path id="Arial-BoldMT-61" d="M 1116 2306 
L 319 2450 
Q 453 2931 781 3162 
Q 1109 3394 1756 3394 
Q 2344 3394 2631 3255 
Q 2919 3116 3036 2902 
Q 3153 2688 3153 2116 
L 3144 1091 
Q 3144 653 3186 445 
Q 3228 238 3344 0 
L 2475 0 
Q 2441 88 2391 259 
Q 2369 338 2359 363 
Q 2134 144 1878 34 
Q 1622 -75 1331 -75 
Q 819 -75 523 203 
Q 228 481 228 906 
Q 228 1188 362 1408 
Q 497 1628 739 1745 
Q 981 1863 1438 1950 
Q 2053 2066 2291 2166 
L 2291 2253 
Q 2291 2506 2166 2614 
Q 2041 2722 1694 2722 
Q 1459 2722 1328 2630 
Q 1197 2538 1116 2306 
z
M 2291 1594 
Q 2122 1538 1756 1459 
Q 1391 1381 1278 1306 
Q 1106 1184 1106 997 
Q 1106 813 1243 678 
Q 1381 544 1594 544 
Q 1831 544 2047 700 
Q 2206 819 2256 991 
Q 2291 1103 2291 1419 
L 2291 1594 
z
" transform="scale(0.015625)"/>
       <path id="Arial-BoldMT-68" d="M 1334 4581 
L 1334 2897 
Q 1759 3394 2350 3394 
Q 2653 3394 2897 3281 
Q 3141 3169 3264 2994 
Q 3388 2819 3433 2606 
Q 3478 2394 3478 1947 
L 3478 0 
L 2600 0 
L 2600 1753 
Q 2600 2275 2550 2415 
Q 2500 2556 2373 2639 
Q 2247 2722 2056 2722 
Q 1838 2722 1666 2615 
Q 1494 2509 1414 2295 
Q 1334 2081 1334 1663 
L 1334 0 
L 456 0 
L 456 4581 
L 1334 4581 
z
" transform="scale(0.015625)"/>
       <path id="Arial-BoldMT-44" d="M 463 4581 
L 2153 4581 
Q 2725 4581 3025 4494 
Q 3428 4375 3715 4072 
Q 4003 3769 4153 3330 
Q 4303 2891 4303 2247 
Q 4303 1681 4163 1272 
Q 3991 772 3672 463 
Q 3431 228 3022 97 
Q 2716 0 2203 0 
L 463 0 
L 463 4581 
z
M 1388 3806 
L 1388 772 
L 2078 772 
Q 2466 772 2638 816 
Q 2863 872 3011 1006 
Q 3159 1141 3253 1448 
Q 3347 1756 3347 2288 
Q 3347 2819 3253 3103 
Q 3159 3388 2990 3547 
Q 2822 3706 2563 3763 
Q 2369 3806 1803 3806 
L 1388 3806 
z
" transform="scale(0.015625)"/>
       <path id="Arial-BoldMT-73" d="M 150 947 
L 1031 1081 
Q 1088 825 1259 692 
Q 1431 559 1741 559 
Q 2081 559 2253 684 
Q 2369 772 2369 919 
Q 2369 1019 2306 1084 
Q 2241 1147 2013 1200 
Q 950 1434 666 1628 
Q 272 1897 272 2375 
Q 272 2806 612 3100 
Q 953 3394 1669 3394 
Q 2350 3394 2681 3172 
Q 3013 2950 3138 2516 
L 2309 2363 
Q 2256 2556 2107 2659 
Q 1959 2763 1684 2763 
Q 1338 2763 1188 2666 
Q 1088 2597 1088 2488 
Q 1088 2394 1175 2328 
Q 1294 2241 1995 2081 
Q 2697 1922 2975 1691 
Q 3250 1456 3250 1038 
Q 3250 581 2869 253 
Q 2488 -75 1741 -75 
Q 1063 -75 667 200 
Q 272 475 150 947 
z
" transform="scale(0.015625)"/>
       <path id="Arial-BoldMT-63" d="M 3353 2338 
L 2488 2181 
Q 2444 2441 2289 2572 
Q 2134 2703 1888 2703 
Q 1559 2703 1364 2476 
Q 1169 2250 1169 1719 
Q 1169 1128 1367 884 
Q 1566 641 1900 641 
Q 2150 641 2309 783 
Q 2469 925 2534 1272 
L 3397 1125 
Q 3263 531 2881 228 
Q 2500 -75 1859 -75 
Q 1131 -75 698 384 
Q 266 844 266 1656 
Q 266 2478 700 2936 
Q 1134 3394 1875 3394 
Q 2481 3394 2839 3133 
Q 3197 2872 3353 2338 
z
" transform="scale(0.015625)"/>
      </defs>
      <use xlink:href="#Arial-BoldMT-4d"/>
      <use xlink:href="#Arial-BoldMT-61" x="83.300781"/>
      <use xlink:href="#Arial-BoldMT-6e" x="138.916016"/>
      <use xlink:href="#Arial-BoldMT-68" x="200"/>
      <use xlink:href="#Arial-BoldMT-61" x="261.083984"/>
      <use xlink:href="#Arial-BoldMT-74" x="316.699219"/>
      <use xlink:href="#Arial-BoldMT-74" x="350"/>
      <use xlink:href="#Arial-BoldMT-61" x="383.300781"/>
      <use xlink:href="#Arial-BoldMT-6e" x="438.916016"/>
      <use xlink:href="#Arial-BoldMT-20" x="500"/>
      <use xlink:href="#Arial-BoldMT-44" x="527.783203"/>
      <use xlink:href="#Arial-BoldMT-69" x="600"/>
      <use xlink:href="#Arial-BoldMT-73" x="627.783203"/>
      <use xlink:href="#Arial-BoldMT-74" x="683.398438"/>
      <use xlink:href="#Arial-BoldMT-61" x="716.699219"/>
      <use xlink:href="#Arial-BoldMT-6e" x="772.314453"/>
      <use xlink:href="#Arial-BoldMT-63" x="833.398438"/>
      <use xlink:href="#Arial-BoldMT-65" x="889.013672"/>
     </g>
    </g>
   </g>
   <g id="line2d_10">
    <path d="M 77.260625 72.916311 
L 77.260625 36.735217 
" clip-path="url(#p0987301c13)" style="fill: none; stroke: #3f3f3f; stroke-width: 1.875; stroke-linecap: square"/>
   </g>
   <g id="line2d_11">
    <path d="M 77.260625 66.109954 
L 77.260625 53.579816 
" clip-path="url(#p0987301c13)" style="fill: none; stroke: #3f3f3f; stroke-width: 5.625; stroke-linecap: square"/>
   </g>
   <g id="line2d_12">
    <path d="M 77.260625 61.817 
" clip-path="url(#p0987301c13)" style="fill: none; stroke: #3f3f3f; stroke-width: 1.5; stroke-linecap: square"/>
    <defs>
     <path id="mf1c1e3c7ef" d="M 2.34375 0 
L -2.34375 -0 
" style="stroke: #ffffff; stroke-width: 1.125"/>
    </defs>
    <g clip-path="url(#p0987301c13)">
     <use xlink:href="#mf1c1e3c7ef" x="77.260625" y="61.817" style="fill: #ffffff; stroke: #ffffff; stroke-width: 1.125"/>
    </g>
   </g>
   <g id="line2d_13">
    <path d="M 154.875625 131.621285 
L 154.875625 113.515375 
" clip-path="url(#p0987301c13)" style="fill: none; stroke: #3f3f3f; stroke-width: 1.875; stroke-linecap: square"/>
   </g>
   <g id="line2d_14">
    <path d="M 154.875625 131.201586 
L 154.875625 117.929744 
" clip-path="url(#p0987301c13)" style="fill: none; stroke: #3f3f3f; stroke-width: 5.625; stroke-linecap: square"/>
   </g>
   <g id="line2d_15">
    <path d="M 154.875625 129.911164 
" clip-path="url(#p0987301c13)" style="fill: none; stroke: #3f3f3f; stroke-width: 1.5; stroke-linecap: square"/>
    <g clip-path="url(#p0987301c13)">
     <use xlink:href="#mf1c1e3c7ef" x="154.875625" y="129.911164" style="fill: #ffffff; stroke: #ffffff; stroke-width: 1.125"/>
    </g>
   </g>
   <g id="patch_3">
    <path d="M 38.453125 150.29273 
L 38.453125 10.199472 
" style="fill: none; stroke: #000000; stroke-linejoin: miter; stroke-linecap: square"/>
   </g>
   <g id="patch_4">
    <path d="M 193.683125 150.29273 
L 193.683125 10.199472 
" style="fill: none; stroke: #000000; stroke-linejoin: miter; stroke-linecap: square"/>
   </g>
   <g id="patch_5">
    <path d="M 38.453125 150.29273 
L 193.683125 150.29273 
" style="fill: none; stroke: #000000; stroke-linejoin: miter; stroke-linecap: square"/>
   </g>
   <g id="patch_6">
    <path d="M 38.453125 10.199472 
L 193.683125 10.199472 
" style="fill: none; stroke: #000000; stroke-linejoin: miter; stroke-linecap: square"/>
   </g>
   <g id="PathCollection_1">
    <defs>
     <path id="m070ca55fd1" d="M 0 2.5 
C 0.663008 2.5 1.29895 2.236584 1.767767 1.767767 
C 2.236584 1.29895 2.5 0.663008 2.5 0 
C 2.5 -0.663008 2.236584 -1.29895 1.767767 -1.767767 
C 1.29895 -2.236584 0.663008 -2.5 0 -2.5 
C -0.663008 -2.5 -1.29895 -2.236584 -1.767767 -1.767767 
C -2.236584 -1.29895 -2.5 -0.663008 -2.5 0 
C -2.5 0.663008 -2.236584 1.29895 -1.767767 1.767767 
C -1.29895 2.236584 -0.663008 2.5 0 2.5 
z
"/>
    </defs>
    <g clip-path="url(#p0987301c13)">
     <use xlink:href="#m070ca55fd1" x="77.260625" y="36.735217" style="fill: #ff0000; fill-opacity: 0.7"/>
     <use xlink:href="#m070ca55fd1" x="77.260625" y="53.579816" style="fill: #ff0000; fill-opacity: 0.7"/>
     <use xlink:href="#m070ca55fd1" x="74.569152" y="61.817" style="fill: #ff0000; fill-opacity: 0.7"/>
     <use xlink:href="#m070ca55fd1" x="77.260625" y="72.916311" style="fill: #ff0000; fill-opacity: 0.7"/>
     <use xlink:href="#m070ca55fd1" x="77.260625" y="66.109954" style="fill: #ff0000; fill-opacity: 0.7"/>
    </g>
   </g>
   <g id="PathCollection_2">
    <g clip-path="url(#p0987301c13)">
     <use xlink:href="#m070ca55fd1" x="154.875625" y="131.621285" style="fill: #ff0000; fill-opacity: 0.7"/>
     <use xlink:href="#m070ca55fd1" x="152.41017" y="113.515375" style="fill: #ff0000; fill-opacity: 0.7"/>
     <use xlink:href="#m070ca55fd1" x="154.875625" y="117.929744" style="fill: #ff0000; fill-opacity: 0.7"/>
     <use xlink:href="#m070ca55fd1" x="159.809003" y="129.911164" style="fill: #ff0000; fill-opacity: 0.7"/>
     <use xlink:href="#m070ca55fd1" x="149.644153" y="131.201586" style="fill: #ff0000; fill-opacity: 0.7"/>
    </g>
   </g>
  </g>
 </g>
 <defs>
  <clipPath id="p0987301c13">
   <rect x="38.453125" y="10.199472" width="155.23" height="140.093258"/>
  </clipPath>
 </defs>
</svg>
