<?xml version="1.0" encoding="utf-8" standalone="no"?>
<!DOCTYPE svg PUBLIC "-//W3C//DTD SVG 1.1//EN"
  "http://www.w3.org/Graphics/SVG/1.1/DTD/svg11.dtd">
<svg xmlns:xlink="http://www.w3.org/1999/xlink" width="238.851562pt" height="221.075938pt" viewBox="0 0 238.851562 221.075938" xmlns="http://www.w3.org/2000/svg" version="1.1">
 <metadata>
  <rdf:RDF xmlns:dc="http://purl.org/dc/elements/1.1/" xmlns:cc="http://creativecommons.org/ns#" xmlns:rdf="http://www.w3.org/1999/02/22-rdf-syntax-ns#">
   <cc:Work>
    <dc:type rdf:resource="http://purl.org/dc/dcmitype/StillImage"/>
    <dc:date>2025-11-01T10:05:52.981940</dc:date>
    <dc:format>image/svg+xml</dc:format>
    <dc:creator>
     <cc:Agent>
      <dc:title>Matplotlib v3.9.2, https://matplotlib.org/</dc:title>
     </cc:Agent>
    </dc:creator>
   </cc:Work>
  </rdf:RDF>
 </metadata>
 <defs>
  <style type="text/css">*{stroke-linejoin: round; stroke-linecap: butt}</style>
 </defs>
 <g id="figure_1">
  <g id="patch_1">
   <path d="M 0 221.075938 
L 238.851562 221.075938 
L 238.851562 -0 
L 0 -0 
L 0 221.075938 
z
" style="fill: none"/>
  </g>
  <g id="axes_1">
   <g id="patch_2">
    <path d="M 113.101562 173.52 
L 224.701562 173.52 
L 224.701562 7.2 
L 113.101562 7.2 
L 113.101562 173.52 
z
" style="fill: none"/>
   </g>
   <g id="matplotlib.axis_1">
    <g id="xtick_1">
     <g id="line2d_1">
      <defs>
       <path id="m2eaf9cf9b6" d="M 0 0 
L 0 3.5 
" style="stroke: #000000; stroke-width: 0.8"/>
      </defs>
      <g>
       <use xlink:href="#m2eaf9cf9b6" x="116.237821" y="173.52" style="stroke: #000000; stroke-width: 0.8"/>
      </g>
     </g>
     <g id="text_1">
      <!-- 0.0 -->
      <g transform="translate(109.287821 187.677813) scale(0.1 -0.1)">
       <defs>
        <path id="Arial-BoldMT-30" d="M 1756 4600 
Q 2422 4600 2797 4125 
Q 3244 3563 3244 2259 
Q 3244 959 2794 391 
Q 2422 -78 1756 -78 
Q 1088 -78 678 436 
Q 269 950 269 2269 
Q 269 3563 719 4131 
Q 1091 4600 1756 4600 
z
M 1756 3872 
Q 1597 3872 1472 3770 
Q 1347 3669 1278 3406 
Q 1188 3066 1188 2259 
Q 1188 1453 1269 1151 
Q 1350 850 1473 750 
Q 1597 650 1756 650 
Q 1916 650 2041 751 
Q 2166 853 2234 1116 
Q 2325 1453 2325 2259 
Q 2325 3066 2244 3367 
Q 2163 3669 2039 3770 
Q 1916 3872 1756 3872 
z
" transform="scale(0.015625)"/>
        <path id="Arial-BoldMT-2e" d="M 459 0 
L 459 878 
L 1338 878 
L 1338 0 
L 459 0 
z
" transform="scale(0.015625)"/>
       </defs>
       <use xlink:href="#Arial-BoldMT-30"/>
       <use xlink:href="#Arial-BoldMT-2e" x="55.615234"/>
       <use xlink:href="#Arial-BoldMT-30" x="83.398438"/>
      </g>
     </g>
    </g>
    <g id="xtick_2">
     <g id="line2d_2">
      <g>
       <use xlink:href="#m2eaf9cf9b6" x="152.392401" y="173.52" style="stroke: #000000; stroke-width: 0.8"/>
      </g>
     </g>
     <g id="text_2">
      <!-- 0.2 -->
      <g transform="translate(145.442401 187.677813) scale(0.1 -0.1)">
       <defs>
        <path id="Arial-BoldMT-32" d="M 3238 816 
L 3238 0 
L 159 0 
Q 209 463 459 877 
Q 709 1291 1447 1975 
Q 2041 2528 2175 2725 
Q 2356 2997 2356 3263 
Q 2356 3556 2198 3714 
Q 2041 3872 1763 3872 
Q 1488 3872 1325 3706 
Q 1163 3541 1138 3156 
L 263 3244 
Q 341 3969 753 4284 
Q 1166 4600 1784 4600 
Q 2463 4600 2850 4234 
Q 3238 3869 3238 3325 
Q 3238 3016 3127 2736 
Q 3016 2456 2775 2150 
Q 2616 1947 2200 1565 
Q 1784 1184 1673 1059 
Q 1563 934 1494 816 
L 3238 816 
z
" transform="scale(0.015625)"/>
       </defs>
       <use xlink:href="#Arial-BoldMT-30"/>
       <use xlink:href="#Arial-BoldMT-2e" x="55.615234"/>
       <use xlink:href="#Arial-BoldMT-32" x="83.398438"/>
      </g>
     </g>
    </g>
    <g id="xtick_3">
     <g id="line2d_3">
      <g>
       <use xlink:href="#m2eaf9cf9b6" x="188.546982" y="173.52" style="stroke: #000000; stroke-width: 0.8"/>
      </g>
     </g>
     <g id="text_3">
      <!-- 0.4 -->
      <g transform="translate(181.596982 187.677813) scale(0.1 -0.1)">
       <defs>
        <path id="Arial-BoldMT-34" d="M 1994 0 
L 1994 922 
L 119 922 
L 119 1691 
L 2106 4600 
L 2844 4600 
L 2844 1694 
L 3413 1694 
L 3413 922 
L 2844 922 
L 2844 0 
L 1994 0 
z
M 1994 1694 
L 1994 3259 
L 941 1694 
L 1994 1694 
z
" transform="scale(0.015625)"/>
       </defs>
       <use xlink:href="#Arial-BoldMT-30"/>
       <use xlink:href="#Arial-BoldMT-2e" x="55.615234"/>
       <use xlink:href="#Arial-BoldMT-34" x="83.398438"/>
      </g>
     </g>
    </g>
    <g id="xtick_4">
     <g id="line2d_4">
      <g>
       <use xlink:href="#m2eaf9cf9b6" x="224.701562" y="173.52" style="stroke: #000000; stroke-width: 0.8"/>
      </g>
     </g>
     <g id="text_4">
      <!-- 0.6 -->
      <g transform="translate(217.751562 187.677813) scale(0.1 -0.1)">
       <defs>
        <path id="Arial-BoldMT-36" d="M 3247 3459 
L 2397 3366 
Q 2366 3628 2234 3753 
Q 2103 3878 1894 3878 
Q 1616 3878 1423 3628 
Q 1231 3378 1181 2588 
Q 1509 2975 1997 2975 
Q 2547 2975 2939 2556 
Q 3331 2138 3331 1475 
Q 3331 772 2918 347 
Q 2506 -78 1859 -78 
Q 1166 -78 719 461 
Q 272 1000 272 2228 
Q 272 3488 737 4044 
Q 1203 4600 1947 4600 
Q 2469 4600 2811 4308 
Q 3153 4016 3247 3459 
z
M 1256 1544 
Q 1256 1116 1453 883 
Q 1650 650 1903 650 
Q 2147 650 2309 840 
Q 2472 1031 2472 1466 
Q 2472 1913 2297 2120 
Q 2122 2328 1859 2328 
Q 1606 2328 1431 2129 
Q 1256 1931 1256 1544 
z
" transform="scale(0.015625)"/>
       </defs>
       <use xlink:href="#Arial-BoldMT-30"/>
       <use xlink:href="#Arial-BoldMT-2e" x="55.615234"/>
       <use xlink:href="#Arial-BoldMT-36" x="83.398438"/>
      </g>
     </g>
    </g>
    <g id="text_5">
     <!-- Enzymes fraction -->
     <g transform="translate(127.502344 200.930938) scale(0.1 -0.1)">
      <defs>
       <path id="Arial-BoldMT-45" d="M 466 0 
L 466 4581 
L 3863 4581 
L 3863 3806 
L 1391 3806 
L 1391 2791 
L 3691 2791 
L 3691 2019 
L 1391 2019 
L 1391 772 
L 3950 772 
L 3950 0 
L 466 0 
z
" transform="scale(0.015625)"/>
       <path id="Arial-BoldMT-6e" d="M 3478 0 
L 2600 0 
L 2600 1694 
Q 2600 2231 2544 2389 
Q 2488 2547 2361 2634 
Q 2234 2722 2056 2722 
Q 1828 2722 1647 2597 
Q 1466 2472 1398 2265 
Q 1331 2059 1331 1503 
L 1331 0 
L 453 0 
L 453 3319 
L 1269 3319 
L 1269 2831 
Q 1703 3394 2363 3394 
Q 2653 3394 2893 3289 
Q 3134 3184 3257 3021 
Q 3381 2859 3429 2653 
Q 3478 2447 3478 2063 
L 3478 0 
z
" transform="scale(0.015625)"/>
       <path id="Arial-BoldMT-7a" d="M 106 0 
L 106 684 
L 1350 2113 
Q 1656 2463 1803 2609 
Q 1650 2600 1400 2597 
L 228 2591 
L 228 3319 
L 2972 3319 
L 2972 2697 
L 1703 1234 
L 1256 750 
Q 1622 772 1709 772 
L 3069 772 
L 3069 0 
L 106 0 
z
" transform="scale(0.015625)"/>
       <path id="Arial-BoldMT-79" d="M 44 3319 
L 978 3319 
L 1772 963 
L 2547 3319 
L 3456 3319 
L 2284 125 
L 2075 -453 
Q 1959 -744 1854 -897 
Q 1750 -1050 1614 -1145 
Q 1478 -1241 1279 -1294 
Q 1081 -1347 831 -1347 
Q 578 -1347 334 -1294 
L 256 -606 
Q 463 -647 628 -647 
Q 934 -647 1081 -467 
Q 1228 -288 1306 -9 
L 44 3319 
z
" transform="scale(0.015625)"/>
       <path id="Arial-BoldMT-6d" d="M 394 3319 
L 1203 3319 
L 1203 2866 
Q 1638 3394 2238 3394 
Q 2556 3394 2790 3262 
Q 3025 3131 3175 2866 
Q 3394 3131 3647 3262 
Q 3900 3394 4188 3394 
Q 4553 3394 4806 3245 
Q 5059 3097 5184 2809 
Q 5275 2597 5275 2122 
L 5275 0 
L 4397 0 
L 4397 1897 
Q 4397 2391 4306 2534 
Q 4184 2722 3931 2722 
Q 3747 2722 3584 2609 
Q 3422 2497 3350 2280 
Q 3278 2063 3278 1594 
L 3278 0 
L 2400 0 
L 2400 1819 
Q 2400 2303 2353 2443 
Q 2306 2584 2207 2653 
Q 2109 2722 1941 2722 
Q 1738 2722 1575 2612 
Q 1413 2503 1342 2297 
Q 1272 2091 1272 1613 
L 1272 0 
L 394 0 
L 394 3319 
z
" transform="scale(0.015625)"/>
       <path id="Arial-BoldMT-65" d="M 2381 1056 
L 3256 909 
Q 3088 428 2723 176 
Q 2359 -75 1813 -75 
Q 947 -75 531 491 
Q 203 944 203 1634 
Q 203 2459 634 2926 
Q 1066 3394 1725 3394 
Q 2466 3394 2894 2905 
Q 3322 2416 3303 1406 
L 1103 1406 
Q 1113 1016 1316 798 
Q 1519 581 1822 581 
Q 2028 581 2168 693 
Q 2309 806 2381 1056 
z
M 2431 1944 
Q 2422 2325 2234 2523 
Q 2047 2722 1778 2722 
Q 1491 2722 1303 2513 
Q 1116 2303 1119 1944 
L 2431 1944 
z
" transform="scale(0.015625)"/>
       <path id="Arial-BoldMT-73" d="M 150 947 
L 1031 1081 
Q 1088 825 1259 692 
Q 1431 559 1741 559 
Q 2081 559 2253 684 
Q 2369 772 2369 919 
Q 2369 1019 2306 1084 
Q 2241 1147 2013 1200 
Q 950 1434 666 1628 
Q 272 1897 272 2375 
Q 272 2806 612 3100 
Q 953 3394 1669 3394 
Q 2350 3394 2681 3172 
Q 3013 2950 3138 2516 
L 2309 2363 
Q 2256 2556 2107 2659 
Q 1959 2763 1684 2763 
Q 1338 2763 1188 2666 
Q 1088 2597 1088 2488 
Q 1088 2394 1175 2328 
Q 1294 2241 1995 2081 
Q 2697 1922 2975 1691 
Q 3250 1456 3250 1038 
Q 3250 581 2869 253 
Q 2488 -75 1741 -75 
Q 1063 -75 667 200 
Q 272 475 150 947 
z
" transform="scale(0.015625)"/>
       <path id="Arial-BoldMT-20" transform="scale(0.015625)"/>
       <path id="Arial-BoldMT-66" d="M 75 3319 
L 563 3319 
L 563 3569 
Q 563 3988 652 4194 
Q 741 4400 980 4529 
Q 1219 4659 1584 4659 
Q 1959 4659 2319 4547 
L 2200 3934 
Q 1991 3984 1797 3984 
Q 1606 3984 1523 3895 
Q 1441 3806 1441 3553 
L 1441 3319 
L 2097 3319 
L 2097 2628 
L 1441 2628 
L 1441 0 
L 563 0 
L 563 2628 
L 75 2628 
L 75 3319 
z
" transform="scale(0.015625)"/>
       <path id="Arial-BoldMT-72" d="M 1300 0 
L 422 0 
L 422 3319 
L 1238 3319 
L 1238 2847 
Q 1447 3181 1614 3287 
Q 1781 3394 1994 3394 
Q 2294 3394 2572 3228 
L 2300 2463 
Q 2078 2606 1888 2606 
Q 1703 2606 1575 2504 
Q 1447 2403 1373 2137 
Q 1300 1872 1300 1025 
L 1300 0 
z
" transform="scale(0.015625)"/>
       <path id="Arial-BoldMT-61" d="M 1116 2306 
L 319 2450 
Q 453 2931 781 3162 
Q 1109 3394 1756 3394 
Q 2344 3394 2631 3255 
Q 2919 3116 3036 2902 
Q 3153 2688 3153 2116 
L 3144 1091 
Q 3144 653 3186 445 
Q 3228 238 3344 0 
L 2475 0 
Q 2441 88 2391 259 
Q 2369 338 2359 363 
Q 2134 144 1878 34 
Q 1622 -75 1331 -75 
Q 819 -75 523 203 
Q 228 481 228 906 
Q 228 1188 362 1408 
Q 497 1628 739 1745 
Q 981 1863 1438 1950 
Q 2053 2066 2291 2166 
L 2291 2253 
Q 2291 2506 2166 2614 
Q 2041 2722 1694 2722 
Q 1459 2722 1328 2630 
Q 1197 2538 1116 2306 
z
M 2291 1594 
Q 2122 1538 1756 1459 
Q 1391 1381 1278 1306 
Q 1106 1184 1106 997 
Q 1106 813 1243 678 
Q 1381 544 1594 544 
Q 1831 544 2047 700 
Q 2206 819 2256 991 
Q 2291 1103 2291 1419 
L 2291 1594 
z
" transform="scale(0.015625)"/>
       <path id="Arial-BoldMT-63" d="M 3353 2338 
L 2488 2181 
Q 2444 2441 2289 2572 
Q 2134 2703 1888 2703 
Q 1559 2703 1364 2476 
Q 1169 2250 1169 1719 
Q 1169 1128 1367 884 
Q 1566 641 1900 641 
Q 2150 641 2309 783 
Q 2469 925 2534 1272 
L 3397 1125 
Q 3263 531 2881 228 
Q 2500 -75 1859 -75 
Q 1131 -75 698 384 
Q 266 844 266 1656 
Q 266 2478 700 2936 
Q 1134 3394 1875 3394 
Q 2481 3394 2839 3133 
Q 3197 2872 3353 2338 
z
" transform="scale(0.015625)"/>
       <path id="Arial-BoldMT-74" d="M 1981 3319 
L 1981 2619 
L 1381 2619 
L 1381 1281 
Q 1381 875 1398 808 
Q 1416 741 1477 697 
Q 1538 653 1625 653 
Q 1747 653 1978 738 
L 2053 56 
Q 1747 -75 1359 -75 
Q 1122 -75 931 4 
Q 741 84 652 211 
Q 563 338 528 553 
Q 500 706 500 1172 
L 500 2619 
L 97 2619 
L 97 3319 
L 500 3319 
L 500 3978 
L 1381 4491 
L 1381 3319 
L 1981 3319 
z
" transform="scale(0.015625)"/>
       <path id="Arial-BoldMT-69" d="M 459 3769 
L 459 4581 
L 1338 4581 
L 1338 3769 
L 459 3769 
z
M 459 0 
L 459 3319 
L 1338 3319 
L 1338 0 
L 459 0 
z
" transform="scale(0.015625)"/>
       <path id="Arial-BoldMT-6f" d="M 256 1706 
Q 256 2144 472 2553 
Q 688 2963 1083 3178 
Q 1478 3394 1966 3394 
Q 2719 3394 3200 2905 
Q 3681 2416 3681 1669 
Q 3681 916 3195 420 
Q 2709 -75 1972 -75 
Q 1516 -75 1102 131 
Q 688 338 472 736 
Q 256 1134 256 1706 
z
M 1156 1659 
Q 1156 1166 1390 903 
Q 1625 641 1969 641 
Q 2313 641 2545 903 
Q 2778 1166 2778 1666 
Q 2778 2153 2545 2415 
Q 2313 2678 1969 2678 
Q 1625 2678 1390 2415 
Q 1156 2153 1156 1659 
z
" transform="scale(0.015625)"/>
      </defs>
      <use xlink:href="#Arial-BoldMT-45"/>
      <use xlink:href="#Arial-BoldMT-6e" x="66.699219"/>
      <use xlink:href="#Arial-BoldMT-7a" x="127.783203"/>
      <use xlink:href="#Arial-BoldMT-79" x="177.783203"/>
      <use xlink:href="#Arial-BoldMT-6d" x="233.398438"/>
      <use xlink:href="#Arial-BoldMT-65" x="322.314453"/>
      <use xlink:href="#Arial-BoldMT-73" x="377.929688"/>
      <use xlink:href="#Arial-BoldMT-20" x="433.544922"/>
      <use xlink:href="#Arial-BoldMT-66" x="461.328125"/>
      <use xlink:href="#Arial-BoldMT-72" x="494.628906"/>
      <use xlink:href="#Arial-BoldMT-61" x="533.544922"/>
      <use xlink:href="#Arial-BoldMT-63" x="589.160156"/>
      <use xlink:href="#Arial-BoldMT-74" x="644.775391"/>
      <use xlink:href="#Arial-BoldMT-69" x="678.076172"/>
      <use xlink:href="#Arial-BoldMT-6f" x="705.859375"/>
      <use xlink:href="#Arial-BoldMT-6e" x="766.943359"/>
     </g>
     <!-- (g/gProt) -->
     <g transform="translate(148.075 211.77125) scale(0.1 -0.1)">
      <defs>
       <path id="Arial-BoldMT-28" d="M 1916 -1347 
L 1313 -1347 
Q 834 -625 584 153 
Q 334 931 334 1659 
Q 334 2563 644 3369 
Q 913 4069 1325 4659 
L 1925 4659 
Q 1497 3713 1336 3048 
Q 1175 2384 1175 1641 
Q 1175 1128 1270 590 
Q 1366 53 1531 -431 
Q 1641 -750 1916 -1347 
z
" transform="scale(0.015625)"/>
       <path id="Arial-BoldMT-67" d="M 378 -219 
L 1381 -341 
Q 1406 -516 1497 -581 
Q 1622 -675 1891 -675 
Q 2234 -675 2406 -572 
Q 2522 -503 2581 -350 
Q 2622 -241 2622 53 
L 2622 538 
Q 2228 0 1628 0 
Q 959 0 569 566 
Q 263 1013 263 1678 
Q 263 2513 664 2953 
Q 1066 3394 1663 3394 
Q 2278 3394 2678 2853 
L 2678 3319 
L 3500 3319 
L 3500 341 
Q 3500 -247 3403 -537 
Q 3306 -828 3131 -993 
Q 2956 -1159 2664 -1253 
Q 2372 -1347 1925 -1347 
Q 1081 -1347 728 -1058 
Q 375 -769 375 -325 
Q 375 -281 378 -219 
z
M 1163 1728 
Q 1163 1200 1367 954 
Q 1572 709 1872 709 
Q 2194 709 2416 961 
Q 2638 1213 2638 1706 
Q 2638 2222 2425 2472 
Q 2213 2722 1888 2722 
Q 1572 2722 1367 2476 
Q 1163 2231 1163 1728 
z
" transform="scale(0.015625)"/>
       <path id="Arial-BoldMT-2f" d="M -9 -78 
L 1125 4659 
L 1784 4659 
L 638 -78 
L -9 -78 
z
" transform="scale(0.015625)"/>
       <path id="Arial-BoldMT-50" d="M 466 0 
L 466 4581 
L 1950 4581 
Q 2794 4581 3050 4513 
Q 3444 4409 3709 4064 
Q 3975 3719 3975 3172 
Q 3975 2750 3822 2462 
Q 3669 2175 3433 2011 
Q 3197 1847 2953 1794 
Q 2622 1728 1994 1728 
L 1391 1728 
L 1391 0 
L 466 0 
z
M 1391 3806 
L 1391 2506 
L 1897 2506 
Q 2444 2506 2628 2578 
Q 2813 2650 2917 2803 
Q 3022 2956 3022 3159 
Q 3022 3409 2875 3571 
Q 2728 3734 2503 3775 
Q 2338 3806 1838 3806 
L 1391 3806 
z
" transform="scale(0.015625)"/>
       <path id="Arial-BoldMT-29" d="M 216 -1347 
Q 475 -791 581 -494 
Q 688 -197 778 190 
Q 869 578 912 926 
Q 956 1275 956 1641 
Q 956 2384 797 3048 
Q 638 3713 209 4659 
L 806 4659 
Q 1278 3988 1539 3234 
Q 1800 2481 1800 1706 
Q 1800 1053 1594 306 
Q 1359 -531 822 -1347 
L 216 -1347 
z
" transform="scale(0.015625)"/>
      </defs>
      <use xlink:href="#Arial-BoldMT-28"/>
      <use xlink:href="#Arial-BoldMT-67" x="33.300781"/>
      <use xlink:href="#Arial-BoldMT-2f" x="94.384766"/>
      <use xlink:href="#Arial-BoldMT-67" x="122.167969"/>
      <use xlink:href="#Arial-BoldMT-50" x="183.251953"/>
      <use xlink:href="#Arial-BoldMT-72" x="249.951172"/>
      <use xlink:href="#Arial-BoldMT-6f" x="288.867188"/>
      <use xlink:href="#Arial-BoldMT-74" x="349.951172"/>
      <use xlink:href="#Arial-BoldMT-29" x="383.251953"/>
     </g>
    </g>
   </g>
   <g id="matplotlib.axis_2">
    <g id="ytick_1">
     <g id="line2d_5">
      <defs>
       <path id="m54585707ba" d="M 0 0 
L -3.5 0 
" style="stroke: #000000; stroke-width: 0.8"/>
      </defs>
      <g>
       <use xlink:href="#m54585707ba" x="113.101562" y="17.595" style="stroke: #000000; stroke-width: 0.8"/>
      </g>
     </g>
     <g id="text_6">
      <!-- mitochondrion -->
      <g transform="translate(36.115625 21.173906) scale(0.1 -0.1)">
       <defs>
        <path id="Arial-BoldMT-68" d="M 1334 4581 
L 1334 2897 
Q 1759 3394 2350 3394 
Q 2653 3394 2897 3281 
Q 3141 3169 3264 2994 
Q 3388 2819 3433 2606 
Q 3478 2394 3478 1947 
L 3478 0 
L 2600 0 
L 2600 1753 
Q 2600 2275 2550 2415 
Q 2500 2556 2373 2639 
Q 2247 2722 2056 2722 
Q 1838 2722 1666 2615 
Q 1494 2509 1414 2295 
Q 1334 2081 1334 1663 
L 1334 0 
L 456 0 
L 456 4581 
L 1334 4581 
z
" transform="scale(0.015625)"/>
        <path id="Arial-BoldMT-64" d="M 3503 0 
L 2688 0 
L 2688 488 
Q 2484 203 2207 64 
Q 1931 -75 1650 -75 
Q 1078 -75 670 386 
Q 263 847 263 1672 
Q 263 2516 659 2955 
Q 1056 3394 1663 3394 
Q 2219 3394 2625 2931 
L 2625 4581 
L 3503 4581 
L 3503 0 
z
M 1159 1731 
Q 1159 1200 1306 963 
Q 1519 619 1900 619 
Q 2203 619 2415 876 
Q 2628 1134 2628 1647 
Q 2628 2219 2422 2470 
Q 2216 2722 1894 2722 
Q 1581 2722 1370 2473 
Q 1159 2225 1159 1731 
z
" transform="scale(0.015625)"/>
       </defs>
       <use xlink:href="#Arial-BoldMT-6d"/>
       <use xlink:href="#Arial-BoldMT-69" x="88.916016"/>
       <use xlink:href="#Arial-BoldMT-74" x="116.699219"/>
       <use xlink:href="#Arial-BoldMT-6f" x="150"/>
       <use xlink:href="#Arial-BoldMT-63" x="211.083984"/>
       <use xlink:href="#Arial-BoldMT-68" x="266.699219"/>
       <use xlink:href="#Arial-BoldMT-6f" x="327.783203"/>
       <use xlink:href="#Arial-BoldMT-6e" x="388.867188"/>
       <use xlink:href="#Arial-BoldMT-64" x="449.951172"/>
       <use xlink:href="#Arial-BoldMT-72" x="511.035156"/>
       <use xlink:href="#Arial-BoldMT-69" x="549.951172"/>
       <use xlink:href="#Arial-BoldMT-6f" x="577.734375"/>
       <use xlink:href="#Arial-BoldMT-6e" x="638.818359"/>
      </g>
     </g>
    </g>
    <g id="ytick_2">
     <g id="line2d_6">
      <g>
       <use xlink:href="#m54585707ba" x="113.101562" y="38.385" style="stroke: #000000; stroke-width: 0.8"/>
      </g>
     </g>
     <g id="text_7">
      <!-- cytoplasm -->
      <g transform="translate(56.642187 41.963906) scale(0.1 -0.1)">
       <defs>
        <path id="Arial-BoldMT-70" d="M 434 3319 
L 1253 3319 
L 1253 2831 
Q 1413 3081 1684 3237 
Q 1956 3394 2288 3394 
Q 2866 3394 3269 2941 
Q 3672 2488 3672 1678 
Q 3672 847 3265 386 
Q 2859 -75 2281 -75 
Q 2006 -75 1782 34 
Q 1559 144 1313 409 
L 1313 -1263 
L 434 -1263 
L 434 3319 
z
M 1303 1716 
Q 1303 1156 1525 889 
Q 1747 622 2066 622 
Q 2372 622 2575 867 
Q 2778 1113 2778 1672 
Q 2778 2194 2568 2447 
Q 2359 2700 2050 2700 
Q 1728 2700 1515 2451 
Q 1303 2203 1303 1716 
z
" transform="scale(0.015625)"/>
        <path id="Arial-BoldMT-6c" d="M 459 0 
L 459 4581 
L 1338 4581 
L 1338 0 
L 459 0 
z
" transform="scale(0.015625)"/>
       </defs>
       <use xlink:href="#Arial-BoldMT-63"/>
       <use xlink:href="#Arial-BoldMT-79" x="55.615234"/>
       <use xlink:href="#Arial-BoldMT-74" x="111.230469"/>
       <use xlink:href="#Arial-BoldMT-6f" x="144.53125"/>
       <use xlink:href="#Arial-BoldMT-70" x="205.615234"/>
       <use xlink:href="#Arial-BoldMT-6c" x="266.699219"/>
       <use xlink:href="#Arial-BoldMT-61" x="294.482422"/>
       <use xlink:href="#Arial-BoldMT-73" x="350.097656"/>
       <use xlink:href="#Arial-BoldMT-6d" x="405.712891"/>
      </g>
     </g>
    </g>
    <g id="ytick_3">
     <g id="line2d_7">
      <g>
       <use xlink:href="#m54585707ba" x="113.101562" y="59.175" style="stroke: #000000; stroke-width: 0.8"/>
      </g>
     </g>
     <g id="text_8">
      <!-- cytosol -->
      <g transform="translate(71.095313 62.753906) scale(0.1 -0.1)">
       <use xlink:href="#Arial-BoldMT-63"/>
       <use xlink:href="#Arial-BoldMT-79" x="55.615234"/>
       <use xlink:href="#Arial-BoldMT-74" x="111.230469"/>
       <use xlink:href="#Arial-BoldMT-6f" x="144.53125"/>
       <use xlink:href="#Arial-BoldMT-73" x="205.615234"/>
       <use xlink:href="#Arial-BoldMT-6f" x="261.230469"/>
       <use xlink:href="#Arial-BoldMT-6c" x="322.314453"/>
      </g>
     </g>
    </g>
    <g id="ytick_4">
     <g id="line2d_8">
      <g>
       <use xlink:href="#m54585707ba" x="113.101562" y="79.965" style="stroke: #000000; stroke-width: 0.8"/>
      </g>
     </g>
     <g id="text_9">
      <!-- nucleus -->
      <g transform="translate(68.317187 83.543906) scale(0.1 -0.1)">
       <defs>
        <path id="Arial-BoldMT-75" d="M 2644 0 
L 2644 497 
Q 2463 231 2167 78 
Q 1872 -75 1544 -75 
Q 1209 -75 943 72 
Q 678 219 559 484 
Q 441 750 441 1219 
L 441 3319 
L 1319 3319 
L 1319 1794 
Q 1319 1094 1367 936 
Q 1416 778 1544 686 
Q 1672 594 1869 594 
Q 2094 594 2272 717 
Q 2450 841 2515 1023 
Q 2581 1206 2581 1919 
L 2581 3319 
L 3459 3319 
L 3459 0 
L 2644 0 
z
" transform="scale(0.015625)"/>
       </defs>
       <use xlink:href="#Arial-BoldMT-6e"/>
       <use xlink:href="#Arial-BoldMT-75" x="61.083984"/>
       <use xlink:href="#Arial-BoldMT-63" x="122.167969"/>
       <use xlink:href="#Arial-BoldMT-6c" x="177.783203"/>
       <use xlink:href="#Arial-BoldMT-65" x="205.566406"/>
       <use xlink:href="#Arial-BoldMT-75" x="261.181641"/>
       <use xlink:href="#Arial-BoldMT-73" x="322.265625"/>
      </g>
     </g>
    </g>
    <g id="ytick_5">
     <g id="line2d_9">
      <g>
       <use xlink:href="#m54585707ba" x="113.101562" y="100.755" style="stroke: #000000; stroke-width: 0.8"/>
      </g>
     </g>
     <g id="text_10">
      <!-- membrane -->
      <g transform="translate(55.526562 104.333906) scale(0.1 -0.1)">
       <defs>
        <path id="Arial-BoldMT-62" d="M 422 0 
L 422 4581 
L 1300 4581 
L 1300 2931 
Q 1706 3394 2263 3394 
Q 2869 3394 3266 2955 
Q 3663 2516 3663 1694 
Q 3663 844 3258 384 
Q 2853 -75 2275 -75 
Q 1991 -75 1714 67 
Q 1438 209 1238 488 
L 1238 0 
L 422 0 
z
M 1294 1731 
Q 1294 1216 1456 969 
Q 1684 619 2063 619 
Q 2353 619 2558 867 
Q 2763 1116 2763 1650 
Q 2763 2219 2556 2470 
Q 2350 2722 2028 2722 
Q 1713 2722 1503 2476 
Q 1294 2231 1294 1731 
z
" transform="scale(0.015625)"/>
       </defs>
       <use xlink:href="#Arial-BoldMT-6d"/>
       <use xlink:href="#Arial-BoldMT-65" x="88.916016"/>
       <use xlink:href="#Arial-BoldMT-6d" x="144.53125"/>
       <use xlink:href="#Arial-BoldMT-62" x="233.447266"/>
       <use xlink:href="#Arial-BoldMT-72" x="294.53125"/>
       <use xlink:href="#Arial-BoldMT-61" x="333.447266"/>
       <use xlink:href="#Arial-BoldMT-6e" x="389.0625"/>
       <use xlink:href="#Arial-BoldMT-65" x="450.146484"/>
      </g>
     </g>
    </g>
    <g id="ytick_6">
     <g id="line2d_10">
      <g>
       <use xlink:href="#m54585707ba" x="113.101562" y="121.545" style="stroke: #000000; stroke-width: 0.8"/>
      </g>
     </g>
     <g id="text_11">
      <!-- mitochondrial matrix -->
      <g transform="translate(7.2 125.123906) scale(0.1 -0.1)">
       <defs>
        <path id="Arial-BoldMT-78" d="M 38 0 
L 1234 1709 
L 88 3319 
L 1159 3319 
L 1747 2406 
L 2366 3319 
L 3397 3319 
L 2272 1747 
L 3500 0 
L 2422 0 
L 1747 1028 
L 1066 0 
L 38 0 
z
" transform="scale(0.015625)"/>
       </defs>
       <use xlink:href="#Arial-BoldMT-6d"/>
       <use xlink:href="#Arial-BoldMT-69" x="88.916016"/>
       <use xlink:href="#Arial-BoldMT-74" x="116.699219"/>
       <use xlink:href="#Arial-BoldMT-6f" x="150"/>
       <use xlink:href="#Arial-BoldMT-63" x="211.083984"/>
       <use xlink:href="#Arial-BoldMT-68" x="266.699219"/>
       <use xlink:href="#Arial-BoldMT-6f" x="327.783203"/>
       <use xlink:href="#Arial-BoldMT-6e" x="388.867188"/>
       <use xlink:href="#Arial-BoldMT-64" x="449.951172"/>
       <use xlink:href="#Arial-BoldMT-72" x="511.035156"/>
       <use xlink:href="#Arial-BoldMT-69" x="549.951172"/>
       <use xlink:href="#Arial-BoldMT-61" x="577.734375"/>
       <use xlink:href="#Arial-BoldMT-6c" x="633.349609"/>
       <use xlink:href="#Arial-BoldMT-20" x="661.132812"/>
       <use xlink:href="#Arial-BoldMT-6d" x="688.916016"/>
       <use xlink:href="#Arial-BoldMT-61" x="777.832031"/>
       <use xlink:href="#Arial-BoldMT-74" x="833.447266"/>
       <use xlink:href="#Arial-BoldMT-72" x="866.748047"/>
       <use xlink:href="#Arial-BoldMT-69" x="905.664062"/>
       <use xlink:href="#Arial-BoldMT-78" x="933.447266"/>
      </g>
     </g>
    </g>
    <g id="ytick_7">
     <g id="line2d_11">
      <g>
       <use xlink:href="#m54585707ba" x="113.101562" y="142.335" style="stroke: #000000; stroke-width: 0.8"/>
      </g>
     </g>
     <g id="text_12">
      <!-- lipid droplet -->
      <g transform="translate(48.889062 145.913906) scale(0.1 -0.1)">
       <use xlink:href="#Arial-BoldMT-6c"/>
       <use xlink:href="#Arial-BoldMT-69" x="27.783203"/>
       <use xlink:href="#Arial-BoldMT-70" x="55.566406"/>
       <use xlink:href="#Arial-BoldMT-69" x="116.650391"/>
       <use xlink:href="#Arial-BoldMT-64" x="144.433594"/>
       <use xlink:href="#Arial-BoldMT-20" x="205.517578"/>
       <use xlink:href="#Arial-BoldMT-64" x="233.300781"/>
       <use xlink:href="#Arial-BoldMT-72" x="294.384766"/>
       <use xlink:href="#Arial-BoldMT-6f" x="333.300781"/>
       <use xlink:href="#Arial-BoldMT-70" x="394.384766"/>
       <use xlink:href="#Arial-BoldMT-6c" x="455.46875"/>
       <use xlink:href="#Arial-BoldMT-65" x="483.251953"/>
       <use xlink:href="#Arial-BoldMT-74" x="538.867188"/>
      </g>
     </g>
    </g>
    <g id="ytick_8">
     <g id="line2d_12">
      <g>
       <use xlink:href="#m54585707ba" x="113.101562" y="163.125" style="stroke: #000000; stroke-width: 0.8"/>
      </g>
     </g>
     <g id="text_13">
      <!-- peroxisome -->
      <g transform="translate(49.971875 166.703906) scale(0.1 -0.1)">
       <use xlink:href="#Arial-BoldMT-70"/>
       <use xlink:href="#Arial-BoldMT-65" x="61.083984"/>
       <use xlink:href="#Arial-BoldMT-72" x="116.699219"/>
       <use xlink:href="#Arial-BoldMT-6f" x="155.615234"/>
       <use xlink:href="#Arial-BoldMT-78" x="216.699219"/>
       <use xlink:href="#Arial-BoldMT-69" x="272.314453"/>
       <use xlink:href="#Arial-BoldMT-73" x="300.097656"/>
       <use xlink:href="#Arial-BoldMT-6f" x="355.712891"/>
       <use xlink:href="#Arial-BoldMT-6d" x="416.796875"/>
       <use xlink:href="#Arial-BoldMT-65" x="505.712891"/>
      </g>
     </g>
    </g>
   </g>
   <g id="patch_3">
    <path d="M 161.159609 9.279 
L 161.159609 25.911 
L 172.787045 25.911 
L 172.787045 9.279 
L 161.159609 9.279 
z
" clip-path="url(#p1f673b4416)" style="fill: #176d9c; stroke: #303030; stroke-linejoin: miter"/>
   </g>
   <g id="line2d_13">
    <path d="M 161.159609 17.595 
L 153.870079 17.595 
" clip-path="url(#p1f673b4416)" style="fill: none; stroke: #303030"/>
   </g>
   <g id="line2d_14">
    <path d="M 172.787045 17.595 
L 189.874731 17.595 
" clip-path="url(#p1f673b4416)" style="fill: none; stroke: #303030"/>
   </g>
   <g id="line2d_15">
    <path d="M 153.870079 13.437 
L 153.870079 21.753 
" clip-path="url(#p1f673b4416)" style="fill: none; stroke: #303030; stroke-linecap: square"/>
   </g>
   <g id="line2d_16">
    <path d="M 189.874731 13.437 
L 189.874731 21.753 
" clip-path="url(#p1f673b4416)" style="fill: none; stroke: #303030; stroke-linecap: square"/>
   </g>
   <g id="patch_4">
    <path d="M 159.78933 30.069 
L 159.78933 46.701 
L 172.078011 46.701 
L 172.078011 30.069 
L 159.78933 30.069 
z
" clip-path="url(#p1f673b4416)" style="fill: #c38820; stroke: #303030; stroke-linejoin: miter"/>
   </g>
   <g id="line2d_17">
    <path d="M 159.78933 38.385 
L 152.57958 38.385 
" clip-path="url(#p1f673b4416)" style="fill: none; stroke: #303030"/>
   </g>
   <g id="line2d_18">
    <path d="M 172.078011 38.385 
L 183.956169 38.385 
" clip-path="url(#p1f673b4416)" style="fill: none; stroke: #303030"/>
   </g>
   <g id="line2d_19">
    <path d="M 152.57958 34.227 
L 152.57958 42.543 
" clip-path="url(#p1f673b4416)" style="fill: none; stroke: #303030; stroke-linecap: square"/>
   </g>
   <g id="line2d_20">
    <path d="M 183.956169 34.227 
L 183.956169 42.543 
" clip-path="url(#p1f673b4416)" style="fill: none; stroke: #303030; stroke-linecap: square"/>
   </g>
   <g id="patch_5">
    <path d="M 138.622355 50.859 
L 138.622355 67.491 
L 145.843286 67.491 
L 145.843286 50.859 
L 138.622355 50.859 
z
" clip-path="url(#p1f673b4416)" style="fill: #158b6a; stroke: #303030; stroke-linejoin: miter"/>
   </g>
   <g id="line2d_21">
    <path d="M 138.622355 59.175 
L 133.098952 59.175 
" clip-path="url(#p1f673b4416)" style="fill: none; stroke: #303030"/>
   </g>
   <g id="line2d_22">
    <path d="M 145.843286 59.175 
L 148.854651 59.175 
" clip-path="url(#p1f673b4416)" style="fill: none; stroke: #303030"/>
   </g>
   <g id="line2d_23">
    <path d="M 133.098952 55.017 
L 133.098952 63.333 
" clip-path="url(#p1f673b4416)" style="fill: none; stroke: #303030; stroke-linecap: square"/>
   </g>
   <g id="line2d_24">
    <path d="M 148.854651 55.017 
L 148.854651 63.333 
" clip-path="url(#p1f673b4416)" style="fill: none; stroke: #303030; stroke-linecap: square"/>
   </g>
   <g id="patch_6">
    <path d="M 126.262319 71.649 
L 126.262319 88.281 
L 129.59597 88.281 
L 129.59597 71.649 
L 126.262319 71.649 
z
" clip-path="url(#p1f673b4416)" style="fill: #ba611b; stroke: #303030; stroke-linejoin: miter"/>
   </g>
   <g id="line2d_25">
    <path d="M 126.262319 79.965 
L 124.555269 79.965 
" clip-path="url(#p1f673b4416)" style="fill: none; stroke: #303030"/>
   </g>
   <g id="line2d_26">
    <path d="M 129.59597 79.965 
L 130.330254 79.965 
" clip-path="url(#p1f673b4416)" style="fill: none; stroke: #303030"/>
   </g>
   <g id="line2d_27">
    <path d="M 124.555269 75.807 
L 124.555269 84.123 
" clip-path="url(#p1f673b4416)" style="fill: none; stroke: #303030; stroke-linecap: square"/>
   </g>
   <g id="line2d_28">
    <path d="M 130.330254 75.807 
L 130.330254 84.123 
" clip-path="url(#p1f673b4416)" style="fill: none; stroke: #303030; stroke-linecap: square"/>
   </g>
   <g id="patch_7">
    <path d="M 122.933265 92.439 
L 122.933265 109.071 
L 128.232544 109.071 
L 128.232544 92.439 
L 122.933265 92.439 
z
" clip-path="url(#p1f673b4416)" style="fill: #c282b5; stroke: #303030; stroke-linejoin: miter"/>
   </g>
   <g id="line2d_29">
    <path d="M 122.933265 100.755 
L 122.430311 100.755 
" clip-path="url(#p1f673b4416)" style="fill: none; stroke: #303030"/>
   </g>
   <g id="line2d_30">
    <path d="M 128.232544 100.755 
L 132.27866 100.755 
" clip-path="url(#p1f673b4416)" style="fill: none; stroke: #303030"/>
   </g>
   <g id="line2d_31">
    <path d="M 122.430311 96.597 
L 122.430311 104.913 
" clip-path="url(#p1f673b4416)" style="fill: none; stroke: #303030; stroke-linecap: square"/>
   </g>
   <g id="line2d_32">
    <path d="M 132.27866 96.597 
L 132.27866 104.913 
" clip-path="url(#p1f673b4416)" style="fill: none; stroke: #303030; stroke-linecap: square"/>
   </g>
   <g id="patch_8">
    <path d="M 120.347334 113.229 
L 120.347334 129.861 
L 128.064561 129.861 
L 128.064561 113.229 
L 120.347334 113.229 
z
" clip-path="url(#p1f673b4416)" style="fill: #bd926e; stroke: #303030; stroke-linejoin: miter"/>
   </g>
   <g id="line2d_33">
    <path d="M 120.347334 121.545 
L 119.048926 121.545 
" clip-path="url(#p1f673b4416)" style="fill: none; stroke: #303030"/>
   </g>
   <g id="line2d_34">
    <path d="M 128.064561 121.545 
L 138.830224 121.545 
" clip-path="url(#p1f673b4416)" style="fill: none; stroke: #303030"/>
   </g>
   <g id="line2d_35">
    <path d="M 119.048926 117.387 
L 119.048926 125.703 
" clip-path="url(#p1f673b4416)" style="fill: none; stroke: #303030; stroke-linecap: square"/>
   </g>
   <g id="line2d_36">
    <path d="M 138.830224 117.387 
L 138.830224 125.703 
" clip-path="url(#p1f673b4416)" style="fill: none; stroke: #303030; stroke-linecap: square"/>
   </g>
   <g id="patch_9">
    <path d="M 118.28951 134.019 
L 118.28951 150.651 
L 121.764145 150.651 
L 121.764145 134.019 
L 118.28951 134.019 
z
" clip-path="url(#p1f673b4416)" style="fill: #f2b8e0; stroke: #303030; stroke-linejoin: miter"/>
   </g>
   <g id="line2d_37">
    <path d="M 118.28951 142.335 
L 117.666175 142.335 
" clip-path="url(#p1f673b4416)" style="fill: none; stroke: #303030"/>
   </g>
   <g id="line2d_38">
    <path d="M 121.764145 142.335 
L 126.294134 142.335 
" clip-path="url(#p1f673b4416)" style="fill: none; stroke: #303030"/>
   </g>
   <g id="line2d_39">
    <path d="M 117.666175 138.177 
L 117.666175 146.493 
" clip-path="url(#p1f673b4416)" style="fill: none; stroke: #303030; stroke-linecap: square"/>
   </g>
   <g id="line2d_40">
    <path d="M 126.294134 138.177 
L 126.294134 146.493 
" clip-path="url(#p1f673b4416)" style="fill: none; stroke: #303030; stroke-linecap: square"/>
   </g>
   <g id="patch_10">
    <path d="M 116.957396 154.809 
L 116.957396 171.441 
L 119.149419 171.441 
L 119.149419 154.809 
L 116.957396 154.809 
z
" clip-path="url(#p1f673b4416)" style="fill: #949494; stroke: #303030; stroke-linejoin: miter"/>
   </g>
   <g id="line2d_41">
    <path d="M 116.957396 163.125 
L 116.757428 163.125 
" clip-path="url(#p1f673b4416)" style="fill: none; stroke: #303030"/>
   </g>
   <g id="line2d_42">
    <path d="M 119.149419 163.125 
L 122.400695 163.125 
" clip-path="url(#p1f673b4416)" style="fill: none; stroke: #303030"/>
   </g>
   <g id="line2d_43">
    <path d="M 116.757428 158.967 
L 116.757428 167.283 
" clip-path="url(#p1f673b4416)" style="fill: none; stroke: #303030; stroke-linecap: square"/>
   </g>
   <g id="line2d_44">
    <path d="M 122.400695 158.967 
L 122.400695 167.283 
" clip-path="url(#p1f673b4416)" style="fill: none; stroke: #303030; stroke-linecap: square"/>
   </g>
   <g id="line2d_45">
    <path d="M 166.033993 9.279 
L 166.033993 25.911 
" clip-path="url(#p1f673b4416)" style="fill: none; stroke: #303030"/>
   </g>
   <g id="line2d_46">
    <path d="M 165.721025 30.069 
L 165.721025 46.701 
" clip-path="url(#p1f673b4416)" style="fill: none; stroke: #303030"/>
   </g>
   <g id="line2d_47">
    <path d="M 142.327529 50.859 
L 142.327529 67.491 
" clip-path="url(#p1f673b4416)" style="fill: none; stroke: #303030"/>
   </g>
   <g id="line2d_48">
    <path d="M 127.161973 71.649 
L 127.161973 88.281 
" clip-path="url(#p1f673b4416)" style="fill: none; stroke: #303030"/>
   </g>
   <g id="line2d_49">
    <path d="M 126.432693 92.439 
L 126.432693 109.071 
" clip-path="url(#p1f673b4416)" style="fill: none; stroke: #303030"/>
   </g>
   <g id="line2d_50">
    <path d="M 121.363333 113.229 
L 121.363333 129.861 
" clip-path="url(#p1f673b4416)" style="fill: none; stroke: #303030"/>
   </g>
   <g id="line2d_51">
    <path d="M 118.7072 134.019 
L 118.7072 150.651 
" clip-path="url(#p1f673b4416)" style="fill: none; stroke: #303030"/>
   </g>
   <g id="line2d_52">
    <path d="M 117.176193 154.809 
L 117.176193 171.441 
" clip-path="url(#p1f673b4416)" style="fill: none; stroke: #303030"/>
   </g>
   <g id="patch_11">
    <path d="M 113.101562 173.52 
L 113.101562 7.2 
" style="fill: none; stroke: #000000; stroke-linejoin: miter; stroke-linecap: square"/>
   </g>
   <g id="patch_12">
    <path d="M 224.701562 173.52 
L 224.701562 7.2 
" style="fill: none; stroke: #000000; stroke-linejoin: miter; stroke-linecap: square"/>
   </g>
   <g id="patch_13">
    <path d="M 113.101562 173.52 
L 224.701562 173.52 
" style="fill: none; stroke: #000000; stroke-linejoin: miter; stroke-linecap: square"/>
   </g>
   <g id="patch_14">
    <path d="M 113.101562 7.2 
L 224.701562 7.2 
" style="fill: none; stroke: #000000; stroke-linejoin: miter; stroke-linecap: square"/>
   </g>
  </g>
 </g>
 <defs>
  <clipPath id="p1f673b4416">
   <rect x="113.101562" y="7.2" width="111.6" height="166.32"/>
  </clipPath>
 </defs>
</svg>
